<?xml version="1.0" standalone="no"?>
<!DOCTYPE svg PUBLIC "-//W3C//DTD SVG 1.1//EN" "http://www.w3.org/Graphics/SVG/1.1/DTD/svg11.dtd" >
<svg xmlns="http://www.w3.org/2000/svg" xmlns:xlink="http://www.w3.org/1999/xlink" version="1.1">
<metadata>
Created by FontForge 20170731 at Sun Feb  5 05:00:56 2023
 By Aleksey,,,
2021 (C) Copyright by Mans Greback AB 
</metadata>
<defs>
<font id="Jumper-BoldRegular" horiz-adv-x="1460" >
  <font-face 
    font-family="Jumper-Bold"
    font-weight="500"
    font-stretch="normal"
    units-per-em="2048"
    panose-1="0 0 0 0 0 0 0 0 0 0"
    ascent="1638"
    descent="-410"
    x-height="1071"
    cap-height="1423"
    bbox="-342 -615.677 3568 2261"
    underline-thickness="0"
    underline-position="0"
    unicode-range="U+0020-0237"
  />
<missing-glyph horiz-adv-x="935" 
d="M41 1382h854v-1382h-854v1382zM139 98h656v1186h-656v-1186z" />
    <glyph glyph-name=".notdef" horiz-adv-x="935" 
d="M41 1382h854v-1382h-854v1382zM139 98h656v1186h-656v-1186z" />
    <glyph glyph-name=".notdef" horiz-adv-x="935" 
d="M41 1382h854v-1382h-854v1382zM139 98h656v1186h-656v-1186z" />
    <glyph glyph-name=".null" horiz-adv-x="0" 
 />
    <glyph glyph-name="nonmarkingreturn" horiz-adv-x="682" 
 />
    <glyph glyph-name="space" unicode=" " horiz-adv-x="720" 
 />
    <glyph glyph-name="exclam" unicode="!" horiz-adv-x="557" 
d="M152 582l-58 950h383l-112 -950h-213zM256 0q-63 0 -119 29t-84 75q-30 46 -30 105q0 57 30 104q32 49 84 76q53 27 119 27q64 0 119 -27q52 -27 84 -76q30 -49 30 -104q0 -59 -30 -105q-28 -46 -84 -75q-60 -29 -119 -29z" />
    <glyph glyph-name="quotedbl" unicode="&#x22;" horiz-adv-x="741" 
d="M430 950l-8 578h323l-83 -578h-232zM18 1296l242 232l31 -346l-211 -232z" />
    <glyph glyph-name="numbersign" unicode="#" horiz-adv-x="1290" 
d="M174 147l27 222h-127l-2 245h159l29 240h-182l2 248h211l24 203h275l-25 -203h232l24 203h275l-25 -203h137v-246h-166l-28 -240h186l2 -247h-219l-27 -222h-274l27 222h-234l-26 -222h-275zM506 614l231 2l29 240l-229 -2z" />
    <glyph glyph-name="dollar" unicode="$" horiz-adv-x="1431" 
d="M725 -2q-185 0 -336 65q-149 64 -235 179q-89 112 -95 241h342q15 -88 95 -147q79 -58 202 -64q98 -6 172 13q73 19 109 55q38 38 41 84q3 65 -72 106q-78 41 -250 56q-277 27 -426 129q-151 100 -145 280q3 117 82 205q76 85 207 131q130 43 293 43q187 0 327 -57
q144 -59 234 -162q89 -106 104 -237h-334q-9 51 -53 92q-45 42 -119 67q-73 25 -159 25t-148 -19q-66 -23 -90 -53q-32 -37 -29 -74q3 -52 66 -86q60 -34 209 -49q331 -35 477 -137q150 -108 156 -274q3 -118 -72 -211q-78 -97 -219 -148q-145 -53 -334 -53zM623 -180v1712
h206v-1712h-206z" />
    <glyph glyph-name="percent" unicode="%" horiz-adv-x="1615" 
d="M96 0l1075 1376h379l-1075 -1376h-379zM1174 0q-128 0 -224 51q-100 52 -155 139q-58 88 -58 195q0 106 56 195q51 86 151 139q96 51 221 51q128 0 224 -51q97 -52 155 -139q55 -88 58 -195q0 -104 -54 -195q-54 -87 -153 -139q-96 -51 -221 -51zM492 606q-126 0 -222 51
t-153 142q-56 89 -56 194q0 102 54 193q51 86 151 139q92 51 221 51q128 0 224 -51q97 -52 155 -139q56 -89 56 -193q0 -105 -56 -194t-151 -142q-96 -51 -223 -51zM1167 221q76 0 117 47q42 48 45 117q3 71 -39 119q-44 47 -121 47t-118 -47q-42 -45 -39 -119
q-3 -72 39 -117q41 -47 116 -47zM487 827q75 0 119 47q42 48 45 119t-39 119q-44 47 -120 47q-75 0 -119 -47t-41 -119q-3 -71 39 -119q41 -47 116 -47z" />
    <glyph glyph-name="ampersand" unicode="&#x26;" horiz-adv-x="1433" 
d="M537 0q-166 0 -267 55q-99 50 -149 144q-47 89 -41 196q3 104 70 180q65 74 186 115q-206 86 -227 297q-12 114 49 215q58 99 184 160q124 59 293 59h430l-23 -274h-317q-134 0 -199 -41q-66 -45 -69 -129q-3 -68 47 -109q45 -39 143 -39h742l-5 -256h-757
q-59 0 -105 -18q-50 -21 -76 -57q-27 -41 -30 -92q-3 -69 57 -117q59 -47 166 -47q71 0 135 34q63 34 107 105q41 71 41 170l188 -129q-74 -182 -217 -303q-140 -119 -356 -119zM963 0l-50 254v401h316v-655h-266z" />
    <glyph glyph-name="quotesingle" unicode="'" horiz-adv-x="294" 
d="M31 950l-11 578h367l-143 -578h-213z" />
    <glyph glyph-name="parenleft" unicode="(" horiz-adv-x="716" 
d="M707 -96v-285q-169 15 -301 117q-137 103 -218 303q-81 199 -84 508q-3 286 80 508q83 218 224 338q139 115 301 118v-258q-79 -3 -142 -94q-63 -89 -98 -248q-36 -163 -39 -348q0 -227 35 -373q36 -152 96 -215q62 -68 146 -71z" />
    <glyph glyph-name="parenright" unicode=")" horiz-adv-x="749" 
d="M31 -381v258q76 3 139 84q60 74 98 221q36 148 39 332q3 218 -31 379q-38 165 -100 250q-63 87 -143 90v278q167 -15 299 -112q136 -105 217 -307q83 -210 86 -529q3 -282 -80 -495q-82 -213 -225 -332q-141 -117 -299 -117z" />
    <glyph glyph-name="asterisk" unicode="*" horiz-adv-x="1134" 
d="M422 580l-256 139l186 289l-336 -31l11 280l323 -45l-176 287l256 90l156 -317l141 309l264 -121l-166 -258l310 27l-5 -279l-333 45l182 -309l-252 -104l-137 342z" />
    <glyph glyph-name="plus" unicode="+" horiz-adv-x="1183" 
d="M406 219v328h-336v315h336v344h360v-344h344v-315h-344v-328h-360z" />
    <glyph glyph-name="comma" unicode="," horiz-adv-x="495" 
d="M252 -258l-207 39l31 647h375z" />
    <glyph glyph-name="hyphen" unicode="-" horiz-adv-x="780" 
d="M72 477v322h649v-322h-649z" />
    <glyph glyph-name="period" unicode="." horiz-adv-x="638" 
d="M328 0q-69 0 -129 31q-57 29 -93 84q-34 52 -34 114q0 65 34 117q36 55 93 84q63 29 129 29q65 0 131 -29q59 -30 94 -84q35 -53 35 -117q0 -61 -35 -114q-35 -54 -94 -84q-64 -31 -131 -31z" />
    <glyph glyph-name="slash" unicode="/" horiz-adv-x="1017" 
d="M-31 -158l760 1532h328l-764 -1532h-324z" />
    <glyph glyph-name="zero" unicode="0" horiz-adv-x="3995" 
d="M2126 1542q-50 0 -78 25q-31 25 -37 71q-6 27 -6 84l-2 93q0 61 10 106q15 75 107 78q43 0 75 -14q33 -14 46 -52q12 -35 12 -96l-2 -100q0 -75 -6 -105q-21 -90 -119 -90zM510 82l6 496h80l59 -310l58 310h84l2 -496h-70l-8 207l-35 -207h-57l-41 203l-4 -203h-74z
M821 -399q0 30 15 51q14 20 43 20q42 0 51 -20q10 -23 10 -58h-29v15q0 14 -4 26q-7 17 -22 17q-17 0 -25 -14q-11 -18 -8 -44v-36v-27q0 -40 12 -55q4 -11 19 -11q17 0 24 17q4 16 4 26v17h29q0 -35 -10 -62q-9 -24 -45 -24q-39 0 -51 26q-15 27 -15 72zM864 82v496h64
l84 -236v236h78v-496h-62l-86 244v-244h-78zM969 -479v63q-3 46 14 70q15 22 51 16q39 -3 51 -26q11 -29 11 -64q0 -22 2 -49q0 -42 -15 -66q-14 -26 -51 -26q-38 0 -51 22q-12 21 -12 60zM975 1546v451h94q36 0 66 -10q25 -8 41 -41q20 -33 20 -78q0 -63 -41 -90
q-18 -18 -41 -21q-35 -4 -49 -2h-33v-209h-57zM977 1202v281h57v-301q0 -44 6 -68q6 -23 31 -39q20 -4 23 -4q32 0 47 31q14 28 14 72v309h64v-205l2 -74q0 -57 -17 -110q-14 -44 -63 -60q-16 -8 -45 -8q-37 0 -64 18q-31 16 -43 50q-6 14 -10 49q-2 18 -2 59zM999 -422
l-2 -53q0 -48 17 -55q14 -7 20 -7q22 0 25 23q2 14 2 59l2 47q0 46 -16 52q-12 6 -19 6q-14 0 -20 -12q-9 -12 -9 -29q-3 -7 0 -17v-14zM1032 1800h27q19 0 39 4q20 6 30 23q9 15 9 41q0 28 -7 53q-6 19 -32 25q-12 4 -27 4l-39 -2v-148zM1055 -272v227h86v-23h-51v-77h40
v-21h-40v-106h-35zM1124 -559v229h37l41 -182l37 182h33l2 -229h-23v168l-37 -168h-24l-37 168v-168h-29zM1145 82v90h84v-90h-84zM1161 -174v51q-3 41 17 64q14 20 53 20q34 -3 47 -29q10 -30 10 -69q0 -20 2 -47q0 -38 -16 -64q-14 -26 -49 -26q-39 0 -51 26
q-13 29 -13 74zM1194 -145l-2 -50q0 -48 22 -57q28 -6 37 19q6 24 6 65q0 7 3 31q0 10 -5 45q-3 19 -16 22q-8 4 -14 4q-14 0 -23 -12q-8 -11 -8 -31v-36zM1239 1546v451h172v-49h-111v-148h91v-45h-91v-166h115v-43h-176zM1260 256l77 4q0 -21 4 -49q3 -22 17 -39
q9 -18 22 -18q29 0 29 45q0 29 -14 51q-9 13 -35 43q-6 5 -12 11t-10.5 11t-6.5 7q-4 6 -22 24q-19 16 -23 27q-24 40 -24 82q0 4 4 32q3 46 34 70q30 27 74 27q21 0 47 -11q40 -18 52 -59q12 -40 12 -98l-76 -4q-1 4 -1.5 9.5t-1 14t-1.5 15.5q-4 31 -8 41q-5 13 -21 16
q-19 3 -28 -12t-9 -33q0 -17 2 -19q8 -20 29 -38q4 -4 9 -8.5t8 -7t4 -3.5l39 -45q69 -69 57 -166q-3 -32 -25 -61q-24 -31 -61 -39q-37 -3 -72 12q-36 16 -47 47q-22 55 -22 121zM1266 1157l61 17q3 -39 6 -52q3 -17 17 -28q16 -19 41 -19q18 0 30 12q19 16 19 43t-15 48
q-4 8 -18 22q-21 21 -33 27q-11 9 -43 37q-29 23 -45 49q-18 30 -18 67t18 64q17 30 51 39q6 2 31 2q44 0 80 -19q37 -27 37 -96l-47 -20q-3 75 -52 84q-2 2 -14 2q-21 0 -33 -15t-12 -41q0 -25 14 -39q12 -15 33 -32q5 -4 10.5 -9t9.5 -8.5t7 -5.5q55 -45 72 -67
q20 -26 20 -80q0 -44 -29 -76q-29 -33 -78 -33t-83 37q-34 34 -37 90zM1315 -559v229h33l38 -182l41 182h31l4 -229h-20l-4 168l-39 -168h-25l-33 168l-4 -168h-22zM1321 -272v227l45 2q26 0 39 -8q11 -7 22 -25q9 -15 9 -35q0 -18 -9 -30q-10 -17 -22 -19l37 -112h-37
l-31 106h-24v-106h-29zM1343 688v238q15 0 33 2q24 0 45 -6q22 -11 29 -23q6 -15 6 -37q0 -35 -14 -49q-15 -9 -27 -12q-8 -2 -24 -2h-17v-111h-31zM1350 -145q55 0 55 41q0 24 -12 30q-15 6 -43 6v-77zM1374 819q25 0 33 4q12 6 16 17q2 6 2 28q0 24 -10 31q-12 6 -41 6
v-86zM1462 1546v451q27 0 54 2q29 0 69 -4q25 -5 53 -17q24 -15 39 -45q13 -33 13 -65q0 -33 -13 -62q-14 -25 -41 -34l58 -226h-58l-61 211h-47v-211h-66zM1483 688v238h24v-211h62v-27h-86zM1499 -559v229h90v-22h-57v-70h47v-24h-47v-93h57v-20h-90zM1513 -68v23h119v-23
h-43v-204h-35v204h-41zM1526 332l-2 84q0 9 4 59q15 79 71 103q21 6 48 6q36 0 63 -17q36 -20 45 -61q8 -36 8 -103h-80q0 60 -4 80q-3 16 -22 25q-45 3 -45 -68v-180v-35q-3 -24 8 -49q9 -22 35 -22q28 0 31 32q4 40 4 82h-50v74h127v-260h-63l-4 16q-28 -22 -64 -22
q-28 0 -57 16q-42 20 -51 101q-4 54 -4 61zM1528 1800q35 0 63 4q42 20 33 78q0 51 -33 60q-18 11 -37 8q-14 -2 -26 -2v-148zM1546 1034v449h174v-51h-114v-146h90v-45h-90v-168h114v-39h-174zM1591 688v238h88v-21h-59v-82h49v-24h-49v-84h59v-27h-88zM1612 -559v229l49 2
q26 0 39 -8q12 -9 20 -22q6 -15 6 -33q0 -20 -8 -33q-9 -15 -22 -18l35 -117h-31l-27 113h-26v-113h-35zM1647 -422q27 0 39 6q10 3 10 25q0 23 -13 33q-12 6 -36 6v-70zM1647 -272v227h30v-100h62v100h33v-227h-33v106h-62v-106h-30zM1694 688l51 238h33l45 -238h-31
l-12 64h-49l-7 -64h-30zM1733 772h45l-19 109zM1733 1671l61 17q3 -60 23 -80q19 -19 43 -19q17 0 32 15q17 10 17 36t-17 50q-2 2 -18 22q-9 9 -33 29q-3 3 -39 35q-30 24 -45 45q-20 36 -20 73q0 35 18 62q17 26 53 35q15 6 39 6q43 0 68 -19q32 -19 41 -94l-47 -16
q-3 6 -6 28q-5 17 -17 37q-12 14 -28 21q-21 0 -41 -10q-18 -9 -21 -29q-6 -35 16 -60q24 -31 60 -55q1 -1 13.5 -12.5t23.5 -22.5q26 -26 41 -53q14 -25 14 -59q0 -46 -29 -78q-29 -33 -77 -33q-55 0 -89 37q-33 33 -36 92zM1759 -399q0 30 15 51q11 20 41 20q40 0 51 -20
q12 -21 12 -58h-35q0 7 2 11q2 2 2 12q0 9 -6 18q-3 17 -20 17t-25 -14q-10 -10 -10 -39l2 -41l-2 -41q0 -28 10 -41q11 -11 23 -11q19 0 22 17q6 9 6 16q0 9 -2 15q-2 4 -2 12h35q0 -86 -61 -86q-36 0 -48 24q-12 21 -12 64zM1786 20l131 621h80l-142 -621h-69zM1802 -272
v227h90v-23h-55v-77h47v-21h-47v-90h55v-16h-90zM1837 756l35 10q0 -41 16 -51h6q31 0 31 28q0 14 -10 27q-6 8 -23 25q-14 11 -20 20q-12 7 -23 29q-10 17 -10 30q0 26 19 39q15 11 36 11q13 0 25 -4q15 -6 25 -23q8 -13 8 -33l-27 -4q-8 26 -14 35q-10 10 -19 10
q-17 0 -20 -20q-2 -2 -2 -13q0 -21 31 -49q2 -1 9 -7t13 -9q8 -6 21 -19q8 -8 8 -22q4 -20 4 -21q0 -26 -14 -40q-17 -17 -41 -17q-28 0 -43 21q-18 22 -21 47zM1888 1217l-2 102q0 52 8 88q15 43 43 59q31 17 76 17q86 0 107 -62q14 -28 14 -88l-2 -57q-2 -12 -2 -49l2 -64
q0 -30 -6 -45q-6 -42 -35 -65q-33 -23 -78 -23q-46 0 -82 25q-33 20 -39 67q-4 40 -4 95zM1913 -559v229h29v-229h-29zM1944 242l73 4q0 -15 2 -31q0 -23 11 -45q9 -17 26 -20h4q11 0 19 8q6 9 6 22v395h80v-397q0 -43 -29 -72q-32 -29 -72 -32h-12q-32 0 -45 8
q-39 17 -51 59q-12 41 -12 101zM1952 1174q0 -32 4 -60q3 -24 22 -33q15 -6 31 -6q18 0 27 6q29 16 32 58q3 3 3 16l-3 31v162v28q0 31 -14 45q-35 24 -55 13q-21 -3 -29 -11q-10 -10 -18 -28q-4 -36 -4 -47l2 -48q2 -10 2 -49v-77zM1964 -559l49 229h33l51 -229h-31l-6 61
h-49l-12 -61h-35zM1978 688v238h90v-21h-55v-82h47v-24h-47v-84h62v-27h-97zM1991 -272v227h86v-23h-64v-77h47v-21h-47v-106h-22zM2013 -481h41l-20 108zM2068 1683q0 -33 7 -57q3 -24 28 -33q20 -4 27 -4q11 0 27 4q17 9 24 25q5 12 8 35v205q0 35 -2 47q-3 16 -18 28
q-16 19 -31 19l-20 -4q-35 -3 -43 -41q-9 -24 -9 -66l2 -78v-80zM2097 -217q-3 10 0 27v24v121h27v-100v-37q-3 -30 6 -51q7 -23 24 -23q25 0 31 29q6 27 6 53q-2 14 -2 29v100h27v-102q0 -64 -8 -95q-9 -34 -56 -34q-20 0 -36 16t-19 43zM2120 -559v229h30v-209h60v-20h-90
zM2150 926h33l33 -170l35 170h28l-49 -238h-28zM2198 1034v449h40l127 -301v301h58v-449h-45l-133 303v-303h-47zM2202 258v317h84v-307q0 -66 6 -96q4 -6 16 -14q11 -7 23 -4q4 4 10 6q7 3 10 10q2 2 2 14q6 21 6 74v317h80v-317q0 -66 -8 -102q-9 -42 -45 -62
q-29 -16 -68 -16q-25 0 -45 4q-32 16 -47 43q-17 26 -20 59q-4 36 -4 74zM2251 -272v227h35v-211h51v-16h-86zM2288 -330h26l37 -168l35 168h29l-52 -229h-26zM2304 688v238h33v-238h-33zM2314 1546v451h41l123 -301v301h55v-451h-41l-127 301v-301h-51zM2363 -272v227h31
v-211h57v-16h-88zM2370 756l28 10q0 -14 6 -29q6 -16 19 -22h4q24 0 24 28q3 20 -12 35q-23 23 -41 37q-6 7 -20 29q-11 18 -11 33q0 20 19 36q18 11 41 11q14 0 22 -4q26 -10 29 -56l-27 -4q-6 45 -24 45q-16 0 -25 -20q-2 -2 -2 -13q0 -16 15 -28q15 -15 18 -21
q24 -18 33 -26q9 -15 12 -31q4 -20 4 -23q0 -24 -14 -38q-17 -17 -39 -17q-56 0 -59 68zM2439 -559v229h90v-22h-57v-70h47v-24h-47v-93h57v-20h-90zM2474 80l10 495h78l57 -311l58 311h88l2 -495h-74l-4 207l-39 -207h-57l-41 203v-203h-78zM2490 1034v449h60v-410h112v-39
h-172zM2511 688v238h31v-238h-31zM2529 -272l45 227h37l49 -227h-32l-11 57h-47l-14 -57h-27zM2554 -559v229l49 2q28 0 41 -8q22 -16 22 -53q0 -18 -6 -33q-10 -17 -22 -22l33 -115h-31l-31 113h-20v-113h-35zM2562 905v21h109v-21h-37v-217h-27v217h-45zM2574 -193h39
l-20 105zM2580 1546l95 451h63l94 -451h-59l-20 107h-93l-22 -107h-58zM2589 -422q27 0 39 6q10 3 10 25q0 24 -12 33q-12 6 -37 6v-70zM2669 1700h75l-34 207zM2681 -272v227h20l66 -150v150h29v-227h-23l-61 155v-155h-31zM2681 1483h57l68 -217l67 217h62l-62 -191
l-30 -90q-10 -16 -7 -33q3 -21 3 -26v-109h-64v90q0 19 2 33q0 27 -2 37q-10 43 -31 86zM2695 -492l29 5q0 -13 6 -25q3 -14 14 -18q3 -1 6.5 -2t5.5 -2t3 -1q10 0 16 9t6 20q0 27 -57 66q-29 29 -29 63q0 25 21 37q20 14 39 14q11 0 24 -8q27 -9 27 -51l-25 -12q0 10 -2 22
q-4 18 -14 23q-3 1 -6.5 2t-5.5 1.5t-3 0.5q-10 0 -20 -17l-4 -12q0 -15 14 -26q10 -8 21 -19q6 -9 18 -18q4 -4 11 -12t10 -11q6 -12 6 -26q4 -16 4 -21q0 -22 -12 -37q-14 -14 -39 -14q-31 0 -45 20q-16 19 -19 49zM2812 80v495h121q47 0 80 -45q32 -43 32 -120
q0 -55 -16 -105q-14 -47 -76 -63q-21 -6 -61 -6v-156h-80zM2832 -272v227l41 2q36 0 62 -16q14 -11 14 -50l-2 -51l2 -41q0 -45 -27 -57q-20 -17 -51 -14h-39zM2839 -559v229h26v-229h-26zM2863 -256q25 0 37 6q10 7 16 33v117q-3 22 -12 28q-16 4 -41 4v-188zM2879 1546
v451h64v-408h113v-43h-177zM2892 309h45q9 3 16 33q6 27 6 66q0 45 -8 69q-9 27 -26 27h-33v-195zM2900 -457v51q0 44 18 62q14 17 54 14t49 -26q8 -21 8 -52q-2 -18 -2 -34q0 -64 -8 -88q-9 -31 -53 -31q-41 0 -54 29q-12 27 -12 75zM2941 -422q0 -19 -2 -29q-4 -24 -4 -41
q0 -32 14 -38q14 -7 21 -7q28 0 28 72l2 49q0 54 -16 60q-12 6 -21 6q-22 0 -22 -41v-31zM2966 1034v62h61v-62h-61zM2966 1483h61l-21 -355h-20zM3064 -559v229h20l68 -153v153h24v-229h-22l-70 160v-160h-20zM3086 80v495h193v-83h-113v-109h90v-88h-90v-131h113v-84h-193
zM3334 80v495h144q36 0 61 -32q29 -37 29 -97q0 -40 -15 -77q-14 -38 -45 -60l56 -229h-82l-45 215h-23v-215h-80zM3414 365h45q8 5 14 24q7 21 7 41q0 27 -11 53q-9 21 -28 21h-27v-139z" />
    <glyph glyph-name="colon" unicode=":" horiz-adv-x="638" 
d="M334 668q-98 0 -166 59t-68 141q0 87 68 146q66 57 166 57q99 0 168 -57q67 -58 67 -146q0 -83 -67 -141q-71 -59 -168 -59zM334 0q-100 0 -166 57q-68 59 -68 144q0 84 68 143q66 57 166 57q99 0 168 -57q67 -58 67 -143q0 -86 -67 -144q-69 -57 -168 -57z" />
    <glyph glyph-name="semicolon" unicode=";" horiz-adv-x="638" 
d="M328 -258l-209 39l33 647h376zM334 668q-98 0 -166 59t-68 141q0 87 68 146q66 57 166 57q99 0 168 -57q67 -58 67 -146q0 -83 -67 -141q-71 -59 -168 -59z" />
    <glyph glyph-name="less" unicode="&#x3c;" horiz-adv-x="835" 
d="M758 29l-688 450v264l688 414v-332l-357 -213l357 -219v-364z" />
    <glyph glyph-name="equal" unicode="=" horiz-adv-x="1204" 
d="M72 815l-2 285h1050l2 -285h-1050zM74 369v280h1052v-280h-1052z" />
    <glyph glyph-name="greater" unicode="&#x3e;" horiz-adv-x="835" 
d="M70 29v333l356 213l-356 220v362l688 -450v-263z" />
    <glyph glyph-name="question" unicode="?" horiz-adv-x="1351" 
d="M492 520l-48 348q27 0 41 2q29 0 43 2q195 6 322 56q125 46 125 166q0 70 -55 125q-59 53 -156 65q-120 15 -209 -12q-86 -26 -131 -90q-42 -63 -33 -150h-348q-3 164 70 283q68 114 223 180q149 61 371 61q153 0 292 -45q144 -46 238 -145q94 -101 94 -248
q3 -129 -67 -223q-72 -97 -203 -152q-130 -58 -311 -73l-43 -150h-215zM606 0q-61 0 -117 29q-55 28 -83 75q-31 48 -31 105q0 56 31 104q32 50 83 76q53 27 117 27t119 -27q48 -25 86 -76q31 -51 31 -104q0 -57 -31 -105q-33 -48 -86 -75q-60 -29 -119 -29z" />
    <glyph glyph-name="at" unicode="@" horiz-adv-x="1949" 
d="M952 -444q-282 0 -485 141q-204 140 -307 373q-102 231 -99 491q6 258 129 483q121 222 342 359q218 135 496 135q266 0 467 -121q196 -118 303 -342q103 -217 94 -514q-9 -326 -196 -452q-190 -128 -367 -15q-177 110 -147 381l-35 64v489h252v-549q-3 -142 65 -192
q64 -53 135 24q70 73 82 250q15 229 -55 404q-72 172 -225 276q-151 98 -367 98q-219 0 -387 -98q-166 -97 -266 -274q-100 -172 -115 -406q-12 -218 72 -405q82 -186 242 -295t370 -109q118 0 228 39q112 38 194 96l170 -141q-129 -87 -276 -137q-154 -53 -314 -53zM870 27
q-104 0 -186 67q-84 67 -131 187q-46 116 -43 258q3 138 59 256q51 113 142 186q89 68 188 68q104 0 188 -66q85 -69 130 -180q46 -113 43 -254q-3 -136 -58 -262q-52 -119 -139 -191q-87 -69 -193 -69zM971 254q81 0 125 78q40 75 43 207q6 128 -23 206q-30 74 -110 74
q-89 0 -148 -80q-62 -83 -65 -200q-3 -83 18 -148q21 -64 66 -100q40 -37 94 -37z" />
    <glyph glyph-name="A" unicode="A" horiz-adv-x="1480" 
d="M20 0l474 1423h499l465 -1423h-383l-92 283h-477l-84 -283h-402zM575 551h324l-166 498z" />
    <glyph glyph-name="B" unicode="B" horiz-adv-x="1316" 
d="M158 0l28 788h496q271 0 420 -88q151 -89 166 -266q12 -111 -47 -213q-61 -101 -185 -160q-122 -61 -293 -61h-585zM96 0v1423h373v-1423h-373zM313 285h357q106 0 168 41t65 116q3 67 -45 109q-49 43 -149 43h-383zM307 838h344q101 0 154 39q53 41 59 112q3 79 -47 123
q-52 43 -149 43h-365zM172 674l45 749h535q245 0 354 -112q108 -114 102 -287q-6 -171 -182 -260q-178 -90 -455 -90h-399z" />
    <glyph glyph-name="C" unicode="C" 
d="M745 -39q-221 0 -378 98q-158 94 -242 263q-83 167 -80 366q3 195 94 369q86 165 254 268q162 98 383 98q190 0 336 -88q146 -90 225 -233q81 -147 84 -301h-346q-9 87 -47 153q-42 66 -106 105q-67 37 -158 37q-103 0 -180 -56q-78 -57 -121 -147q-46 -90 -49 -203
q-3 -122 37 -209q41 -90 116 -141q74 -51 185 -51q81 0 149 35q63 34 111 100q44 61 57 149h350q-15 -153 -100 -290q-87 -144 -234 -232q-153 -90 -340 -90z" />
    <glyph glyph-name="D" unicode="D" horiz-adv-x="1380" 
d="M162 0l76 1423h442q192 0 338 -96q148 -102 225 -260q78 -167 78 -356q0 -177 -78 -344q-75 -161 -225 -265q-147 -102 -346 -102h-510zM106 0v1423h377v-1423h-377zM344 295h295q94 0 166 57q74 56 117 156q42 96 39 223q-6 189 -91 297q-85 105 -225 105h-321z" />
    <glyph glyph-name="E" unicode="E" horiz-adv-x="1216" 
d="M90 0v1423h1024v-286h-653v-285h569l-2 -291h-567v-272h690v-289h-1061z" />
    <glyph glyph-name="F" unicode="F" horiz-adv-x="1103" 
d="M82 0v1423h1018l-2 -297h-643v-401h577l-2 -297h-575v-428h-373z" />
    <glyph glyph-name="G" unicode="G" horiz-adv-x="1527" 
d="M762 -39q-223 0 -385 98q-164 95 -250 265q-85 168 -82 376q3 185 96 357q90 164 260 266q166 100 392 100q191 0 331 -82q139 -81 224 -211q80 -127 98 -256h-356q-9 53 -50 107q-38 47 -104 82q-62 33 -156 33q-106 0 -188 -52q-78 -50 -127 -143q-48 -91 -51 -201
q-3 -122 39 -213q44 -95 122 -147q80 -53 189 -53q92 0 166 39q76 40 125 110q46 69 61 162l357 -6q-17 -155 -109 -305q-90 -147 -244 -236q-159 -90 -358 -90zM748 520v230h725v-158l-154 -72h-571z" />
    <glyph glyph-name="H" unicode="H" horiz-adv-x="1474" 
d="M1012 0v569h-549v-569h-371v1423h371v-573h549v573h370v-1423h-370z" />
    <glyph glyph-name="I" unicode="I" horiz-adv-x="614" 
d="M127 0v1423h371v-1423h-371z" />
    <glyph glyph-name="J" unicode="J" horiz-adv-x="1415" 
d="M623 -39q-208 0 -342 90q-133 89 -189 244q-56 151 -35 338h355q-9 -103 14 -174q24 -77 82 -117q59 -41 141 -41q145 0 221 102q76 101 76 306v714h387v-725q0 -228 -82 -393q-82 -166 -241 -254q-166 -90 -387 -90z" />
    <glyph glyph-name="K" unicode="K" horiz-adv-x="1411" 
d="M1061 0l-588 684v-684h-371v1423h371v-637l557 637h479l-628 -675l661 -748h-481z" />
    <glyph glyph-name="L" unicode="L" horiz-adv-x="1165" 
d="M94 0v1423h373v-1108h688v-315h-1061z" />
    <glyph glyph-name="M" unicode="M" horiz-adv-x="1843" 
d="M780 0l-327 954v-954h-347v1423h488l330 -833l348 833h487v-1423h-348v948l-364 -948h-267z" />
    <glyph glyph-name="N" unicode="N" horiz-adv-x="1538" 
d="M1067 0l-602 879v-879h-359v1423h359l612 -888v888h359v-1423h-369z" />
    <glyph glyph-name="O" unicode="O" horiz-adv-x="1572" 
d="M762 -39q-221 0 -387 96q-167 97 -248 260q-85 166 -82 373q3 193 96 365q87 164 260 268q166 100 392 100q221 0 387 -96q164 -95 250 -262q84 -172 81 -375q-3 -200 -100 -371q-95 -168 -264 -262q-172 -96 -385 -96zM768 285q111 0 193 55q83 56 129 149q46 90 49 201
q3 116 -37 207q-44 91 -123 147q-85 54 -193 54q-107 0 -190 -56q-83 -59 -129 -149q-46 -93 -49 -203q-6 -119 37 -207q41 -93 123 -145q80 -53 190 -53z" />
    <glyph glyph-name="P" unicode="P" horiz-adv-x="1275" 
d="M197 350l18 1073h430q199 0 334 -69q136 -70 207 -187q68 -121 71 -260q0 -169 -79 -291q-80 -123 -234 -192q-154 -71 -362 -74h-385zM94 0v1423h373v-1423h-373zM315 647h318q122 0 192 70q71 71 68 192q-6 104 -78 164q-75 60 -186 60h-334z" />
    <glyph glyph-name="Q" unicode="Q" horiz-adv-x="1579" 
d="M762 -39q-221 0 -387 96q-167 97 -248 260q-85 166 -82 373q3 193 96 365q87 164 260 268q166 100 392 100q221 0 387 -96q164 -95 250 -262q84 -172 81 -373q-3 -202 -100 -373q-95 -168 -264 -262q-172 -96 -385 -96zM1114 -244l-215 328l309 137l213 -301zM768 285
q111 0 193 55q83 56 129 149q46 90 49 201q3 116 -37 207q-44 91 -123 147q-85 54 -193 54q-107 0 -190 -56q-83 -59 -129 -149q-46 -93 -49 -203q-6 -119 37 -207q41 -93 123 -145q80 -53 190 -53z" />
    <glyph glyph-name="R" unicode="R" horiz-adv-x="1284" 
d="M889 0l-535 657l-8 766h297q180 3 315 -63q132 -65 203 -176q70 -113 70 -248q0 -164 -94 -277q-91 -110 -263 -157l453 -502h-438zM102 0v1423h375v-1423h-375zM424 713h197q109 3 172 57q64 55 61 158q-3 94 -66 145q-66 48 -170 45h-192z" />
    <glyph glyph-name="S" unicode="S" horiz-adv-x="1402" 
d="M690 -39q-200 0 -356 72q-155 70 -242 192q-88 119 -94 262h364q15 -94 95 -155q76 -61 202 -70q132 -9 215 35q81 41 87 115q3 65 -64 102q-72 37 -229 51q-298 30 -449 142q-152 112 -149 301q3 128 84 221q81 92 219 145q134 49 297 49q190 0 334 -63
q151 -66 239 -176q90 -116 111 -264l-363 2q-18 87 -104 143q-85 55 -217 55q-70 0 -123 -18q-56 -22 -80 -53q-29 -37 -29 -70q0 -55 47 -82q47 -30 160 -45l37 -4q356 -38 506 -146q150 -111 153 -288q3 -133 -73 -234q-78 -100 -228 -160q-151 -59 -350 -59z" />
    <glyph glyph-name="T" unicode="T" horiz-adv-x="1222" 
d="M434 0v1135h-454v288h1284v-288h-455v-1135h-375z" />
    <glyph glyph-name="U" unicode="U" horiz-adv-x="1536" 
d="M760 -39q-317 0 -498 172q-182 173 -182 531v759h371v-741q0 -204 84 -291q82 -88 231 -88q158 0 240 94q81 90 81 285v741h381v-764q0 -219 -82 -374q-84 -158 -241 -240q-162 -84 -385 -84z" />
    <glyph glyph-name="V" unicode="V" horiz-adv-x="1368" 
d="M420 0l-430 1423h370l289 -1028l344 1028h396l-488 -1423h-481z" />
    <glyph glyph-name="W" unicode="W" horiz-adv-x="1896" 
d="M1174 0l-216 885l-206 -885h-488l-284 1423h378l172 -1040l238 1040h360l238 -1034l190 1034h396l-320 -1423h-458z" />
    <glyph glyph-name="X" unicode="X" horiz-adv-x="1452" 
d="M1075 0l-338 578l-299 -578h-444l407 729l-397 694h430l297 -532l283 532h461l-402 -678l432 -745h-430z" />
    <glyph glyph-name="Y" unicode="Y" horiz-adv-x="1083" 
d="M346 0v422l-473 1001h385l274 -653l308 653h399l-512 -968l-2 -455h-379z" />
    <glyph glyph-name="Z" unicode="Z" horiz-adv-x="1370" 
d="M-43 0l805 1133h-742v290h1364l-825 -1136h793v-287h-1395z" />
    <glyph glyph-name="bracketleft" unicode="[" horiz-adv-x="886" 
d="M184 -342v1874h715v-254h-399v-1370h377l2 -250h-695z" />
    <glyph glyph-name="backslash" unicode="\" horiz-adv-x="987" 
d="M743 -158l-813 1532h320l817 -1532h-324z" />
    <glyph glyph-name="bracketright" unicode="]" horiz-adv-x="882" 
d="M18 -342v254h388v1370h-377v250h688v-1874h-699z" />
    <glyph glyph-name="asciicircum" unicode="^" horiz-adv-x="1095" 
d="M43 1008l365 491h292l344 -491h-339l-160 284l-168 -284h-334z" />
    <glyph glyph-name="underscore" unicode="_" horiz-adv-x="907" 
d="M41 -236v273h866v-273h-866z" />
    <glyph glyph-name="grave" unicode="`" horiz-adv-x="700" 
d="M547 1104l-563 237l155 267l482 -361z" />
    <glyph glyph-name="a" unicode="a" horiz-adv-x="1445" 
d="M569 -39q-147 0 -260 76q-117 73 -182 207q-66 135 -66 293q0 153 72 288q71 132 197 209q122 76 268 76q147 0 260 -76q114 -77 178 -207q64 -131 64 -290q-3 -156 -74 -289t-190 -209q-122 -78 -267 -78zM686 217q78 0 148 43q67 38 112 115q42 68 45 162q0 90 -37 163
q-39 77 -100 115q-65 41 -145 41q-84 0 -152 -41q-67 -43 -108 -117t-41 -163q0 -94 36 -162q39 -76 101 -115q65 -41 141 -41zM991 0l-2 1071h371l2 -1071h-371z" />
    <glyph glyph-name="b" unicode="b" horiz-adv-x="1437" 
d="M874 -39q-144 0 -266 78q-119 76 -190 209t-74 289q-3 153 64 290q64 130 178 207q113 76 260 76q146 0 268 -76q125 -78 195 -209q71 -133 71 -288q0 -164 -63 -293q-65 -133 -180 -207q-116 -76 -263 -76zM82 0v1528h371v-1528h-371zM758 217q76 0 141 41
q61 38 100 115q35 72 35 162q0 92 -39 163q-41 74 -108 117q-71 41 -154 41q-76 0 -141 -41t-103 -115q-36 -71 -36 -163t43 -162q45 -77 112 -115q70 -43 150 -43z" />
    <glyph glyph-name="c" unicode="c" horiz-adv-x="1380" 
d="M678 -39q-186 0 -330 78q-144 77 -217 207q-75 129 -72 293q3 153 84 288q76 128 224 207q143 76 333 76q165 0 297 -63t217 -177q81 -117 93 -247h-340q-8 49 -45 98q-35 47 -93 74q-56 26 -129 26q-91 0 -153 -39q-68 -41 -105 -104q-36 -62 -39 -139q-3 -83 33 -150
q34 -65 99 -102q64 -37 149 -37q110 0 184 59q73 61 97 148h338q-14 -136 -103 -254q-86 -111 -225 -176q-141 -66 -297 -66z" />
    <glyph glyph-name="d" unicode="d" horiz-adv-x="1437" 
d="M569 -39q-147 0 -260 76q-117 73 -182 207q-66 135 -66 293q0 153 72 288q71 132 197 209q122 76 268 76q147 0 260 -76q114 -77 178 -207q64 -131 64 -290q-3 -156 -74 -289t-190 -209q-122 -78 -267 -78zM686 217q78 0 148 43q67 38 112 115q42 68 45 162q0 90 -37 163
q-39 77 -100 115q-65 41 -145 41q-84 0 -152 -41q-67 -43 -108 -117t-41 -163q0 -94 36 -162q39 -76 101 -115q65 -41 141 -41zM991 0l-2 1528h371l2 -1528h-371z" />
    <glyph glyph-name="e" unicode="e" horiz-adv-x="1357" 
d="M690 -39q-199 0 -344 74q-148 76 -223 205q-79 133 -76 297q3 155 82 286q79 132 225 209q147 78 332 78q189 0 334 -80q142 -80 215 -211q75 -135 72 -284q-6 -66 -13 -99h-891q9 -88 93 -145q79 -58 204 -58q87 0 160 33q73 30 115 78l264 -156q-91 -102 -235 -163
q-143 -64 -314 -64zM410 635h540q-3 49 -35 102q-32 50 -86 76q-59 27 -135 27q-112 0 -186 -56q-77 -56 -98 -149z" />
    <glyph glyph-name="f" unicode="f" horiz-adv-x="1095" 
d="M295 0v1024q0 144 67 260q69 117 187 180q119 64 264 64h139l-2 -289h-30q-118 0 -185 -49q-67 -52 -67 -154v-1036h-373zM-6 707v268h1081v-268h-1081z" />
    <glyph glyph-name="g" unicode="g" horiz-adv-x="1425" 
d="M756 -588q-185 0 -330 80q-147 80 -233 227l299 136q50 -71 112 -107q65 -38 131 -35q116 0 174 76q59 77 62 201v1081h366v-1040q0 -185 -67 -322q-69 -142 -199 -217q-133 -80 -315 -80zM555 -39q-138 0 -254 78q-113 76 -176 211q-62 127 -59 287q3 155 77 288
q70 130 193 209q119 76 262 76q139 0 252 -76q110 -74 176 -209q60 -129 57 -286q-3 -156 -77 -289q-76 -136 -193 -211q-122 -78 -258 -78zM680 217q77 0 141 43q65 41 109 115q40 69 43 164q3 83 -33 159q-39 76 -100 117q-65 41 -140 41q-74 0 -139 -41
q-66 -45 -106 -117q-40 -76 -43 -163q-3 -88 32 -160q35 -75 99 -115q61 -43 137 -43z" />
    <glyph glyph-name="h" unicode="h" horiz-adv-x="1437" 
d="M977 0v594q0 105 -53 170q-51 63 -154 63q-88 0 -156 -45q-72 -47 -112 -129q-40 -81 -43 -194l-109 41q3 174 82 317q76 137 207 215q132 78 285 78q204 0 317 -125q111 -126 111 -358v-627h-375zM86 0v1528h373v-1528h-373z" />
    <glyph glyph-name="i" unicode="i" horiz-adv-x="581" 
d="M102 0v1071h375v-1071h-375zM289 1196q-69 0 -133 31q-62 30 -97 84q-36 50 -36 110q0 63 36 113q31 47 97 84q64 31 133 31t133 -31q62 -37 96 -84q35 -53 35 -113q0 -57 -35 -110q-39 -55 -96 -84q-64 -31 -133 -31z" />
    <glyph glyph-name="j" unicode="j" horiz-adv-x="606" 
d="M-186 -457v289h41q123 0 190 64q66 63 66 180v995h370v-983q0 -167 -61 -289q-61 -125 -176 -190q-120 -66 -271 -66h-159zM291 1196q-73 0 -133 31q-62 30 -97 84q-36 50 -36 110q0 63 36 113q31 47 97 84q60 31 133 31q69 0 133 -31q62 -37 96 -84q35 -53 35 -113
q0 -57 -35 -110q-39 -55 -96 -84q-64 -31 -133 -31z" />
    <glyph glyph-name="k" unicode="k" horiz-adv-x="1376" 
d="M975 0l-506 492v-492h-373v1528h373v-946l489 489h494l-569 -522l581 -549h-489z" />
    <glyph glyph-name="l" unicode="l" horiz-adv-x="585" 
d="M102 0v1528h371v-1528h-371z" />
    <glyph glyph-name="m" unicode="m" horiz-adv-x="2160" 
d="M1694 0v584q0 117 -41 182q-43 61 -133 61q-115 0 -179 -88q-66 -91 -69 -254l-109 39q3 177 72 312q65 134 176 204q110 70 250 70q191 0 299 -123q106 -121 106 -348v-639h-372zM104 0v1071h371v-1071h-371zM897 0v584q0 118 -39 180q-40 63 -131 63q-109 0 -178 -90
q-71 -92 -74 -252l-106 39q3 179 71 312q65 134 176 204q110 70 248 70q197 0 303 -127q105 -129 105 -367v-616h-375z" />
    <glyph glyph-name="n" unicode="n" 
d="M995 0v594q0 105 -53 170q-51 63 -156 63q-85 0 -153 -45q-73 -48 -113 -129q-42 -79 -45 -194l-106 41q3 172 82 315q78 141 206 217q132 78 283 78q207 0 320 -125q110 -125 110 -358v-627h-375zM104 0v1071h371v-1071h-371z" />
    <glyph glyph-name="o" unicode="o" horiz-adv-x="1404" 
d="M700 -39q-184 0 -331 78q-147 77 -230 209q-85 136 -82 289q3 159 88 290q80 129 234 207q146 76 332 76q194 0 340 -76q147 -78 225 -205q80 -133 80 -290q-3 -158 -86 -291q-85 -132 -234 -209q-153 -78 -336 -78zM696 244q88 0 156 39q66 40 106 106q39 62 39 148
q3 86 -30 151q-33 63 -101 105q-62 36 -153 36t-154 -38q-66 -38 -108 -105q-40 -67 -43 -147q-3 -83 34 -150q33 -64 103 -106q62 -39 151 -39z" />
    <glyph glyph-name="p" unicode="p" horiz-adv-x="1456" 
d="M852 -39q-144 0 -260 78q-116 76 -180 207q-65 133 -62 289q0 155 72 290q72 134 192 209q119 76 267 76q142 0 260 -74q117 -79 180 -207q65 -133 65 -294q0 -156 -71 -289q-72 -129 -197 -207t-266 -78zM90 -457l-2 1528h371v-1528h-369zM739 215q82 0 152 43
q67 40 108 115q39 71 39 166q0 92 -34 161q-39 74 -99 113q-65 41 -143 41q-79 0 -150 -41q-68 -42 -110 -115q-43 -73 -43 -161q0 -91 37 -164q35 -74 100 -115q64 -43 143 -43z" />
    <glyph glyph-name="q" unicode="q" horiz-adv-x="1449" 
d="M598 -39q-143 0 -268 78q-128 78 -197 207q-72 135 -72 289q0 159 66 294q63 129 182 207q115 74 260 74q148 0 267 -76t190 -209t74 -290q0 -158 -64 -289q-64 -130 -178 -207q-116 -78 -260 -78zM709 215q81 0 145 43q61 38 100 115q37 73 37 164q-3 90 -45 161
q-46 74 -112 115q-71 41 -148 41q-76 0 -141 -41q-61 -39 -101 -113q-36 -68 -36 -161q0 -92 41 -166q41 -75 108 -115q67 -43 152 -43zM989 -457l2 1528h371l-2 -1528h-371z" />
    <glyph glyph-name="r" unicode="r" horiz-adv-x="1273" 
d="M473 483h-104q3 185 75 332q69 141 185 219q110 76 233 76t209 -57q88 -60 133 -174q46 -116 43 -289h-370q3 109 -41 174q-42 63 -123 63q-68 0 -121 -41q-54 -42 -84 -118q-32 -71 -35 -185zM102 0v1071h371v-1071h-371z" />
    <glyph glyph-name="s" unicode="s" horiz-adv-x="1323" 
d="M659 -39q-197 0 -331 57q-141 59 -217 152q-77 92 -80 199h352q12 -63 74 -107q56 -42 178 -45q73 -3 135 14q55 16 82 43q27 24 27 54q0 27 -19 49q-23 20 -72 31q-46 11 -145 20q-256 21 -397 111q-140 90 -137 237q0 94 67 170q61 73 189 121q119 43 284 43
q172 0 297 -49q131 -55 201 -139q73 -92 88 -203h-356q-12 61 -72 96q-59 35 -164 35q-62 0 -100 -14q-41 -15 -60 -37t-16 -47q3 -41 49 -62q43 -24 146 -33q228 -21 352 -63q128 -47 180 -111q52 -67 55 -161q3 -96 -65 -179q-66 -80 -201 -131q-131 -51 -324 -51z" />
    <glyph glyph-name="t" unicode="t" horiz-adv-x="1060" 
d="M340 0v803h-336v268h336v359h379v-359h354v-268h-354v-803h-379z" />
    <glyph glyph-name="u" unicode="u" 
d="M530 -39q-205 0 -315 125q-111 126 -111 358v627h373v-594q0 -106 53 -168q51 -63 154 -63q90 0 158 45q67 44 112 129q40 82 43 192l107 -41q-3 -176 -80 -315q-78 -140 -207 -217q-135 -78 -287 -78zM997 0v1071h373v-1071h-373z" />
    <glyph glyph-name="v" unicode="v" horiz-adv-x="1349" 
d="M414 0l-426 1071h383l297 -764l315 764h401l-475 -1071h-495z" />
    <glyph glyph-name="w" unicode="w" horiz-adv-x="1986" 
d="M1190 0l-209 606l-213 -606h-424l-321 1071h378l174 -702l234 702h369l229 -682l201 682h387l-371 -1071h-434z" />
    <glyph glyph-name="x" unicode="x" horiz-adv-x="1347" 
d="M-29 0l383 528l-370 543h422l270 -407l276 407h434l-385 -520l381 -551h-430l-274 408l-283 -408h-424z" />
    <glyph glyph-name="y" unicode="y" 
d="M530 -39q-205 0 -315 125q-111 126 -111 358v627h373v-594q0 -106 53 -168q51 -63 154 -63q90 0 158 45q67 44 112 129q40 82 43 192l107 -41q-3 -176 -80 -315q-78 -140 -207 -217q-135 -78 -287 -78zM997 -457v1528h373v-1528h-373z" />
    <glyph glyph-name="z" unicode="z" horiz-adv-x="1177" 
d="M-2 0l588 788h-563v283h1167l-612 -792h589v-279h-1169z" />
    <glyph glyph-name="braceleft" unicode="{" horiz-adv-x="856" 
d="M639 -57v-285q-152 12 -266 84q-109 69 -162 172q-50 98 -35 201q8 55 35 108q22 43 63 96q31 45 43 66t15 49q3 58 -35 96q-42 42 -102 45l4 150q63 0 104 27q38 22 41 71q0 26 -10 56q-4 9 -39 77q-37 70 -55 125q-22 55 -19 119q3 145 111 230q109 83 317 83v-268
q-73 3 -123 -24t-47 -99q-3 -32 10 -61q6 -18 39 -82q38 -74 47 -102q17 -54 15 -103q-3 -57 -47 -98q-45 -45 -111 -60q61 -27 107 -94q44 -64 41 -129q-3 -60 -21 -98q-22 -42 -59 -82q-31 -39 -35 -47q-16 -23 -19 -47q-9 -52 15 -92q21 -40 69 -62q49 -22 109 -22z" />
    <glyph glyph-name="bar" unicode="|" horiz-adv-x="819" 
d="M299 -457v1989h217v-1989h-217z" />
    <glyph glyph-name="braceright" unicode="}" horiz-adv-x="856" 
d="M172 -342v268q70 -3 123 27q50 27 47 96q0 36 -12 66q-14 35 -39 78q-30 54 -47 106q-18 51 -15 98q3 59 47 103q46 43 113 55q-63 26 -106 96q-46 67 -43 129q3 65 22 101q22 39 57 77q24 27 37 50q14 22 17 45q12 52 -13 94q-23 40 -71 61q-47 21 -107 21v284
q154 -9 264 -79q108 -68 162 -174q50 -98 35 -203q-8 -55 -31 -105q-21 -42 -65 -98q-37 -51 -43 -61q-13 -24 -17 -56q-3 -54 37 -94q42 -42 103 -45l-4 -149q-65 0 -105 -27q-41 -27 -41 -74q0 -28 12 -55q9 -30 37 -78q35 -68 56 -121q21 -56 18 -121q-3 -147 -111 -229
q-109 -86 -317 -86z" />
    <glyph glyph-name="asciitilde" unicode="~" horiz-adv-x="1087" 
d="M313 315h-258q-24 149 2 258q27 110 95 172q69 60 161 60q69 0 121 -27q58 -30 115 -71q38 -31 67 -45q31 -17 54 -17q62 0 88 45q23 42 14 107h256q28 -148 -6 -254q-34 -108 -109 -168q-78 -60 -168 -60q-69 0 -116 27q-41 21 -105 72q-45 36 -69 49q-25 14 -56 14
q-60 0 -77 -45q-18 -46 -9 -117z" />
    <glyph glyph-name="nbsp" unicode="&#xa0;" horiz-adv-x="720" 
 />
    <glyph glyph-name="exclamdown" unicode="&#xa1;" horiz-adv-x="557" 
d="M367 827l57 -950h-383l113 950h213zM262 1409q66 0 119 -27t84 -75q31 -51 31 -107t-31 -104q-30 -46 -84 -74q-56 -29 -119 -29q-61 0 -117 29q-57 28 -86 76q-30 46 -30 102q0 58 30 107q31 48 86 75q53 27 117 27z" />
    <glyph glyph-name="cent" unicode="&#xa2;" horiz-adv-x="1445" 
d="M709 -23q-199 0 -344 89q-148 89 -224 241q-77 151 -71 338q3 181 88 336q86 156 231 242q149 88 348 88q184 0 318 -70q135 -71 215 -194q77 -124 98 -283h-330q-20 105 -100 178q-80 68 -205 68q-98 0 -174 -49q-77 -53 -121 -136q-43 -82 -43 -180q-3 -108 37 -186
q41 -84 115 -129q74 -47 172 -47q120 0 203 71q79 67 114 181h324q-26 -161 -111 -291q-81 -123 -221 -195q-141 -72 -319 -72zM625 -246v1778h206v-1778h-206z" />
    <glyph glyph-name="sterling" unicode="&#xa3;" horiz-adv-x="1370" 
d="M283 266v570q0 176 55 307t174 207q116 73 297 73q168 0 281 -73q112 -72 165 -211t41 -332h-313q6 128 -43 201t-147 73q-96 0 -146 -86q-51 -83 -51 -295l-119 -383zM362 0h-229q-26 141 4 254q27 108 99 168q69 60 155 63q79 3 152 -16q77 -20 200 -68q91 -37 152 -53
q59 -18 104 -18q60 0 95 47q33 44 24 102h223q25 -153 -8 -256q-35 -110 -108 -166q-75 -57 -183 -57q-74 0 -155 23q-75 22 -178 67q-85 35 -136 53q-59 19 -102 19q-62 0 -88 -45q-30 -47 -21 -117zM137 598v193h764v-193h-764z" />
    <glyph glyph-name="currency" unicode="&#xa4;" horiz-adv-x="1329" 
d="M629 172q-154 0 -283 72t-199 194q-72 123 -69 267q3 148 76 270q76 123 204 192q128 70 291 70q162 0 287 -70q128 -72 199 -192q71 -124 71 -268q0 -148 -78 -273q-79 -122 -210 -192t-289 -70zM215 145l-211 187l178 215l232 -195zM229 866l-219 211l230 191l196 -189
zM637 416q80 0 139 39t94 104q33 62 33 146q3 79 -29 147q-30 64 -88 104q-56 39 -139 39t-139 -39q-58 -40 -92 -104q-34 -63 -37 -147q-3 -77 29 -146q29 -61 90 -104q56 -39 139 -39zM1038 137l-198 217l233 189l199 -252zM1073 829l-199 230l205 211l248 -166z" />
    <glyph glyph-name="yen" unicode="&#xa5;" horiz-adv-x="1353" 
d="M455 0v217h-254v254h237l-450 905h370l283 -610l299 610h399l-493 -905h246v-254h-256v-217h-381z" />
    <glyph glyph-name="brokenbar" unicode="&#xa6;" horiz-adv-x="819" 
d="M299 772v760h217v-760h-217zM299 -457v760h217v-760h-217z" />
    <glyph glyph-name="section" unicode="&#xa7;" horiz-adv-x="1355" 
d="M668 -137q-193 0 -338 59q-149 61 -226 156q-81 101 -84 215h347q9 -63 82 -111q67 -44 194 -47q79 -3 141 12q57 15 93 43q32 22 32 58q0 29 -22 51q-26 19 -80 31q-47 10 -158 20q-262 26 -409 117q-147 90 -144 252q0 118 94 188t252 82l-12 -153q-161 43 -248 127
q-89 83 -86 206q-3 103 70 185q71 77 199 121q128 41 290 41q170 0 301 -52q133 -54 207 -143q79 -95 97 -215h-351q-15 59 -82 96q-68 35 -176 35q-63 0 -110 -12q-49 -16 -70 -37q-25 -25 -22 -51q3 -39 57 -64q53 -24 162 -33q324 -27 465 -114q138 -85 141 -234
q3 -122 -117 -198q-123 -78 -317 -93l135 134q157 -47 227 -117q69 -69 72 -176q3 -101 -70 -189q-67 -84 -211 -139q-134 -51 -325 -51zM676 582q59 0 115 16q50 14 81 39t31 55t-31 58q-35 28 -81 41q-49 14 -115 14q-64 0 -113 -14q-48 -14 -82 -41q-30 -27 -30 -58
t30 -55t82 -39q56 -16 113 -16z" />
    <glyph glyph-name="dieresis" unicode="&#xa8;" horiz-adv-x="1122" 
d="M844 1118q-95 0 -156 58q-61 55 -61 137q0 79 61 137q57 57 154 57q92 0 155 -57q64 -58 64 -139q0 -79 -62 -135q-61 -58 -155 -58zM299 1118q-98 0 -156 58q-61 55 -61 137q0 78 59 137q57 57 152 57t158 -57q61 -58 61 -139q0 -79 -59 -135q-61 -58 -154 -58z" />
    <glyph glyph-name="copyright" unicode="&#xa9;" horiz-adv-x="2035" 
d="M987 -416q-287 0 -495 129q-213 127 -320 350q-108 221 -102 498q6 271 131 494q124 221 340 354q215 129 483 129q284 0 496 -129q210 -133 319 -354q109 -227 103 -494q-3 -262 -130 -489q-127 -226 -342 -357q-216 -131 -483 -131zM971 -186q209 0 372 94
q161 96 254 262q92 168 107 383q15 210 -64 391q-81 178 -235 279q-153 100 -358 100q-210 0 -373 -94q-165 -95 -260 -266q-100 -174 -109 -392q-15 -214 66 -389q79 -174 237 -270q154 -98 363 -98zM1012 20q-152 0 -273 74t-186 201q-67 131 -64 280q3 152 70 283
q63 124 189 199q121 71 284 71q126 0 232 -59q104 -58 170 -162q63 -102 75 -229h-252q-9 52 -38 94q-38 45 -82 66q-52 24 -109 24q-73 0 -131 -37q-62 -41 -96 -104q-37 -67 -37 -146q-3 -74 29 -143q30 -65 88 -102q53 -39 125 -39q93 0 157 49q62 45 84 131h256
q-15 -126 -82 -227q-72 -108 -176 -164q-111 -60 -233 -60z" />
    <glyph glyph-name="ordfeminine" unicode="&#xaa;" horiz-adv-x="1142" 
d="M473 512q-104 0 -194 72q-90 71 -136 194q-48 117 -45 264q3 149 60 269q57 123 149 192q93 72 199 72q104 0 194 -72q86 -71 136 -192q46 -122 43 -269q-3 -145 -58 -264q-59 -125 -149 -194q-93 -72 -199 -72zM592 741q62 0 115 41q49 38 84 109q29 68 32 151
q3 85 -24 156q-26 69 -78 111q-51 39 -113 39q-59 0 -110 -39q-49 -38 -86 -113q-32 -65 -35 -154q-3 -76 26 -151q25 -66 78 -109q50 -41 111 -41zM823 614l4 859h299l-6 -859h-297z" />
    <glyph glyph-name="guillemotleft" unicode="&#xab;" horiz-adv-x="1495" 
d="M1114 27l-463 438v141l494 441h446l-583 -515l530 -505h-424zM59 465v141l492 441h446l-585 -515l530 -505h-422z" />
    <glyph glyph-name="logicalnot" unicode="&#xac;" horiz-adv-x="1183" 
d="M70 547v315h1040v-643h-360v328h-680z" />
    <glyph glyph-name="registered" unicode="&#xae;" horiz-adv-x="2033" 
d="M987 -416q-287 0 -495 129q-213 127 -320 350q-108 221 -102 498q6 271 131 494q124 221 340 354q215 129 483 129q284 0 496 -129q210 -133 319 -354q109 -227 103 -494q-3 -262 -130 -489q-127 -226 -342 -357q-216 -131 -483 -131zM592 74v1038h295v-1038h-295z
M971 -186q209 0 372 94q161 96 254 262q92 168 107 383q15 210 -64 391q-81 178 -235 279q-153 100 -358 100q-210 0 -373 -94q-165 -95 -260 -266q-100 -174 -109 -392q-15 -220 62 -391q74 -174 229 -268q154 -98 375 -98zM846 598h147q87 0 140 41q50 39 47 121
q-3 68 -52 104q-44 33 -133 33h-145zM1212 74l-419 479l-5 559h228q142 0 241 -45q100 -46 154 -127q52 -82 55 -178q3 -125 -65 -205q-71 -83 -205 -113l334 -338z" />
    <glyph glyph-name="macron" unicode="&#xaf;" horiz-adv-x="1206" 
d="M174 1169v287h862v-287h-862z" />
    <glyph glyph-name="degree" unicode="&#xb0;" horiz-adv-x="708" 
d="M358 834q-95 0 -168 40q-76 40 -116 107q-41 65 -41 147q0 79 41 150q41 69 112 108t168 39q105 0 178 -36q76 -39 115 -101q38 -60 41 -143q3 -84 -37 -154q-41 -71 -116 -114q-76 -43 -177 -43zM358 1016q54 0 80 33q30 33 27 79q0 48 -27 82q-26 33 -80 33
q-49 0 -77 -31q-29 -37 -29 -82q-3 -48 27 -81q26 -33 79 -33z" />
    <glyph glyph-name="plusminus" unicode="&#xb1;" horiz-adv-x="1183" 
d="M406 317v328h-336v316h336v344h360v-344h344v-316h-344v-328h-360zM70 -63v317h1040v-317h-1040z" />
    <glyph glyph-name="uni00B2" unicode="&#xb2;" horiz-adv-x="1058" 
d="M88 492v221q159 51 342 157q180 101 275 228q49 58 49 116q-3 58 -45 97q-46 37 -121 37q-69 0 -123 -31q-52 -34 -72 -84q-21 -53 -6 -111h-295q-16 120 35 224q53 109 170 178t299 69q134 0 225 -39q99 -42 152 -104q52 -67 67 -147q24 -171 -98 -308
q-128 -140 -387 -268h541v-235h-1008z" />
    <glyph glyph-name="uni00B3" unicode="&#xb3;" horiz-adv-x="1128" 
d="M580 492q-222 0 -349 86q-127 82 -149 223q-9 52 0 106h289v-12q-3 -8 0 -14v-9q0 -6 2 -8q6 -50 65 -80q58 -30 154 -30q81 0 137 20q55 21 82 55q24 34 18 72q-9 48 -59 74q-51 26 -154 26h-223l4 166h209q62 0 111 17q39 14 59 41q15 24 12 53q-3 36 -51 61
q-51 23 -139 23q-89 0 -131 -31q-44 -30 -41 -80h-283q-15 106 47 183q60 78 172 118q115 41 254 41q224 0 340 -67q118 -71 136 -185q12 -78 -27 -141q-42 -67 -125 -106q78 -34 129 -88q49 -55 61 -125q15 -89 -32 -179q-51 -91 -176 -149q-128 -61 -342 -61z" />
    <glyph glyph-name="acute" unicode="&#xb4;" horiz-adv-x="724" 
d="M125 1114l-88 158l483 315l156 -272z" />
    <glyph glyph-name="mu" unicode="&#xb5;" 
d="M530 -39q-205 0 -315 125q-111 126 -111 358v627h373v-594q0 -106 53 -168q51 -63 154 -63q90 0 158 45q67 44 112 129q40 82 43 192l107 -41q-3 -176 -80 -315q-78 -140 -207 -217q-135 -78 -287 -78zM104 -457v1350l97 -53l180 -1297h-277zM997 0v1071h373v-1071h-373z
" />
    <glyph glyph-name="paragraph" unicode="&#xb6;" horiz-adv-x="1284" 
d="M791 -457v1989h217v-1989h-217zM299 -457v1989h217v-1989h-217zM299 1554v-686q-153 0 -250 97q-94 94 -94 245q0 156 94 250t250 94zM299 1268v286h969v-286h-969z" />
    <glyph glyph-name="periodcentered" unicode="&#xb7;" horiz-adv-x="655" 
d="M330 584q-93 0 -154 55t-61 137q0 80 59 139q59 56 152 56q92 0 157 -56q62 -59 62 -139t-60 -137q-61 -55 -155 -55z" />
    <glyph glyph-name="cedilla" unicode="&#xb8;" horiz-adv-x="956" 
d="M76 -541l20 213q193 -22 279 -22q94 0 147 20q53 21 47 66q-3 40 -67 49q-57 5 -158 2h-35l109 287l203 12l-35 -207q108 12 192 -16q81 -27 103 -115q27 -131 -58 -207q-89 -79 -286 -100q-205 -25 -461 18z" />
    <glyph glyph-name="uni00B9" unicode="&#xb9;" horiz-adv-x="528" 
d="M139 492v968l133 133h177v-1101h-310z" />
    <glyph glyph-name="ordmasculine" unicode="&#xba;" horiz-adv-x="1216" 
d="M653 512q-159 0 -291 72q-128 70 -198 192q-72 123 -72 266q3 151 78 271q75 122 203 192t291 70q160 0 288 -70q129 -72 199 -194q71 -124 68 -269q0 -145 -74 -266q-72 -120 -203 -192q-132 -72 -289 -72zM651 754q83 0 142 39q58 40 92 104q33 62 33 145q3 78 -29 150
q-30 64 -88 104q-58 37 -139 37q-82 0 -140 -37q-58 -40 -92 -104q-34 -66 -37 -150q-3 -76 29 -145q29 -61 90 -104q56 -39 139 -39z" />
    <glyph glyph-name="guillemotright" unicode="&#xbb;" horiz-adv-x="1554" 
d="M573 27l584 514l-530 506h424l460 -437v-143l-491 -440h-447zM-18 27l581 514l-528 506h422l458 -437v-143l-491 -440h-442z" />
    <glyph glyph-name="onequarter" unicode="&#xbc;" horiz-adv-x="2027" 
d="M305 -100l1030 1530h318l-1030 -1530h-318zM250 492v968l133 133h176v-1101h-309zM870 -70l607 926h311v-680h117v-246h-119v-176h-279v176h-637zM1284 166h242l22 399z" />
    <glyph glyph-name="onehalf" unicode="&#xbd;" horiz-adv-x="2250" 
d="M328 -100l1032 1530h317l-1030 -1530h-319zM250 492v968l133 133h176v-1101h-309zM1247 -246l2 219q165 58 342 160q185 104 277 227q47 59 47 117q0 56 -43 96q-46 37 -121 37q-71 0 -123 -30q-52 -34 -72 -84q-21 -52 -6 -111h-293q-18 116 31 223t170 178
q119 70 299 70q137 0 228 -39q94 -40 149 -104q55 -66 70 -148q27 -167 -99 -305q-126 -141 -387 -270h537v-236h-1008z" />
    <glyph glyph-name="threequarters" unicode="&#xbe;" horiz-adv-x="2627" 
d="M805 -100l1030 1530h319l-1030 -1530h-319zM690 492q-221 0 -348 86q-127 82 -149 223q-9 52 0 106h288v-12q-3 -8 0 -14v-9q0 -6 2 -8q6 -49 66 -80q59 -30 153 -30q82 0 138 20q55 21 82 55q24 34 18 72q-9 48 -59 74q-51 26 -154 26h-223l4 166h209q61 0 110 17
q40 15 60 41q15 24 12 53q-3 36 -51 61q-51 23 -139 23q-89 0 -131 -31q-44 -30 -41 -80h-283q-15 106 47 183q60 78 172 118q115 41 254 41q224 0 340 -67q117 -70 135 -185q12 -80 -26 -141q-42 -67 -125 -106q78 -34 129 -88q49 -55 61 -125q15 -88 -33 -179
q-51 -91 -176 -149q-128 -61 -342 -61zM2023 -246v176h-637l609 926h309v-680h117v-246h-119v-176h-279zM1798 166h246l20 399z" />
    <glyph glyph-name="questiondown" unicode="&#xbf;" horiz-adv-x="1351" 
d="M881 913l47 -348h-41q-7 -1 -21.5 -2t-21.5 -2q-194 -6 -322 -53q-125 -49 -125 -168q0 -71 58 -123q55 -55 153 -67q120 -15 209 12q87 26 131 92q42 60 33 147h348q3 -164 -67 -280q-72 -118 -224 -180q-149 -64 -372 -64q-145 0 -291 47q-149 48 -240 146
q-94 98 -94 245q-3 126 70 224q71 95 202 153q137 57 310 72l43 149h215zM766 1434q64 0 117 -27q52 -27 84 -76q30 -49 30 -106q0 -59 -30 -105q-29 -45 -84 -73q-56 -29 -117 -29t-117 29q-57 28 -86 75q-33 44 -33 103t33 106q32 50 86 76q53 27 117 27z" />
    <glyph glyph-name="Agrave" unicode="&#xc0;" horiz-adv-x="1480" 
d="M20 0l474 1423h499l465 -1423h-383l-92 283h-477l-84 -283h-402zM575 551h324l-166 498zM944 1456l-563 238l156 266l481 -361z" />
    <glyph glyph-name="Aacute" unicode="&#xc1;" horiz-adv-x="1480" 
d="M20 0l474 1423h499l465 -1423h-383l-92 283h-477l-84 -283h-402zM575 551h324l-166 498zM557 1466l-88 158l483 315l156 -272z" />
    <glyph glyph-name="Acircumflex" unicode="&#xc2;" horiz-adv-x="1480" 
d="M20 0l474 1423h499l465 -1423h-383l-92 283h-477l-84 -283h-402zM575 551h324l-166 498zM240 1483l370 368h277l354 -368h-317l-162 170l-172 -170h-350z" />
    <glyph glyph-name="Atilde" unicode="&#xc3;" horiz-adv-x="1480" 
d="M20 0l474 1423h499l465 -1423h-383l-92 283h-477l-84 -283h-402zM575 551h324l-166 498zM526 1475h-254q-21 126 9 215q27 88 96 139q68 47 162 47q69 0 116 -21q50 -23 101 -59q23 -18 53 -33q21 -12 45 -12q60 0 86 33q24 35 16 84h254q21 -122 -14 -211
q-38 -89 -111 -135q-74 -47 -167 -47q-72 0 -113 20q-45 19 -92 57q-34 28 -51 37q-23 10 -50 10q-54 0 -73 -32q-22 -36 -13 -92z" />
    <glyph glyph-name="Adieresis" unicode="&#xc4;" horiz-adv-x="1480" 
d="M20 0l474 1423h499l465 -1423h-383l-92 283h-477l-84 -283h-402zM575 551h324l-166 498zM1014 1485q-96 0 -156 57q-61 55 -61 137q0 80 61 138q57 57 154 57q92 0 155 -57q64 -58 64 -140q0 -79 -62 -135q-60 -57 -155 -57zM469 1485q-99 0 -156 57q-61 55 -61 137
q0 79 59 138q57 57 152 57t158 -57q61 -58 61 -140q0 -79 -59 -135q-60 -57 -154 -57z" />
    <glyph glyph-name="Aring" unicode="&#xc5;" horiz-adv-x="1480" 
d="M20 0l474 1423h499l465 -1423h-383l-92 283h-477l-84 -283h-402zM575 551h324l-166 498zM741 1468q-94 0 -168 41q-76 40 -116 107q-41 65 -41 147q0 79 41 150q41 69 112 108t168 39q103 0 178 -37q77 -39 115 -100q38 -60 41 -143q3 -84 -37 -154q-42 -73 -116 -115
q-76 -43 -177 -43zM741 1651q55 0 80 32q30 33 27 80q0 47 -27 82q-26 33 -80 33q-49 0 -77 -31q-29 -37 -29 -82q-3 -49 27 -82q25 -32 79 -32z" />
    <glyph glyph-name="AE" unicode="&#xc6;" horiz-adv-x="1898" 
d="M18 0l684 1423h1094v-286h-530v-285h446v-291h-446v-272h567v-289h-938v283h-348l-133 -283h-396zM666 551h229v477z" />
    <glyph glyph-name="Ccedilla" unicode="&#xc7;" 
d="M297 -541l18 213q196 -22 281 -22q94 0 147 20q54 21 48 66q-3 40 -68 49q-57 5 -158 2h-35l109 287l203 12l-37 -207q110 12 194 -16q82 -27 101 -115q30 -130 -56 -207q-89 -79 -286 -100q-205 -25 -461 18zM745 -39q-221 0 -378 98q-158 94 -242 263q-83 167 -80 366
q3 195 94 369q86 165 254 268q162 98 383 98q190 0 336 -88q146 -90 225 -233q81 -147 84 -301h-346q-9 87 -47 153q-42 66 -106 105q-67 37 -158 37q-103 0 -180 -56q-78 -57 -121 -147q-46 -90 -49 -203q-3 -122 37 -209q41 -90 116 -141q74 -51 185 -51q81 0 149 35
q63 34 111 100q44 61 57 149h350q-15 -153 -100 -290q-87 -144 -234 -232q-153 -90 -340 -90z" />
    <glyph glyph-name="Egrave" unicode="&#xc8;" horiz-adv-x="1216" 
d="M90 0v1423h1024v-286h-653v-285h569l-2 -291h-567v-272h690v-289h-1061zM811 1456l-563 238l155 266l482 -361z" />
    <glyph glyph-name="Eacute" unicode="&#xc9;" horiz-adv-x="1216" 
d="M90 0v1423h1024v-286h-653v-285h569l-2 -291h-567v-272h690v-289h-1061zM424 1466l-88 158l483 315l156 -272z" />
    <glyph glyph-name="Ecircumflex" unicode="&#xca;" horiz-adv-x="1216" 
d="M90 0v1423h1024v-286h-653v-285h569l-2 -291h-567v-272h690v-289h-1061zM106 1483l371 368h277l354 -368h-317l-162 170l-172 -170h-351z" />
    <glyph glyph-name="Edieresis" unicode="&#xcb;" horiz-adv-x="1216" 
d="M90 0v1423h1024v-286h-653v-285h569l-2 -291h-567v-272h690v-289h-1061zM881 1485q-96 0 -156 57q-61 55 -61 137q0 80 61 138q57 57 154 57q92 0 155 -57q64 -58 64 -140q0 -79 -62 -135q-60 -57 -155 -57zM336 1485q-99 0 -156 57q-61 55 -61 137q0 79 59 138
q57 57 152 57q94 0 157 -57q62 -59 62 -140q0 -78 -60 -135t-153 -57z" />
    <glyph glyph-name="Igrave" unicode="&#xcc;" horiz-adv-x="614" 
d="M127 0v1423h371v-1423h-371zM510 1456l-563 238l155 266l482 -361z" />
    <glyph glyph-name="Iacute" unicode="&#xcd;" horiz-adv-x="614" 
d="M127 0v1423h371v-1423h-371zM123 1466l-88 158l483 315l156 -272z" />
    <glyph glyph-name="Icircumflex" unicode="&#xce;" horiz-adv-x="614" 
d="M127 0v1423h371v-1423h-371zM-195 1483l371 368h277l354 -368h-318l-161 170l-172 -170h-351z" />
    <glyph glyph-name="Idieresis" unicode="&#xcf;" horiz-adv-x="614" 
d="M127 0v1423h371v-1423h-371zM580 1485q-96 0 -156 57q-62 56 -62 137q0 79 62 138q57 57 154 57q92 0 155 -57q64 -58 64 -140q0 -79 -62 -135q-60 -57 -155 -57zM35 1485q-99 0 -156 57q-61 55 -61 137q0 79 59 138q57 57 152 57q94 0 157 -57q62 -59 62 -140
q0 -78 -60 -135t-153 -57z" />
    <glyph glyph-name="Eth" unicode="&#xd0;" horiz-adv-x="1380" 
d="M14 586v272h707v-272h-707zM162 0l76 1423h442q192 0 338 -96q148 -102 225 -260q78 -167 78 -356q0 -177 -78 -344q-75 -161 -225 -265q-147 -102 -346 -102h-510zM106 0v1423h377v-1423h-377zM344 295h295q94 0 166 57q74 56 117 156q42 96 39 223q-6 189 -91 297
q-85 105 -225 105h-321z" />
    <glyph glyph-name="Ntilde" unicode="&#xd1;" horiz-adv-x="1538" 
d="M1067 0l-602 879v-879h-359v1423h359l612 -888v888h359v-1423h-369zM555 1475h-254q-21 128 8 215q27 87 97 139q68 47 161 47q71 0 117 -21q47 -21 100 -59q22 -17 54 -33q21 -12 45 -12q60 0 86 33q24 35 16 84h254q21 -122 -14 -211q-37 -89 -111 -135
q-74 -47 -168 -47q-71 0 -112 20q-47 20 -93 57q-34 28 -51 37q-23 10 -49 10q-55 0 -74 -32q-21 -34 -12 -92z" />
    <glyph glyph-name="Ograve" unicode="&#xd2;" horiz-adv-x="1572" 
d="M762 -39q-221 0 -387 96q-167 97 -248 260q-85 166 -82 373q3 193 96 365q87 164 260 268q166 100 392 100q221 0 387 -96q164 -95 250 -262q84 -172 81 -375q-3 -200 -100 -371q-95 -168 -264 -262q-172 -96 -385 -96zM768 285q111 0 193 55q83 56 129 149q46 90 49 201
q3 116 -37 207q-44 91 -123 147q-85 54 -193 54q-107 0 -190 -56q-83 -59 -129 -149q-46 -93 -49 -203q-6 -119 37 -207q41 -93 123 -145q80 -53 190 -53zM989 1456l-563 238l156 266l481 -361z" />
    <glyph glyph-name="Oacute" unicode="&#xd3;" horiz-adv-x="1572" 
d="M762 -39q-221 0 -387 96q-167 97 -248 260q-85 166 -82 373q3 193 96 365q87 164 260 268q166 100 392 100q221 0 387 -96q164 -95 250 -262q84 -172 81 -375q-3 -200 -100 -371q-95 -168 -264 -262q-172 -96 -385 -96zM768 285q111 0 193 55q83 56 129 149q46 90 49 201
q3 116 -37 207q-44 91 -123 147q-85 54 -193 54q-107 0 -190 -56q-83 -59 -129 -149q-46 -93 -49 -203q-6 -119 37 -207q41 -93 123 -145q80 -53 190 -53zM602 1466l-88 158l483 315l156 -272z" />
    <glyph glyph-name="Ocircumflex" unicode="&#xd4;" horiz-adv-x="1572" 
d="M762 -39q-221 0 -387 96q-167 97 -248 260q-85 166 -82 373q3 193 96 365q87 164 260 268q166 100 392 100q221 0 387 -96q164 -95 250 -262q84 -172 81 -375q-3 -200 -100 -371q-95 -168 -264 -262q-172 -96 -385 -96zM768 285q111 0 193 55q83 56 129 149q46 90 49 201
q3 116 -37 207q-44 91 -123 147q-85 54 -193 54q-107 0 -190 -56q-83 -59 -129 -149q-46 -93 -49 -203q-6 -119 37 -207q41 -93 123 -145q80 -53 190 -53zM285 1483l370 368h277l354 -368h-317l-162 170l-172 -170h-350z" />
    <glyph glyph-name="Otilde" unicode="&#xd5;" horiz-adv-x="1572" 
d="M762 -39q-221 0 -387 96q-167 97 -248 260q-85 166 -82 373q3 193 96 365q87 164 260 268q166 100 392 100q221 0 387 -96q164 -95 250 -262q84 -172 81 -375q-3 -200 -100 -371q-95 -168 -264 -262q-172 -96 -385 -96zM768 285q111 0 193 55q83 56 129 149q46 90 49 201
q3 116 -37 207q-44 91 -123 147q-85 54 -193 54q-107 0 -190 -56q-83 -59 -129 -149q-46 -93 -49 -203q-6 -119 37 -207q41 -93 123 -145q80 -53 190 -53zM571 1475h-254q-21 126 9 215q27 88 96 139q68 47 162 47q70 0 116 -21q50 -23 101 -59q23 -18 53 -33q21 -12 45 -12
q60 0 86 33q24 35 16 84h254q21 -122 -14 -211q-37 -89 -111 -135q-74 -47 -167 -47q-72 0 -113 20q-45 19 -92 57q-34 28 -51 37q-23 10 -50 10q-54 0 -73 -32q-22 -36 -13 -92z" />
    <glyph glyph-name="Odieresis" unicode="&#xd6;" horiz-adv-x="1572" 
d="M762 -39q-221 0 -387 96q-167 97 -248 260q-85 166 -82 373q3 193 96 365q87 164 260 268q166 100 392 100q221 0 387 -96q164 -95 250 -262q84 -172 81 -375q-3 -200 -100 -371q-95 -168 -264 -262q-172 -96 -385 -96zM768 285q111 0 193 55q83 56 129 149q46 90 49 201
q3 116 -37 207q-44 91 -123 147q-85 54 -193 54q-107 0 -190 -56q-83 -59 -129 -149q-46 -93 -49 -203q-6 -119 37 -207q41 -93 123 -145q80 -53 190 -53zM1059 1485q-96 0 -156 57q-61 55 -61 137q0 80 61 138q57 57 154 57q92 0 155 -57q64 -58 64 -140q0 -79 -62 -135
q-60 -57 -155 -57zM514 1485q-99 0 -156 57q-61 55 -61 137q0 79 59 138q57 57 152 57t158 -57q61 -58 61 -140q0 -79 -59 -135q-60 -57 -154 -57z" />
    <glyph glyph-name="multiply" unicode="&#xd7;" horiz-adv-x="1142" 
d="M6 283l328 440l-330 410h371l186 -250l193 250h344l-336 -441l342 -409h-373l-194 249l-189 -249h-342z" />
    <glyph glyph-name="Oslash" unicode="&#xd8;" horiz-adv-x="1572" 
d="M762 -39q-221 0 -387 96q-167 97 -248 260q-85 166 -82 373q3 193 96 365q87 164 260 268q166 100 392 100q221 0 387 -96q164 -95 250 -262q84 -172 81 -375q-3 -200 -100 -371q-95 -168 -264 -262q-172 -96 -385 -96zM768 285q111 0 193 55q83 56 129 149q46 90 49 201
q3 116 -37 207q-44 91 -123 147q-85 54 -193 54q-107 0 -190 -56q-83 -59 -129 -149q-46 -93 -49 -203q-6 -119 37 -207q41 -93 123 -145q80 -53 190 -53zM240 -39l759 1456h328l-764 -1456h-323z" />
    <glyph glyph-name="Ugrave" unicode="&#xd9;" horiz-adv-x="1536" 
d="M760 -39q-317 0 -498 172q-182 173 -182 531v759h371v-741q0 -204 84 -291q82 -88 231 -88q158 0 240 94q81 90 81 285v741h381v-764q0 -219 -82 -374q-84 -158 -241 -240q-162 -84 -385 -84zM926 1456l-564 238l156 266l481 -361z" />
    <glyph glyph-name="Uacute" unicode="&#xda;" horiz-adv-x="1536" 
d="M760 -39q-317 0 -498 172q-182 173 -182 531v759h371v-741q0 -204 84 -291q82 -88 231 -88q158 0 240 94q81 90 81 285v741h381v-764q0 -219 -82 -374q-84 -158 -241 -240q-162 -84 -385 -84zM537 1466l-88 158l483 315l155 -272z" />
    <glyph glyph-name="Ucircumflex" unicode="&#xdb;" horiz-adv-x="1536" 
d="M760 -39q-317 0 -498 172q-182 173 -182 531v759h371v-741q0 -204 84 -291q82 -88 231 -88q158 0 240 94q81 90 81 285v741h381v-764q0 -219 -82 -374q-84 -158 -241 -240q-162 -84 -385 -84zM266 1483l371 368h276l355 -368h-318l-162 170l-172 -170h-350z" />
    <glyph glyph-name="Udieresis" unicode="&#xdc;" horiz-adv-x="1536" 
d="M760 -39q-317 0 -498 172q-182 173 -182 531v759h371v-741q0 -204 84 -291q82 -88 231 -88q158 0 240 94q81 90 81 285v741h381v-764q0 -219 -82 -374q-84 -158 -241 -240q-162 -84 -385 -84zM1040 1483q-95 0 -155 57q-62 56 -62 137q0 79 62 138q57 57 153 57
q93 0 156 -57t63 -140q0 -80 -61 -135q-60 -57 -156 -57zM496 1483q-99 0 -156 57q-61 55 -61 137q0 79 59 138q57 57 151 57q95 0 158 -57q62 -59 62 -140q0 -78 -60 -135t-153 -57z" />
    <glyph glyph-name="Yacute" unicode="&#xdd;" horiz-adv-x="1083" 
d="M346 0v422l-473 1001h385l274 -653l308 653h399l-512 -968l-2 -455h-379zM311 1466l-88 158l484 315l155 -272z" />
    <glyph glyph-name="Thorn" unicode="&#xde;" horiz-adv-x="1349" 
d="M227 166l15 1071h428q199 0 336 -70q139 -71 208 -186q69 -117 72 -262q3 -164 -82 -291q-80 -122 -241 -192q-158 -67 -379 -70h-357zM94 0v1423h373v-1423h-373zM344 475h287q71 0 143 29q65 27 109 86q41 59 35 149q-3 103 -76 164q-75 60 -187 60l-333 -2z" />
    <glyph glyph-name="germandbls" unicode="&#xdf;" horiz-adv-x="1400" 
d="M90 -127v1137q3 142 74 260q71 114 209 182q136 68 323 68q199 0 344 -68q143 -71 211 -182q68 -115 62 -242q-3 -75 -35 -129q-34 -59 -90 -102q-60 -48 -131 -68q123 -20 198 -111q73 -91 82 -206q3 -124 -51 -213q-58 -94 -168 -146q-115 -53 -272 -53h-256v274h162
q93 0 145 43q54 42 57 121q3 72 -43 115t-135 43h-180v254h172q91 0 147 47q55 46 58 123q6 83 -55 135q-62 53 -183 53q-79 0 -139 -32q-63 -34 -100 -97q-39 -62 -39 -147v-1059h-367z" />
    <glyph glyph-name="agrave" unicode="&#xe0;" horiz-adv-x="1445" 
d="M569 -39q-147 0 -260 76q-117 73 -182 207q-66 135 -66 293q0 153 72 288q71 132 197 209q122 76 268 76q147 0 260 -76q114 -77 178 -207q64 -131 64 -290q-3 -156 -74 -289t-190 -209q-122 -78 -267 -78zM686 217q78 0 148 43q67 38 112 115q42 68 45 162q0 90 -37 163
q-39 77 -100 115q-65 41 -145 41q-84 0 -152 -41q-67 -43 -108 -117t-41 -163q0 -94 36 -162q39 -76 101 -115q65 -41 141 -41zM991 0l-2 1071h371l2 -1071h-371zM920 1178l-564 237l156 266l481 -360z" />
    <glyph glyph-name="aacute" unicode="&#xe1;" horiz-adv-x="1445" 
d="M569 -39q-147 0 -260 76q-117 73 -182 207q-66 135 -66 293q0 153 72 288q71 132 197 209q122 76 268 76q147 0 260 -76q114 -77 178 -207q64 -131 64 -290q-3 -156 -74 -289t-190 -209q-122 -78 -267 -78zM686 217q78 0 148 43q67 38 112 115q42 68 45 162q0 90 -37 163
q-39 77 -100 115q-65 41 -145 41q-84 0 -152 -41q-67 -43 -108 -117t-41 -163q0 -94 36 -162q39 -76 101 -115q65 -41 141 -41zM991 0l-2 1071h371l2 -1071h-371zM561 1163l-88 158l483 315l156 -272z" />
    <glyph glyph-name="acircumflex" unicode="&#xe2;" horiz-adv-x="1445" 
d="M569 -39q-147 0 -260 76q-117 73 -182 207q-66 135 -66 293q0 153 72 288q71 132 197 209q122 76 268 76q147 0 260 -76q114 -77 178 -207q64 -131 64 -290q-3 -156 -74 -289t-190 -209q-122 -78 -267 -78zM686 217q78 0 148 43q67 38 112 115q42 68 45 162q0 90 -37 163
q-39 77 -100 115q-65 41 -145 41q-84 0 -152 -41q-67 -43 -108 -117t-41 -163q0 -94 36 -162q39 -76 101 -115q65 -41 141 -41zM991 0l-2 1071h371l2 -1071h-371zM262 1188l340 368h254l328 -368h-293l-150 170l-157 -170h-322z" />
    <glyph glyph-name="atilde" unicode="&#xe3;" horiz-adv-x="1445" 
d="M569 -39q-147 0 -260 76q-117 73 -182 207q-66 135 -66 293q0 153 72 288q71 132 197 209q122 76 268 76q147 0 260 -76q114 -77 178 -207q64 -131 64 -290q-3 -156 -74 -289t-190 -209q-122 -78 -267 -78zM686 217q78 0 148 43q67 38 112 115q42 68 45 162q0 90 -37 163
q-39 77 -100 115q-65 41 -145 41q-84 0 -152 -41q-67 -43 -108 -117t-41 -163q0 -94 36 -162q39 -76 101 -115q65 -41 141 -41zM991 0l-2 1071h371l2 -1071h-371zM532 1196h-253q-21 128 8 215q27 88 96 139q68 47 162 47q73 0 117 -20q47 -21 100 -59q23 -18 53 -33
q21 -12 45 -12q61 0 86 32q25 36 17 84h254q20 -120 -15 -211q-38 -89 -110 -135q-74 -47 -168 -47q-70 0 -113 21q-45 19 -92 57q-34 28 -51 37q-23 10 -50 10q-53 0 -73 -33q-22 -36 -13 -92z" />
    <glyph glyph-name="adieresis" unicode="&#xe4;" horiz-adv-x="1445" 
d="M569 -39q-147 0 -260 76q-117 73 -182 207q-66 135 -66 293q0 153 72 288q71 132 197 209q122 76 268 76q147 0 260 -76q114 -77 178 -207q64 -131 64 -290q-3 -156 -74 -289t-190 -209q-122 -78 -267 -78zM686 217q78 0 148 43q67 38 112 115q42 68 45 162q0 90 -37 163
q-39 77 -100 115q-65 41 -145 41q-84 0 -152 -41q-67 -43 -108 -117t-41 -163q0 -94 36 -162q39 -76 101 -115q65 -41 141 -41zM991 0l-2 1071h371l2 -1071h-371zM995 1192q-95 0 -155 57q-62 56 -62 137q0 79 62 138q57 57 153 57q93 0 156 -57t63 -140q0 -80 -61 -135
q-60 -57 -156 -57zM451 1192q-99 0 -156 57q-62 56 -62 137q0 78 60 138q57 57 151 57q95 0 158 -57q62 -59 62 -140q0 -78 -60 -135t-153 -57z" />
    <glyph glyph-name="aring" unicode="&#xe5;" horiz-adv-x="1445" 
d="M569 -39q-147 0 -260 76q-117 73 -182 207q-66 135 -66 293q0 153 72 288q71 132 197 209q122 76 268 76q147 0 260 -76q114 -77 178 -207q64 -131 64 -290q-3 -156 -74 -289t-190 -209q-122 -78 -267 -78zM686 217q78 0 148 43q67 38 112 115q42 68 45 162q0 90 -37 163
q-39 77 -100 115q-65 41 -145 41q-84 0 -152 -41q-67 -43 -108 -117t-41 -163q0 -94 36 -162q39 -76 101 -115q65 -41 141 -41zM991 0l-2 1071h371l2 -1071h-371zM723 1141q-94 0 -168 41q-78 41 -117 106q-41 65 -41 148q0 78 41 149q42 70 113 109t168 39q103 0 178 -37
q76 -39 115 -101q38 -60 41 -143q3 -84 -37 -154t-117 -114q-76 -43 -176 -43zM723 1323q54 0 80 33q29 32 26 80q0 49 -26 82q-25 32 -80 32q-51 0 -78 -30q-29 -37 -29 -82q-3 -49 27 -82q26 -33 80 -33z" />
    <glyph glyph-name="ae" unicode="&#xe6;" horiz-adv-x="2148" 
d="M1481 -39q-181 0 -314 74q-132 73 -202 205q-71 130 -68 297q3 153 74 286q72 135 200 209q132 78 304 78q190 0 329 -80q135 -79 205 -211q67 -131 64 -284q0 -24 -11 -99h-843q9 -91 81 -145q70 -58 191 -58q73 0 143 31q67 31 107 80l264 -156q-92 -102 -227 -165
q-133 -62 -297 -62zM586 227q113 0 190 56q74 54 96 151h-323q-104 0 -143 -51q-41 -53 8 -104q49 -52 172 -52zM504 -39q-277 0 -387 168q-113 165 -8 334q102 166 368 166h402q0 84 -62 137q-60 51 -180 51q-85 0 -145 -31q-54 -28 -91 -90l-301 129q64 124 207 205
q139 80 352 80q184 0 310 -66q120 -68 178 -186q57 -117 51 -278l-55 -97q-3 -148 -88 -272q-81 -118 -228 -184t-323 -66zM1227 635h491q-3 55 -30 102q-30 51 -78 76q-52 27 -123 27q-105 0 -170 -56q-70 -57 -90 -149z" />
    <glyph glyph-name="ccedilla" unicode="&#xe7;" horiz-adv-x="1380" 
d="M258 -541l21 213q193 -22 278 -22q95 0 148 20q53 21 47 66q-3 40 -68 49q-57 5 -158 2h-34l108 287l203 12l-35 -207q108 12 193 -16q80 -26 102 -115q27 -132 -57 -207q-88 -79 -287 -100q-205 -25 -461 18zM678 -39q-186 0 -330 78q-144 77 -217 207q-75 129 -72 293
q3 153 84 288q76 128 224 207q143 76 333 76q165 0 297 -63t217 -177q81 -117 93 -247h-340q-8 49 -45 98q-35 47 -93 74q-56 26 -129 26q-91 0 -153 -39q-68 -41 -105 -104q-36 -62 -39 -139q-3 -83 33 -150q34 -65 99 -102q64 -37 149 -37q110 0 184 59q73 61 97 148h338
q-14 -136 -103 -254q-86 -111 -225 -176q-141 -66 -297 -66z" />
    <glyph glyph-name="egrave" unicode="&#xe8;" horiz-adv-x="1357" 
d="M690 -39q-199 0 -344 74q-148 76 -223 205q-79 133 -76 297q3 155 82 286q79 132 225 209q147 78 332 78q189 0 334 -80q142 -80 215 -211q75 -135 72 -284q-6 -66 -13 -99h-891q9 -88 93 -145q79 -58 204 -58q87 0 160 33q73 30 115 78l264 -156q-91 -102 -235 -163
q-143 -64 -314 -64zM410 635h540q-3 49 -35 102q-32 50 -86 76q-59 27 -135 27q-112 0 -186 -56q-77 -56 -98 -149zM874 1178l-563 237l156 266l481 -360z" />
    <glyph glyph-name="eacute" unicode="&#xe9;" horiz-adv-x="1357" 
d="M690 -39q-199 0 -344 74q-148 76 -223 205q-79 133 -76 297q3 155 82 286q79 132 225 209q147 78 332 78q189 0 334 -80q142 -80 215 -211q75 -135 72 -284q-6 -66 -13 -99h-891q9 -88 93 -145q79 -58 204 -58q87 0 160 33q73 30 115 78l264 -156q-91 -102 -235 -163
q-143 -64 -314 -64zM410 635h540q-3 49 -35 102q-32 50 -86 76q-59 27 -135 27q-112 0 -186 -56q-77 -56 -98 -149zM518 1163l-88 158l483 315l156 -272z" />
    <glyph glyph-name="ecircumflex" unicode="&#xea;" horiz-adv-x="1357" 
d="M690 -39q-199 0 -344 74q-148 76 -223 205q-79 133 -76 297q3 155 82 286q79 132 225 209q147 78 332 78q189 0 334 -80q142 -80 215 -211q75 -135 72 -284q-6 -66 -13 -99h-891q9 -88 93 -145q79 -58 204 -58q87 0 160 33q73 30 115 78l264 -156q-91 -102 -235 -163
q-143 -64 -314 -64zM410 635h540q-3 49 -35 102q-32 50 -86 76q-59 27 -135 27q-112 0 -186 -56q-77 -56 -98 -149zM160 1204l370 369h277l354 -369h-317l-162 170l-172 -170h-350z" />
    <glyph glyph-name="edieresis" unicode="&#xeb;" horiz-adv-x="1357" 
d="M690 -39q-199 0 -344 74q-148 76 -223 205q-79 133 -76 297q3 155 82 286q79 132 225 209q147 78 332 78q189 0 334 -80q142 -80 215 -211q75 -135 72 -284q-6 -66 -13 -99h-891q9 -88 93 -145q79 -58 204 -58q87 0 160 33q73 30 115 78l264 -156q-91 -102 -235 -163
q-143 -64 -314 -64zM410 635h540q-3 49 -35 102q-32 50 -86 76q-59 27 -135 27q-112 0 -186 -56q-77 -56 -98 -149zM954 1192q-95 0 -155 57q-62 56 -62 137q0 79 62 138q57 57 153 57q93 0 156 -57t63 -140q0 -80 -61 -135q-60 -57 -156 -57zM410 1192q-99 0 -156 57
q-61 55 -61 137q0 79 59 138q57 57 151 57q95 0 158 -57q62 -59 62 -140q0 -78 -60 -135t-153 -57z" />
    <glyph glyph-name="igrave" unicode="&#xec;" horiz-adv-x="581" 
d="M102 0v1071h375v-1071h-375zM487 1178l-563 237l156 266l481 -360z" />
    <glyph glyph-name="iacute" unicode="&#xed;" horiz-adv-x="581" 
d="M102 0v1071h375v-1071h-375zM131 1163l-88 158l483 315l156 -272z" />
    <glyph glyph-name="icircumflex" unicode="&#xee;" horiz-adv-x="581" 
d="M102 0v1071h375v-1071h-375zM-131 1182l301 368h227l289 -368h-260l-131 170l-141 -170h-285z" />
    <glyph glyph-name="idieresis" unicode="&#xef;" horiz-adv-x="581" 
d="M102 0v1071h375v-1071h-375zM565 1192q-95 0 -155 57q-62 56 -62 137q0 79 62 138q57 57 153 57q93 0 156 -57t63 -140q0 -80 -61 -135q-60 -57 -156 -57zM20 1192q-98 0 -155 57q-62 56 -62 137q0 78 60 138q57 57 151 57q95 0 158 -57q61 -58 61 -140q0 -79 -59 -135
q-60 -57 -154 -57z" />
    <glyph glyph-name="eth" unicode="&#xf0;" horiz-adv-x="1501" 
d="M743 -39q-199 0 -362 82q-162 82 -248 223q-86 142 -74 314q15 201 156 333q138 129 340 156t383 -55q-213 268 -698 518h499q213 -120 373 -272q164 -156 252 -334q89 -179 86 -357q-3 -170 -92 -309q-89 -138 -250 -219q-160 -80 -365 -80zM750 262q99 0 170 39
q73 42 112 107t45 153q3 84 -35 152q-37 66 -106 106q-68 39 -168 39q-97 0 -172 -37q-78 -41 -117 -106q-42 -68 -45 -154q-3 -84 37 -151q36 -67 109 -109q68 -39 170 -39zM365 1147l-97 139l928 279l102 -176z" />
    <glyph glyph-name="ntilde" unicode="&#xf1;" 
d="M995 0v594q0 105 -53 170q-51 63 -156 63q-85 0 -153 -45q-73 -48 -113 -129q-42 -79 -45 -194l-106 41q3 172 82 315q78 141 206 217q132 78 283 78q207 0 320 -125q110 -125 110 -358v-627h-375zM104 0v1071h371v-1071h-371zM539 1196h-254q-21 128 8 215q27 88 96 139
q68 47 162 47q73 0 117 -20q47 -21 100 -59q23 -18 53 -33q21 -12 45 -12q61 0 86 32q25 36 17 84h254q20 -120 -15 -211q-38 -89 -110 -135q-74 -47 -168 -47q-70 0 -113 21q-45 19 -92 57q-34 28 -51 37q-23 10 -49 10q-54 0 -74 -33q-21 -34 -12 -92z" />
    <glyph glyph-name="ograve" unicode="&#xf2;" horiz-adv-x="1404" 
d="M700 -39q-184 0 -331 78q-147 77 -230 209q-85 136 -82 289q3 159 88 290q80 129 234 207q146 76 332 76q194 0 340 -76q147 -78 225 -205q80 -133 80 -290q-3 -158 -86 -291q-85 -132 -234 -209q-153 -78 -336 -78zM696 244q88 0 156 39q66 40 106 106q39 62 39 148
q3 86 -30 151q-33 63 -101 105q-62 36 -153 36t-154 -38q-66 -38 -108 -105q-40 -67 -43 -147q-3 -83 34 -150q33 -64 103 -106q62 -39 151 -39zM899 1178l-563 237l156 266l481 -360z" />
    <glyph glyph-name="oacute" unicode="&#xf3;" horiz-adv-x="1404" 
d="M700 -39q-184 0 -331 78q-147 77 -230 209q-85 136 -82 289q3 159 88 290q80 129 234 207q146 76 332 76q194 0 340 -76q147 -78 225 -205q80 -133 80 -290q-3 -158 -86 -291q-85 -132 -234 -209q-153 -78 -336 -78zM696 244q88 0 156 39q66 40 106 106q39 62 39 148
q3 86 -30 151q-33 63 -101 105q-62 36 -153 36t-154 -38q-66 -38 -108 -105q-40 -67 -43 -147q-3 -83 34 -150q33 -64 103 -106q62 -39 151 -39zM541 1163l-88 158l483 315l156 -272z" />
    <glyph glyph-name="ocircumflex" unicode="&#xf4;" horiz-adv-x="1404" 
d="M700 -39q-184 0 -331 78q-147 77 -230 209q-85 136 -82 289q3 159 88 290q80 129 234 207q146 76 332 76q194 0 340 -76q147 -78 225 -205q80 -133 80 -290q-3 -158 -86 -291q-85 -132 -234 -209q-153 -78 -336 -78zM696 244q88 0 156 39q66 40 106 106q39 62 39 148
q3 86 -30 151q-33 63 -101 105q-62 36 -153 36t-154 -38q-66 -38 -108 -105q-40 -67 -43 -147q-3 -83 34 -150q33 -64 103 -106q62 -39 151 -39zM182 1204l371 369h276l355 -369h-318l-161 170l-173 -170h-350z" />
    <glyph glyph-name="otilde" unicode="&#xf5;" horiz-adv-x="1404" 
d="M700 -39q-184 0 -331 78q-147 77 -230 209q-85 136 -82 289q3 159 88 290q80 129 234 207q146 76 332 76q194 0 340 -76q147 -78 225 -205q80 -133 80 -290q-3 -158 -86 -291q-85 -132 -234 -209q-153 -78 -336 -78zM696 244q88 0 156 39q66 40 106 106q39 62 39 148
q3 86 -30 151q-33 63 -101 105q-62 36 -153 36t-154 -38q-66 -38 -108 -105q-40 -67 -43 -147q-3 -83 34 -150q33 -64 103 -106q62 -39 151 -39zM512 1196h-254q-21 128 8 215q27 88 96 139q68 47 162 47q73 0 117 -20q47 -21 100 -59q22 -17 54 -33q21 -12 45 -12
q61 0 86 32q24 35 16 84h254q21 -122 -14 -211q-38 -88 -111 -135q-74 -47 -168 -47q-69 0 -112 21q-47 20 -93 57q-34 28 -51 37q-23 10 -49 10q-54 0 -74 -33q-21 -34 -12 -92z" />
    <glyph glyph-name="odieresis" unicode="&#xf6;" horiz-adv-x="1404" 
d="M700 -39q-184 0 -331 78q-147 77 -230 209q-85 136 -82 289q3 159 88 290q80 129 234 207q146 76 332 76q194 0 340 -76q147 -78 225 -205q80 -133 80 -290q-3 -158 -86 -291q-85 -132 -234 -209q-153 -78 -336 -78zM696 244q88 0 156 39q66 40 106 106q39 62 39 148
q3 86 -30 151q-33 63 -101 105q-62 36 -153 36t-154 -38q-66 -38 -108 -105q-40 -67 -43 -147q-3 -83 34 -150q33 -64 103 -106q62 -39 151 -39zM975 1192q-96 0 -156 57q-61 55 -61 137q0 80 61 138q57 57 154 57q92 0 155 -57q64 -58 64 -140q0 -79 -62 -135
q-60 -57 -155 -57zM430 1192q-99 0 -156 57q-61 55 -61 137q0 79 59 138q57 57 152 57t158 -57q61 -58 61 -140q0 -79 -59 -135q-60 -57 -154 -57z" />
    <glyph glyph-name="divide" unicode="&#xf7;" horiz-adv-x="1206" 
d="M98 596v227h992v-227h-992zM608 80q-96 0 -164 59q-67 58 -67 144q0 85 67 143q67 55 164 55q99 0 168 -57q68 -59 68 -141q0 -85 -68 -144q-71 -59 -168 -59zM608 926q-96 0 -164 59q-67 58 -67 141q0 88 67 146q67 55 164 55q99 0 168 -57q68 -59 68 -144
q0 -82 -68 -141q-71 -59 -168 -59z" />
    <glyph glyph-name="oslash" unicode="&#xf8;" horiz-adv-x="1404" 
d="M700 -39q-184 0 -331 78q-147 77 -230 209q-85 136 -82 289q3 159 88 290q80 129 234 207q146 76 332 76q194 0 340 -76q147 -78 225 -205q80 -133 80 -290q-3 -158 -86 -291q-85 -132 -234 -209q-153 -78 -336 -78zM696 244q88 0 156 39q66 40 106 106q39 62 39 148
q3 86 -30 151q-33 63 -101 105q-62 36 -153 36t-154 -38q-66 -38 -108 -105q-40 -67 -43 -147q-3 -83 34 -150q33 -64 103 -106q62 -39 151 -39zM168 -35l760 1159h327l-763 -1159h-324z" />
    <glyph glyph-name="ugrave" unicode="&#xf9;" 
d="M530 -39q-205 0 -315 125q-111 126 -111 358v627h373v-594q0 -106 53 -168q51 -63 154 -63q90 0 158 45q67 44 112 129q40 82 43 192l107 -41q-3 -176 -80 -315q-78 -140 -207 -217q-135 -78 -287 -78zM997 0v1071h373v-1071h-373zM926 1178l-564 237l156 266l481 -360z
" />
    <glyph glyph-name="uacute" unicode="&#xfa;" 
d="M530 -39q-205 0 -315 125q-111 126 -111 358v627h373v-594q0 -106 53 -168q51 -63 154 -63q90 0 158 45q67 44 112 129q40 82 43 192l107 -41q-3 -176 -80 -315q-78 -140 -207 -217q-135 -78 -287 -78zM997 0v1071h373v-1071h-373zM569 1163l-88 158l484 315l155 -272z
" />
    <glyph glyph-name="ucircumflex" unicode="&#xfb;" 
d="M530 -39q-205 0 -315 125q-111 126 -111 358v627h373v-594q0 -106 53 -168q51 -63 154 -63q90 0 158 45q67 44 112 129q40 82 43 192l107 -41q-3 -176 -80 -315q-78 -140 -207 -217q-135 -78 -287 -78zM997 0v1071h373v-1071h-373zM211 1204l371 369h276l354 -369h-317
l-162 170l-172 -170h-350z" />
    <glyph glyph-name="udieresis" unicode="&#xfc;" 
d="M530 -39q-205 0 -315 125q-111 126 -111 358v627h373v-594q0 -106 53 -168q51 -63 154 -63q90 0 158 45q67 44 112 129q40 82 43 192l107 -41q-3 -176 -80 -315q-78 -140 -207 -217q-135 -78 -287 -78zM997 0v1071h373v-1071h-373zM1004 1192q-96 0 -156 57
q-62 56 -62 137q0 79 62 138q57 57 153 57q93 0 156 -57q64 -58 64 -140q0 -79 -62 -135q-60 -57 -155 -57zM459 1192q-99 0 -156 57q-61 55 -61 137q0 79 59 138q57 57 152 57q94 0 157 -57q62 -59 62 -140q0 -78 -60 -135t-153 -57z" />
    <glyph glyph-name="yacute" unicode="&#xfd;" 
d="M530 -39q-205 0 -315 125q-111 126 -111 358v627h373v-594q0 -106 53 -168q51 -63 154 -63q90 0 158 45q67 44 112 129q40 82 43 192l107 -41q-3 -176 -80 -315q-78 -140 -207 -217q-135 -78 -287 -78zM997 -457v1528h373v-1528h-373zM569 1163l-88 158l484 315l155 -272
z" />
    <glyph glyph-name="thorn" unicode="&#xfe;" horiz-adv-x="1456" 
d="M852 -39q-144 0 -260 78q-116 76 -180 207q-65 133 -62 289q0 155 72 290q72 134 192 209q119 76 267 76q142 0 260 -74q117 -79 180 -207q65 -133 65 -294q0 -156 -71 -289q-72 -129 -197 -207t-266 -78zM90 -457l-2 1985h371v-1985h-369zM739 215q82 0 152 43
q67 40 108 115q39 71 39 166q0 92 -34 161q-39 74 -99 113q-65 41 -143 41q-79 0 -150 -41q-68 -42 -110 -115q-43 -73 -43 -161q0 -91 37 -164q35 -74 100 -115q64 -43 143 -43z" />
    <glyph glyph-name="ydieresis" unicode="&#xff;" 
d="M530 -39q-205 0 -315 125q-111 126 -111 358v627h373v-594q0 -106 53 -168q51 -63 154 -63q90 0 158 45q67 44 112 129q40 82 43 192l107 -41q-3 -176 -80 -315q-78 -140 -207 -217q-135 -78 -287 -78zM997 -457v1528h373v-1528h-373zM1004 1192q-96 0 -156 57
q-62 56 -62 137q0 79 62 138q57 57 153 57q93 0 156 -57q64 -58 64 -140q0 -79 -62 -135q-60 -57 -155 -57zM459 1192q-99 0 -156 57q-61 55 -61 137q0 79 59 138q57 57 152 57q94 0 157 -57q62 -59 62 -140q0 -78 -60 -135t-153 -57z" />
    <glyph glyph-name="Amacron" unicode="&#x100;" horiz-adv-x="1480" 
d="M20 0l474 1423h499l465 -1423h-383l-92 283h-477l-84 -283h-402zM575 551h324l-166 498zM309 1522v286h862v-286h-862z" />
    <glyph glyph-name="amacron" unicode="&#x101;" horiz-adv-x="1445" 
d="M569 -39q-147 0 -260 76q-117 73 -182 207q-66 135 -66 293q0 153 72 288q71 132 197 209q122 76 268 76q147 0 260 -76q114 -77 178 -207q64 -131 64 -290q-3 -156 -74 -289t-190 -209q-122 -78 -267 -78zM686 217q78 0 148 43q67 38 112 115q42 68 45 162q0 90 -37 163
q-39 77 -100 115q-65 41 -145 41q-84 0 -152 -41q-67 -43 -108 -117t-41 -163q0 -94 36 -162q39 -76 101 -115q65 -41 141 -41zM991 0l-2 1071h371l2 -1071h-371zM293 1243v287h862v-287h-862z" />
    <glyph glyph-name="Abreve" unicode="&#x102;" horiz-adv-x="1480" 
d="M20 0l474 1423h499l465 -1423h-383l-92 283h-477l-84 -283h-402zM575 551h324l-166 498zM739 1485q-121 0 -200 39q-85 37 -131 104t-46 150h222q-3 -55 32 -80q39 -31 123 -31q77 0 119 31q38 27 35 80h223q3 -85 -41 -150q-43 -66 -129 -104q-82 -39 -207 -39z" />
    <glyph glyph-name="abreve" unicode="&#x103;" horiz-adv-x="1445" 
d="M569 -39q-147 0 -260 76q-117 73 -182 207q-66 135 -66 293q0 153 72 288q71 132 197 209q122 76 268 76q147 0 260 -76q114 -77 178 -207q64 -131 64 -290q-3 -156 -74 -289t-190 -209q-122 -78 -267 -78zM686 217q78 0 148 43q67 38 112 115q42 68 45 162q0 90 -37 163
q-39 77 -100 115q-65 41 -145 41q-84 0 -152 -41q-67 -43 -108 -117t-41 -163q0 -94 36 -162q39 -76 101 -115q65 -41 141 -41zM991 0l-2 1071h371l2 -1071h-371zM727 1206q-122 0 -201 39q-84 37 -131 105q-45 65 -45 149h221q-3 -54 33 -80q38 -30 123 -30q79 0 119 30
q38 27 35 80h223q3 -84 -41 -149q-43 -68 -129 -105q-82 -39 -207 -39z" />
    <glyph glyph-name="Aogonek" unicode="&#x104;" horiz-adv-x="1480" 
d="M1384 -338l132 -235q-313 -65 -488 -31q-180 35 -219 151q-27 73 8 160q36 86 146 180q107 94 301 199q68 10 94 -16q29 -29 26 -72q-141 -74 -233 -162q-87 -84 -47 -145q25 -42 104 -45q85 -3 176 16zM20 0l474 1423h499l465 -1423h-383l-92 283h-477l-84 -283h-402z
M575 551h324l-166 498z" />
    <glyph glyph-name="aogonek" unicode="&#x105;" horiz-adv-x="1445" 
d="M1315 -338l129 -235q-310 -65 -486 -31q-180 35 -219 151q-26 72 9 160q37 88 145 180q107 94 301 199q68 10 94 -16q30 -30 27 -72q-144 -75 -234 -162q-87 -84 -47 -145q25 -42 105 -45q85 -3 176 16zM569 -39q-147 0 -260 76q-117 73 -182 207q-66 135 -66 293
q0 153 72 288q71 132 197 209q122 76 268 76q147 0 260 -76q114 -77 178 -207q64 -131 64 -290q-3 -156 -74 -289t-190 -209q-122 -78 -267 -78zM686 217q78 0 148 43q67 38 112 115q42 68 45 162q0 90 -37 163q-39 77 -100 115q-65 41 -145 41q-84 0 -152 -41
q-67 -43 -108 -117t-41 -163q0 -94 36 -162q39 -76 101 -115q65 -41 141 -41zM991 0l-2 1071h371l2 -1071h-371z" />
    <glyph glyph-name="Cacute" unicode="&#x106;" 
d="M745 -39q-221 0 -378 98q-158 94 -242 263q-83 167 -80 366q3 195 94 369q86 165 254 268q162 98 383 98q190 0 336 -88q146 -90 225 -233q81 -147 84 -301h-346q-9 87 -47 153q-42 66 -106 105q-67 37 -158 37q-103 0 -180 -56q-78 -57 -121 -147q-46 -90 -49 -203
q-3 -122 37 -209q41 -90 116 -141q74 -51 185 -51q81 0 149 35q63 34 111 100q44 61 57 149h350q-15 -153 -100 -290q-87 -144 -234 -232q-153 -90 -340 -90zM545 1466l-88 158l483 315l156 -272z" />
    <glyph glyph-name="cacute" unicode="&#x107;" horiz-adv-x="1380" 
d="M678 -39q-186 0 -330 78q-144 77 -217 207q-75 129 -72 293q3 153 84 288q76 128 224 207q143 76 333 76q165 0 297 -63t217 -177q81 -117 93 -247h-340q-8 49 -45 98q-35 47 -93 74q-56 26 -129 26q-91 0 -153 -39q-68 -41 -105 -104q-36 -62 -39 -139q-3 -83 33 -150
q34 -65 99 -102q64 -37 149 -37q110 0 184 59q73 61 97 148h338q-14 -136 -103 -254q-86 -111 -225 -176q-141 -66 -297 -66zM530 1163l-88 158l484 315l155 -272z" />
    <glyph glyph-name="Ccircumflex" unicode="&#x108;" 
d="M745 -39q-221 0 -378 98q-158 94 -242 263q-83 167 -80 366q3 195 94 369q86 165 254 268q162 98 383 98q190 0 336 -88q146 -90 225 -233q81 -147 84 -301h-346q-9 87 -47 153q-42 66 -106 105q-67 37 -158 37q-103 0 -180 -56q-78 -57 -121 -147q-46 -90 -49 -203
q-3 -122 37 -209q41 -90 116 -141q74 -51 185 -51q81 0 149 35q63 34 111 100q44 61 57 149h350q-15 -153 -100 -290q-87 -144 -234 -232q-153 -90 -340 -90zM227 1483l371 368h276l355 -368h-318l-161 170l-172 -170h-351z" />
    <glyph glyph-name="ccircumflex" unicode="&#x109;" horiz-adv-x="1380" 
d="M678 -39q-186 0 -330 78q-144 77 -217 207q-75 129 -72 293q3 153 84 288q76 128 224 207q143 76 333 76q165 0 297 -63t217 -177q81 -117 93 -247h-340q-8 49 -45 98q-35 47 -93 74q-56 26 -129 26q-91 0 -153 -39q-68 -41 -105 -104q-36 -62 -39 -139q-3 -83 33 -150
q34 -65 99 -102q64 -37 149 -37q110 0 184 59q73 61 97 148h338q-14 -136 -103 -254q-86 -111 -225 -176q-141 -66 -297 -66zM170 1204l371 369h276l354 -369h-317l-162 170l-172 -170h-350z" />
    <glyph glyph-name="Cdotaccent" unicode="&#x10a;" 
d="M745 -39q-221 0 -378 98q-158 94 -242 263q-83 167 -80 366q3 195 94 369q86 165 254 268q162 98 383 98q190 0 336 -88q146 -90 225 -233q81 -147 84 -301h-346q-9 87 -47 153q-42 66 -106 105q-67 37 -158 37q-103 0 -180 -56q-78 -57 -121 -147q-46 -90 -49 -203
q-3 -122 37 -209q41 -90 116 -141q74 -51 185 -51q81 0 149 35q63 34 111 100q44 61 57 149h350q-15 -153 -100 -290q-87 -144 -234 -232q-153 -90 -340 -90zM729 1501q-93 0 -154 55t-61 138q0 80 59 139q58 55 152 55t158 -55q61 -58 61 -139q0 -82 -59 -138
q-61 -55 -156 -55z" />
    <glyph glyph-name="cdotaccent" unicode="&#x10b;" horiz-adv-x="1380" 
d="M678 -39q-186 0 -330 78q-144 77 -217 207q-75 129 -72 293q3 153 84 288q76 128 224 207q143 76 333 76q165 0 297 -63t217 -177q81 -117 93 -247h-340q-8 49 -45 98q-35 47 -93 74q-56 26 -129 26q-91 0 -153 -39q-68 -41 -105 -104q-36 -62 -39 -139q-3 -83 33 -150
q34 -65 99 -102q64 -37 149 -37q110 0 184 59q73 61 97 148h338q-14 -136 -103 -254q-86 -111 -225 -176q-141 -66 -297 -66zM690 1223q-92 0 -153 55q-62 56 -62 137q0 79 60 139q59 56 151 56q93 0 158 -56q61 -58 61 -139t-59 -137q-61 -55 -156 -55z" />
    <glyph glyph-name="Ccaron" unicode="&#x10c;" 
d="M745 -39q-221 0 -378 98q-158 94 -242 263q-83 167 -80 366q3 195 94 369q86 165 254 268q162 98 383 98q190 0 336 -88q146 -90 225 -233q81 -147 84 -301h-346q-9 87 -47 153q-42 66 -106 105q-67 37 -158 37q-103 0 -180 -56q-78 -57 -121 -147q-46 -90 -49 -203
q-3 -122 37 -209q41 -90 116 -141q74 -51 185 -51q81 0 149 35q63 34 111 100q44 61 57 149h350q-15 -153 -100 -290q-87 -144 -234 -232q-153 -90 -340 -90zM594 1473l-350 368h315l158 -170l174 170h354l-373 -368h-278z" />
    <glyph glyph-name="ccaron" unicode="&#x10d;" horiz-adv-x="1380" 
d="M678 -39q-186 0 -330 78q-144 77 -217 207q-75 129 -72 293q3 153 84 288q76 128 224 207q143 76 333 76q165 0 297 -63t217 -177q81 -117 93 -247h-340q-8 49 -45 98q-35 47 -93 74q-56 26 -129 26q-91 0 -153 -39q-68 -41 -105 -104q-36 -62 -39 -139q-3 -83 33 -150
q34 -65 99 -102q64 -37 149 -37q110 0 184 59q73 61 97 148h338q-14 -136 -103 -254q-86 -111 -225 -176q-141 -66 -297 -66zM557 1194l-350 369h315l158 -170l174 170h354l-372 -369h-279z" />
    <glyph glyph-name="Dcaron" unicode="&#x10e;" horiz-adv-x="1380" 
d="M162 0l76 1423h442q192 0 338 -96q148 -102 225 -260q78 -167 78 -356q0 -177 -78 -344q-75 -161 -225 -265q-147 -102 -346 -102h-510zM106 0v1423h377v-1423h-377zM344 295h295q94 0 166 57q74 56 117 156q42 96 39 223q-6 189 -91 297q-85 105 -225 105h-321z
M555 1473l-350 368h315l158 -170l174 170h354l-372 -368h-279z" />
    <glyph glyph-name="dcaron" unicode="&#x10f;" horiz-adv-x="1437" 
d="M569 -39q-147 0 -260 76q-117 73 -182 207q-66 135 -66 293q0 153 72 288q71 132 197 209q122 76 268 76q147 0 260 -76q114 -77 178 -207q64 -131 64 -290q-3 -156 -74 -289t-190 -209q-122 -78 -267 -78zM686 217q78 0 148 43q67 38 112 115q42 68 45 162q0 90 -37 163
q-39 77 -100 115q-65 41 -145 41q-84 0 -152 -41q-67 -43 -108 -117t-41 -163q0 -94 36 -162q39 -76 101 -115q65 -41 141 -41zM991 0l-2 1528h371l2 -1528h-371zM422 1307l-350 368h315l158 -170l174 170h354l-373 -368h-278z" />
    <glyph glyph-name="Dcroat" unicode="&#x110;" horiz-adv-x="1380" 
d="M14 586v272h707v-272h-707zM162 0l76 1423h442q192 0 338 -96q148 -102 225 -260q78 -167 78 -356q0 -177 -78 -344q-75 -161 -225 -265q-147 -102 -346 -102h-510zM106 0v1423h377v-1423h-377zM344 295h295q94 0 166 57q74 56 117 156q42 96 39 223q-6 189 -91 297
q-85 105 -225 105h-321z" />
    <glyph glyph-name="dcroat" unicode="&#x111;" horiz-adv-x="1437" 
d="M569 -39q-147 0 -260 76q-117 73 -182 207q-66 135 -66 293q0 153 72 288q71 132 197 209q122 76 268 76q147 0 260 -76q114 -77 178 -207q64 -131 64 -290q-3 -156 -74 -289t-190 -209q-122 -78 -267 -78zM686 217q78 0 148 43q67 38 112 115q42 68 45 162q0 90 -37 163
q-39 77 -100 115q-65 41 -145 41q-84 0 -152 -41q-67 -43 -108 -117t-41 -163q0 -94 36 -162q39 -76 101 -115q65 -41 141 -41zM991 0l-2 1528h371l2 -1528h-371zM678 1171v267h862v-267h-862z" />
    <glyph glyph-name="Emacron" unicode="&#x112;" horiz-adv-x="1216" 
d="M90 0v1423h1024v-286h-653v-285h569l-2 -291h-567v-272h690v-289h-1061zM176 1522v286h862v-286h-862z" />
    <glyph glyph-name="emacron" unicode="&#x113;" horiz-adv-x="1357" 
d="M690 -39q-199 0 -344 74q-148 76 -223 205q-79 133 -76 297q3 155 82 286q79 132 225 209q147 78 332 78q189 0 334 -80q142 -80 215 -211q75 -135 72 -284q-6 -66 -13 -99h-891q9 -88 93 -145q79 -58 204 -58q87 0 160 33q73 30 115 78l264 -156q-91 -102 -235 -163
q-143 -64 -314 -64zM410 635h540q-3 49 -35 102q-32 50 -86 76q-59 27 -135 27q-112 0 -186 -56q-77 -56 -98 -149zM250 1243v287h862v-287h-862z" />
    <glyph glyph-name="Ebreve" unicode="&#x114;" horiz-adv-x="1216" 
d="M90 0v1423h1024v-286h-653v-285h569l-2 -291h-567v-272h690v-289h-1061zM606 1485q-121 0 -200 39q-86 38 -132 104q-45 65 -45 150h222q-3 -55 32 -80q39 -31 123 -31q77 0 119 31q38 27 35 80h223q3 -85 -41 -150q-43 -66 -129 -104q-82 -39 -207 -39z" />
    <glyph glyph-name="ebreve" unicode="&#x115;" horiz-adv-x="1357" 
d="M690 -39q-199 0 -344 74q-148 76 -223 205q-79 133 -76 297q3 155 82 286q79 132 225 209q147 78 332 78q189 0 334 -80q142 -80 215 -211q75 -135 72 -284q-6 -66 -13 -99h-891q9 -88 93 -145q79 -58 204 -58q87 0 160 33q73 30 115 78l264 -156q-91 -102 -235 -163
q-143 -64 -314 -64zM410 635h540q-3 49 -35 102q-32 50 -86 76q-59 27 -135 27q-112 0 -186 -56q-77 -56 -98 -149zM682 1206q-122 0 -201 39q-84 37 -131 105q-45 65 -45 149h221q-3 -54 33 -80q37 -30 123 -30q78 0 119 30q38 27 35 80h223q3 -84 -41 -149
q-44 -68 -129 -105q-82 -39 -207 -39z" />
    <glyph glyph-name="Edotaccent" unicode="&#x116;" horiz-adv-x="1216" 
d="M90 0v1423h1024v-286h-653v-285h569l-2 -291h-567v-272h690v-289h-1061zM608 1501q-92 0 -153 55q-62 56 -62 138q0 79 60 139q58 55 151 55q94 0 158 -55q61 -58 61 -139q0 -82 -59 -138q-61 -55 -156 -55z" />
    <glyph glyph-name="edotaccent" unicode="&#x117;" horiz-adv-x="1357" 
d="M690 -39q-199 0 -344 74q-148 76 -223 205q-79 133 -76 297q3 155 82 286q79 132 225 209q147 78 332 78q189 0 334 -80q142 -80 215 -211q75 -135 72 -284q-6 -66 -13 -99h-891q9 -88 93 -145q79 -58 204 -58q87 0 160 33q73 30 115 78l264 -156q-91 -102 -235 -163
q-143 -64 -314 -64zM410 635h540q-3 49 -35 102q-32 50 -86 76q-59 27 -135 27q-112 0 -186 -56q-77 -56 -98 -149zM678 1223q-93 0 -154 55t-61 137q0 80 59 139q59 56 152 56q92 0 157 -56q62 -59 62 -139q0 -81 -59 -137q-61 -55 -156 -55z" />
    <glyph glyph-name="Eogonek" unicode="&#x118;" horiz-adv-x="1216" 
d="M778 -338l131 -235q-312 -65 -487 -31q-180 35 -219 151q-27 73 8 160q37 88 145 180q107 94 301 199q69 10 95 -16q29 -29 26 -72q-141 -74 -233 -162q-87 -84 -47 -145q25 -42 104 -45q85 -3 176 16zM90 0v1423h1024v-286h-653v-285h569l-2 -291h-567v-272h690v-289
h-1061z" />
    <glyph glyph-name="eogonek" unicode="&#x119;" horiz-adv-x="1357" 
d="M848 -338l131 -235q-312 -65 -487 -31q-181 35 -220 151q-26 72 9 160q37 88 145 180q107 94 301 199q68 10 94 -16q30 -30 27 -72q-144 -75 -234 -162q-87 -84 -47 -145q25 -42 105 -45q85 -3 176 16zM690 -39q-199 0 -344 74q-148 76 -223 205q-79 133 -76 297
q3 155 82 286q79 132 225 209q147 78 332 78q189 0 334 -80q142 -80 215 -211q75 -135 72 -284q-6 -66 -13 -99h-891q9 -88 93 -145q79 -58 204 -58q87 0 160 33q73 30 115 78l264 -156q-91 -102 -235 -163q-143 -64 -314 -64zM410 635h540q-3 49 -35 102q-32 50 -86 76
q-59 27 -135 27q-112 0 -186 -56q-77 -56 -98 -149z" />
    <glyph glyph-name="Ecaron" unicode="&#x11a;" horiz-adv-x="1216" 
d="M90 0v1423h1024v-286h-653v-285h569l-2 -291h-567v-272h690v-289h-1061zM475 1473l-350 368h315l158 -170l174 170h354l-372 -368h-279z" />
    <glyph glyph-name="ecaron" unicode="&#x11b;" horiz-adv-x="1357" 
d="M690 -39q-199 0 -344 74q-148 76 -223 205q-79 133 -76 297q3 155 82 286q79 132 225 209q147 78 332 78q189 0 334 -80q142 -80 215 -211q75 -135 72 -284q-6 -66 -13 -99h-891q9 -88 93 -145q79 -58 204 -58q87 0 160 33q73 30 115 78l264 -156q-91 -102 -235 -163
q-143 -64 -314 -64zM410 635h540q-3 49 -35 102q-32 50 -86 76q-59 27 -135 27q-112 0 -186 -56q-77 -56 -98 -149zM545 1194l-350 369h315l158 -170l174 170h354l-373 -369h-278z" />
    <glyph glyph-name="Gcircumflex" unicode="&#x11c;" horiz-adv-x="1527" 
d="M762 -39q-223 0 -385 98q-164 95 -250 265q-85 168 -82 376q3 185 96 357q90 164 260 266q166 100 392 100q191 0 331 -82q139 -81 224 -211q80 -127 98 -256h-356q-9 53 -50 107q-38 47 -104 82q-62 33 -156 33q-106 0 -188 -52q-78 -50 -127 -143q-48 -91 -51 -201
q-3 -122 39 -213q44 -95 122 -147q80 -53 189 -53q92 0 166 39q76 40 125 110q46 69 61 162l357 -6q-17 -155 -109 -305q-90 -147 -244 -236q-159 -90 -358 -90zM748 520v230h725v-158l-154 -72h-571zM262 1483l371 368h276l355 -368h-318l-162 170l-172 -170h-350z" />
    <glyph glyph-name="gcircumflex" unicode="&#x11d;" horiz-adv-x="1425" 
d="M756 -588q-185 0 -330 80q-147 80 -233 227l299 136q50 -71 112 -107q65 -38 131 -35q116 0 174 76q59 77 62 201v1081h366v-1040q0 -185 -67 -322q-69 -142 -199 -217q-133 -80 -315 -80zM555 -39q-138 0 -254 78q-113 76 -176 211q-62 127 -59 287q3 155 77 288
q70 130 193 209q119 76 262 76q139 0 252 -76q110 -74 176 -209q60 -129 57 -286q-3 -156 -77 -289q-76 -136 -193 -211q-122 -78 -258 -78zM680 217q77 0 141 43q65 41 109 115q40 69 43 164q3 83 -33 159q-39 76 -100 117q-65 41 -140 41q-74 0 -139 -41
q-66 -45 -106 -117q-40 -76 -43 -163q-3 -88 32 -160q35 -75 99 -115q61 -43 137 -43zM193 1204l370 369h277l354 -369h-317l-162 170l-172 -170h-350z" />
    <glyph glyph-name="Gbreve" unicode="&#x11e;" horiz-adv-x="1527" 
d="M762 -39q-223 0 -385 98q-164 95 -250 265q-85 168 -82 376q3 185 96 357q90 164 260 266q166 100 392 100q191 0 331 -82q139 -81 224 -211q80 -127 98 -256h-356q-9 53 -50 107q-38 47 -104 82q-62 33 -156 33q-106 0 -188 -52q-78 -50 -127 -143q-48 -91 -51 -201
q-3 -122 39 -213q44 -95 122 -147q80 -53 189 -53q92 0 166 39q76 40 125 110q46 69 61 162l357 -6q-17 -155 -109 -305q-90 -147 -244 -236q-159 -90 -358 -90zM748 520v230h725v-158l-154 -72h-571zM762 1485q-122 0 -201 39q-85 37 -131 104q-45 65 -45 150h221
q-3 -54 33 -80q39 -31 123 -31q77 0 119 31q37 27 34 80h224q3 -85 -41 -150q-43 -66 -129 -104q-82 -39 -207 -39z" />
    <glyph glyph-name="gbreve" unicode="&#x11f;" horiz-adv-x="1425" 
d="M756 -588q-185 0 -330 80q-147 80 -233 227l299 136q50 -71 112 -107q65 -38 131 -35q116 0 174 76q59 77 62 201v1081h366v-1040q0 -185 -67 -322q-69 -142 -199 -217q-133 -80 -315 -80zM555 -39q-138 0 -254 78q-113 76 -176 211q-62 127 -59 287q3 155 77 288
q70 130 193 209q119 76 262 76q139 0 252 -76q110 -74 176 -209q60 -129 57 -286q-3 -156 -77 -289q-76 -136 -193 -211q-122 -78 -258 -78zM680 217q77 0 141 43q65 41 109 115q40 69 43 164q3 83 -33 159q-39 76 -100 117q-65 41 -140 41q-74 0 -139 -41
q-66 -45 -106 -117q-40 -76 -43 -163q-3 -88 32 -160q35 -75 99 -115q61 -43 137 -43zM715 1206q-122 0 -201 39q-84 37 -131 105q-45 65 -45 149h221q-3 -54 33 -80q38 -30 123 -30q79 0 119 30q37 27 34 80h224q3 -84 -41 -149q-43 -68 -129 -105q-82 -39 -207 -39z" />
    <glyph glyph-name="Gdotaccent" unicode="&#x120;" horiz-adv-x="1527" 
d="M762 -39q-223 0 -385 98q-164 95 -250 265q-85 168 -82 376q3 185 96 357q90 164 260 266q166 100 392 100q191 0 331 -82q139 -81 224 -211q80 -127 98 -256h-356q-9 53 -50 107q-38 47 -104 82q-62 33 -156 33q-106 0 -188 -52q-78 -50 -127 -143q-48 -91 -51 -201
q-3 -122 39 -213q44 -95 122 -147q80 -53 189 -53q92 0 166 39q76 40 125 110q46 69 61 162l357 -6q-17 -155 -109 -305q-90 -147 -244 -236q-159 -90 -358 -90zM748 520v230h725v-158l-154 -72h-571zM764 1501q-93 0 -154 55t-61 138q0 80 59 139q58 55 152 55t158 -55
q61 -58 61 -139q0 -82 -59 -138q-61 -55 -156 -55z" />
    <glyph glyph-name="gdotaccent" unicode="&#x121;" horiz-adv-x="1425" 
d="M756 -588q-185 0 -330 80q-147 80 -233 227l299 136q50 -71 112 -107q65 -38 131 -35q116 0 174 76q59 77 62 201v1081h366v-1040q0 -185 -67 -322q-69 -142 -199 -217q-133 -80 -315 -80zM555 -39q-138 0 -254 78q-113 76 -176 211q-62 127 -59 287q3 155 77 288
q70 130 193 209q119 76 262 76q139 0 252 -76q110 -74 176 -209q60 -129 57 -286q-3 -156 -77 -289q-76 -136 -193 -211q-122 -78 -258 -78zM680 217q77 0 141 43q65 41 109 115q40 69 43 164q3 83 -33 159q-39 76 -100 117q-65 41 -140 41q-74 0 -139 -41
q-66 -45 -106 -117q-40 -76 -43 -163q-3 -88 32 -160q35 -75 99 -115q61 -43 137 -43zM713 1223q-93 0 -154 55t-61 137q0 80 59 139q59 56 152 56q92 0 157 -56q62 -59 62 -139t-60 -137q-61 -55 -155 -55z" />
    <glyph glyph-name="uni0122" unicode="&#x122;" horiz-adv-x="1527" 
d="M762 -39q-223 0 -385 98q-164 95 -250 265q-85 168 -82 376q3 185 96 357q90 164 260 266q166 100 392 100q191 0 331 -82q139 -81 224 -211q80 -127 98 -256h-356q-9 53 -50 107q-38 47 -104 82q-62 33 -156 33q-106 0 -188 -52q-78 -50 -127 -143q-48 -91 -51 -201
q-3 -122 39 -213q44 -95 122 -147q80 -53 189 -53q92 0 166 39q76 40 125 110q46 69 61 162l357 -6q-17 -155 -109 -305q-90 -147 -244 -236q-159 -90 -358 -90zM748 520v230h725v-158l-154 -72h-571z" />
    <glyph glyph-name="uni0123" unicode="&#x123;" horiz-adv-x="1425" 
d="M756 -588q-185 0 -330 80q-147 80 -233 227l299 136q50 -71 112 -107q65 -38 131 -35q116 0 174 76q59 77 62 201v1081h366v-1040q0 -185 -67 -322q-69 -142 -199 -217q-133 -80 -315 -80zM555 -39q-138 0 -254 78q-113 76 -176 211q-62 127 -59 287q3 155 77 288
q70 130 193 209q119 76 262 76q139 0 252 -76q110 -74 176 -209q60 -129 57 -286q-3 -156 -77 -289q-76 -136 -193 -211q-122 -78 -258 -78zM680 217q77 0 141 43q65 41 109 115q40 69 43 164q3 83 -33 159q-39 76 -100 117q-65 41 -140 41q-74 0 -139 -41
q-66 -45 -106 -117q-40 -76 -43 -163q-3 -88 32 -160q35 -75 99 -115q61 -43 137 -43zM733 1677l207 -26l-31 -467h-374z" />
    <glyph glyph-name="Hcircumflex" unicode="&#x124;" horiz-adv-x="1474" 
d="M1012 0v569h-549v-569h-371v1423h371v-573h549v573h370v-1423h-370zM236 1483l370 368h277l354 -368h-317l-162 170l-172 -170h-350z" />
    <glyph glyph-name="hcircumflex" unicode="&#x125;" horiz-adv-x="1437" 
d="M977 0v594q0 105 -53 170q-51 63 -154 63q-88 0 -156 -45q-72 -47 -112 -129q-40 -81 -43 -194l-109 41q3 174 82 317q76 137 207 215q132 78 285 78q204 0 317 -125q111 -126 111 -358v-627h-375zM86 0v1528h373v-1528h-373zM342 1337l371 369h276l354 -369h-317
l-162 170l-172 -170h-350z" />
    <glyph glyph-name="Hbar" unicode="&#x126;" horiz-adv-x="1474" 
d="M1012 0v569h-549v-569h-371v1423h371v-172h549v172h370v-1423h-370zM463 850h549v145h-549v-145z" />
    <glyph glyph-name="hbar" unicode="&#x127;" horiz-adv-x="1437" 
d="M977 0v594q0 105 -53 170q-51 63 -154 63q-88 0 -156 -45q-72 -47 -112 -129q-40 -81 -43 -194l-109 41q3 174 82 317q76 137 207 215q132 78 285 78q204 0 317 -125q111 -126 111 -358v-627h-375zM86 0v1528h373v-1528h-373zM-59 1153v287h862v-287h-862z" />
    <glyph glyph-name="Itilde" unicode="&#x128;" horiz-adv-x="614" 
d="M127 0v1423h371v-1423h-371zM92 1475h-254q-21 128 8 215q27 87 97 139q68 47 161 47q70 0 117 -21q50 -23 101 -59q23 -18 53 -33q21 -12 45 -12q60 0 86 33q24 35 16 84h254q21 -122 -14 -211q-38 -89 -111 -135q-74 -47 -168 -47q-71 0 -112 20q-45 19 -92 57
q-32 26 -52 37q-23 10 -49 10q-55 0 -74 -32q-21 -34 -12 -92z" />
    <glyph glyph-name="itilde" unicode="&#x129;" horiz-adv-x="581" 
d="M102 0v1071h375v-1071h-375zM150 1186h-197q-15 111 8 188q22 79 74 119q53 41 125 41q52 0 90 -18q29 -15 76 -50q21 -18 41 -28q16 -13 34 -13q43 0 66 29q18 27 12 74h195q16 -112 -10 -185q-26 -74 -84 -116q-59 -41 -131 -41q-53 0 -87 18q-30 13 -69 49
q-31 27 -41 33t-37 10q-42 -3 -57 -30q-17 -30 -8 -80z" />
    <glyph glyph-name="Imacron" unicode="&#x12a;" horiz-adv-x="614" 
d="M127 0v1423h371v-1423h-371zM-123 1522v286h862v-286h-862z" />
    <glyph glyph-name="imacron" unicode="&#x12b;" horiz-adv-x="581" 
d="M102 0v1071h375v-1071h-375zM-139 1243v287h862v-287h-862z" />
    <glyph glyph-name="Ibreve" unicode="&#x12c;" horiz-adv-x="614" 
d="M127 0v1423h371v-1423h-371zM305 1485q-122 0 -201 39q-85 37 -131 104q-45 65 -45 150h222q-3 -55 32 -80q39 -31 123 -31q77 0 119 31q38 27 35 80h223q3 -85 -41 -150q-43 -66 -129 -104q-82 -39 -207 -39z" />
    <glyph glyph-name="ibreve" unicode="&#x12d;" horiz-adv-x="581" 
d="M102 0v1071h375v-1071h-375zM293 1165q-104 0 -178 39q-79 39 -119 105q-41 68 -41 149h199q-3 -54 30 -80q34 -30 109 -30q73 0 108 30q34 27 31 80h203q3 -85 -37 -149q-40 -67 -117 -105q-74 -39 -188 -39z" />
    <glyph glyph-name="Iogonek" unicode="&#x12e;" horiz-adv-x="614" 
d="M453 -338l129 -235q-310 -65 -486 -31q-180 35 -219 151q-27 73 8 160q36 86 146 180q106 92 299 199q71 9 96 -16q28 -28 25 -72q-143 -76 -232 -162q-87 -83 -49 -145q28 -42 106 -45q86 -3 177 16zM127 0v1423h371v-1423h-371z" />
    <glyph glyph-name="iogonek" unicode="&#x12f;" horiz-adv-x="581" 
d="M430 -338l129 -235q-310 -65 -485 -31q-180 35 -219 151q-27 73 8 160q37 88 145 180q107 94 301 199q68 10 94 -16q30 -30 27 -72q-141 -74 -233 -162q-87 -84 -50 -145q28 -42 107 -45q85 -3 176 16zM102 0v1071h375v-1071h-375zM289 1196q-69 0 -133 31q-62 30 -97 84
q-36 50 -36 110q0 63 36 113q31 47 97 84q64 31 133 31t133 -31q62 -37 96 -84q35 -53 35 -113q0 -57 -35 -110q-39 -55 -96 -84q-64 -31 -133 -31z" />
    <glyph glyph-name="Idotaccent" unicode="&#x130;" horiz-adv-x="614" 
d="M127 0v1423h371v-1423h-371zM307 1501q-92 0 -153 55q-62 56 -62 138q0 79 60 139q58 55 151 55q94 0 158 -55q61 -58 61 -139q0 -82 -59 -138q-61 -55 -156 -55z" />
    <glyph glyph-name="dotlessi" unicode="&#x131;" horiz-adv-x="581" 
d="M102 0v1071h375v-1071h-375z" />
    <glyph glyph-name="IJ" unicode="&#x132;" horiz-adv-x="2029" 
d="M127 0v1423h371v-1423h-371zM1237 -39q-208 0 -342 90q-131 88 -188 244q-56 151 -35 338h354q-9 -103 14 -174q24 -77 82 -117q59 -41 142 -41q144 0 221 102q76 101 76 306v714h387v-725q0 -228 -82 -393t-242 -254q-166 -90 -387 -90z" />
    <glyph glyph-name="ij" unicode="&#x133;" horiz-adv-x="1185" 
d="M102 0v1071h375v-1071h-375zM289 1196q-69 0 -133 31q-62 30 -97 84q-36 50 -36 110q0 63 36 113q31 47 97 84q64 31 133 31t133 -31q62 -37 96 -84q35 -53 35 -113q0 -57 -35 -110q-39 -55 -96 -84q-64 -31 -133 -31zM395 -457v289h41q124 0 191 64q65 62 65 180v995
h371v-983q0 -165 -62 -289q-61 -125 -176 -190q-120 -66 -270 -66h-160zM872 1196q-73 0 -133 31q-60 29 -96 84q-37 52 -37 110q0 61 37 113q31 48 96 84q60 31 133 31q70 0 134 -31q62 -37 96 -84q35 -53 35 -113q0 -57 -35 -110q-39 -55 -96 -84q-64 -31 -134 -31z" />
    <glyph glyph-name="Jcircumflex" unicode="&#x134;" horiz-adv-x="1415" 
d="M623 -39q-208 0 -342 90q-133 89 -189 244q-56 151 -35 338h355q-9 -103 14 -174q24 -77 82 -117q59 -41 141 -41q145 0 221 102q76 101 76 306v714h387v-725q0 -228 -82 -393q-82 -166 -241 -254q-166 -90 -387 -90zM573 1483l371 368h277l354 -368h-318l-161 170
l-172 -170h-351z" />
    <glyph glyph-name="jcircumflex" unicode="&#x135;" horiz-adv-x="606" 
d="M-186 -457v289h41q123 0 190 64q66 63 66 180v995h370v-983q0 -167 -61 -289q-61 -125 -176 -190q-120 -66 -271 -66h-159zM-223 1130l370 369h277l354 -369h-317l-162 170l-172 -170h-350z" />
    <glyph glyph-name="uni0136" unicode="&#x136;" horiz-adv-x="1411" 
d="M1061 0l-588 684v-684h-371v1423h371v-637l557 637h479l-628 -675l661 -748h-481z" />
    <glyph glyph-name="uni0137" unicode="&#x137;" horiz-adv-x="1376" 
d="M975 0l-506 492v-492h-373v1528h373v-946l489 489h494l-569 -522l581 -549h-489z" />
    <glyph glyph-name="kgreenlandic" unicode="&#x138;" horiz-adv-x="1376" 
d="M975 0l-506 492v-492h-373v1071h373v-489l489 489h494l-569 -522l581 -549h-489z" />
    <glyph glyph-name="Lacute" unicode="&#x139;" horiz-adv-x="1165" 
d="M94 0v1423h373v-1108h688v-315h-1061zM395 1466l-88 158l484 315l155 -272z" />
    <glyph glyph-name="lacute" unicode="&#x13a;" horiz-adv-x="585" 
d="M102 0v1528h15l-74 131l483 315l156 -272l-477 -174h268v-1528h-371z" />
    <glyph glyph-name="uni013B" unicode="&#x13b;" horiz-adv-x="1165" 
d="M94 0v1423h373v-1108h688v-315h-1061z" />
    <glyph glyph-name="uni013C" unicode="&#x13c;" horiz-adv-x="585" 
d="M102 0v1528h371v-1528h-371z" />
    <glyph glyph-name="Lcaron" unicode="&#x13d;" horiz-adv-x="1165" 
d="M94 0v1423h373v-1108h688v-315h-1061zM446 1473l-350 368h316l157 -170l174 170h355l-373 -368h-279z" />
    <glyph glyph-name="lcaron" unicode="&#x13e;" horiz-adv-x="585" 
d="M102 0v1528h371v-1528h-371zM-127 1886h268l135 -147l150 147h301l-317 -321h-238z" />
    <glyph glyph-name="Ldot" unicode="&#x13f;" horiz-adv-x="1165" 
d="M94 0v1423h373v-1108h688v-315h-1061zM877 664q-93 0 -154 55t-61 137q0 80 59 139q59 56 151 56q93 0 158 -56q62 -59 62 -139t-60 -137q-61 -55 -155 -55z" />
    <glyph glyph-name="ldot" unicode="&#x140;" horiz-adv-x="1003" 
d="M102 0v1528h371v-1528h-371zM786 567q-91 0 -153 56t-62 137q0 79 60 139q58 55 151 55q94 0 158 -55q61 -58 61 -139t-59 -137q-62 -56 -156 -56z" />
    <glyph glyph-name="Lslash" unicode="&#x141;" horiz-adv-x="1165" 
d="M94 0v557l-131 -27v283l131 29v581h373v-508l360 76v-284l-360 -74v-318h688v-315h-1061z" />
    <glyph glyph-name="lslash" unicode="&#x142;" horiz-adv-x="585" 
d="M102 0v1004l-213 -50v285l213 47v242h371v-160l203 47v-285l-203 -45v-1085h-371z" />
    <glyph glyph-name="Nacute" unicode="&#x143;" horiz-adv-x="1538" 
d="M1067 0l-602 879v-879h-359v1423h359l612 -888v888h359v-1423h-369zM584 1466l-88 158l483 315l156 -272z" />
    <glyph glyph-name="nacute" unicode="&#x144;" 
d="M995 0v594q0 105 -53 170q-51 63 -156 63q-85 0 -153 -45q-73 -48 -113 -129q-42 -79 -45 -194l-106 41q3 172 82 315q78 141 206 217q132 78 283 78q207 0 320 -125q110 -125 110 -358v-627h-375zM104 0v1071h371v-1071h-371zM569 1163l-88 158l484 315l155 -272z" />
    <glyph glyph-name="uni0145" unicode="&#x145;" horiz-adv-x="1538" 
d="M1067 0l-602 879v-879h-359v1423h359l612 -888v888h359v-1423h-369z" />
    <glyph glyph-name="uni0146" unicode="&#x146;" 
d="M995 0v594q0 105 -53 170q-51 63 -156 63q-85 0 -153 -45q-73 -48 -113 -129q-42 -79 -45 -194l-106 41q3 172 82 315q78 141 206 217q132 78 283 78q207 0 320 -125q110 -125 110 -358v-627h-375zM104 0v1071h371v-1071h-371z" />
    <glyph glyph-name="Ncaron" unicode="&#x147;" horiz-adv-x="1538" 
d="M1067 0l-602 879v-879h-359v1423h359l612 -888v888h359v-1423h-369zM633 1473l-350 368h315l158 -170l174 170h354l-373 -368h-278z" />
    <glyph glyph-name="ncaron" unicode="&#x148;" 
d="M995 0v594q0 105 -53 170q-51 63 -156 63q-85 0 -153 -45q-73 -48 -113 -129q-42 -79 -45 -194l-106 41q3 172 82 315q78 141 206 217q132 78 283 78q207 0 320 -125q110 -125 110 -358v-627h-375zM104 0v1071h371v-1071h-371zM596 1194l-350 369h315l158 -170l174 170
h354l-373 -369h-278z" />
    <glyph glyph-name="napostrophe" unicode="&#x149;" 
d="M995 0v594q0 105 -53 170q-51 63 -156 63q-85 0 -153 -45q-73 -48 -113 -129q-42 -79 -45 -194l-106 41q3 172 82 315q78 141 206 217q132 78 283 78q207 0 320 -125q110 -125 110 -358v-627h-375zM104 0v1071h371v-1071h-371z" />
    <glyph glyph-name="Eng" unicode="&#x14a;" horiz-adv-x="1538" 
d="M1067 0l-807 1190l205 233l971 -1423h-369zM106 0v1423h359v-1423h-359zM768 -457v289h39q136 0 197 55q59 56 59 162v375l373 8v-473q0 -122 -62 -217q-66 -96 -178 -148q-111 -51 -268 -51h-160zM1077 0v1423h359v-1423h-359z" />
    <glyph glyph-name="eng" unicode="&#x14b;" 
d="M995 246v368q0 55 -22 107q-24 47 -72 78q-48 28 -115 28q-85 0 -153 -45q-73 -48 -113 -129q-42 -79 -45 -194l-106 41q3 178 80 317q78 140 204 215q128 78 285 78q199 0 317 -115q115 -118 115 -309v-440h-375zM104 0v1071h371v-1071h-371zM702 -457v289h41
q134 0 195 55q59 56 59 162v375l373 8v-473q0 -123 -61 -217q-65 -96 -179 -148q-111 -51 -268 -51h-160z" />
    <glyph glyph-name="Omacron" unicode="&#x14c;" horiz-adv-x="1572" 
d="M762 -39q-221 0 -387 96q-167 97 -248 260q-85 166 -82 373q3 193 96 365q87 164 260 268q166 100 392 100q221 0 387 -96q164 -95 250 -262q84 -172 81 -375q-3 -200 -100 -371q-95 -168 -264 -262q-172 -96 -385 -96zM768 285q111 0 193 55q83 56 129 149q46 90 49 201
q3 116 -37 207q-44 91 -123 147q-85 54 -193 54q-107 0 -190 -56q-83 -59 -129 -149q-46 -93 -49 -203q-6 -119 37 -207q41 -93 123 -145q80 -53 190 -53zM354 1522v286h863v-286h-863z" />
    <glyph glyph-name="omacron" unicode="&#x14d;" horiz-adv-x="1404" 
d="M700 -39q-184 0 -331 78q-147 77 -230 209q-85 136 -82 289q3 159 88 290q80 129 234 207q146 76 332 76q194 0 340 -76q147 -78 225 -205q80 -133 80 -290q-3 -158 -86 -291q-85 -132 -234 -209q-153 -78 -336 -78zM696 244q88 0 156 39q66 40 106 106q39 62 39 148
q3 86 -30 151q-33 63 -101 105q-62 36 -153 36t-154 -38q-66 -38 -108 -105q-40 -67 -43 -147q-3 -83 34 -150q33 -64 103 -106q62 -39 151 -39zM272 1243v287h863v-287h-863z" />
    <glyph glyph-name="Obreve" unicode="&#x14e;" horiz-adv-x="1572" 
d="M762 -39q-221 0 -387 96q-167 97 -248 260q-85 166 -82 373q3 193 96 365q87 164 260 268q166 100 392 100q221 0 387 -96q164 -95 250 -262q84 -172 81 -375q-3 -200 -100 -371q-95 -168 -264 -262q-172 -96 -385 -96zM768 285q111 0 193 55q83 56 129 149q46 90 49 201
q3 116 -37 207q-44 91 -123 147q-85 54 -193 54q-107 0 -190 -56q-83 -59 -129 -149q-46 -93 -49 -203q-6 -119 37 -207q41 -93 123 -145q80 -53 190 -53zM784 1485q-121 0 -200 39q-85 37 -131 104q-45 65 -45 150h221q-3 -54 33 -80q39 -31 122 -31q77 0 119 31
q38 27 35 80h223q3 -85 -41 -150q-43 -66 -129 -104q-82 -39 -207 -39z" />
    <glyph glyph-name="obreve" unicode="&#x14f;" horiz-adv-x="1404" 
d="M700 -39q-184 0 -331 78q-147 77 -230 209q-85 136 -82 289q3 159 88 290q80 129 234 207q146 76 332 76q194 0 340 -76q147 -78 225 -205q80 -133 80 -290q-3 -158 -86 -291q-85 -132 -234 -209q-153 -78 -336 -78zM696 244q88 0 156 39q66 40 106 106q39 62 39 148
q3 86 -30 151q-33 63 -101 105q-62 36 -153 36t-154 -38q-66 -38 -108 -105q-40 -67 -43 -147q-3 -83 34 -150q33 -64 103 -106q62 -39 151 -39zM707 1206q-122 0 -201 39q-84 37 -131 105q-45 65 -45 149h221q-3 -54 33 -80q38 -30 123 -30q77 0 118 30q38 27 35 80h223
q3 -84 -41 -149q-44 -68 -129 -105q-82 -39 -206 -39z" />
    <glyph glyph-name="Ohungarumlaut" unicode="&#x150;" horiz-adv-x="1572" 
d="M762 -39q-221 0 -387 96q-167 97 -248 260q-85 166 -82 373q3 193 96 365q87 164 260 268q166 100 392 100q221 0 387 -96q164 -95 250 -262q84 -172 81 -375q-3 -200 -100 -371q-95 -168 -264 -262q-172 -96 -385 -96zM768 285q111 0 193 55q83 56 129 149q46 90 49 201
q3 116 -37 207q-44 91 -123 147q-85 54 -193 54q-107 0 -190 -56q-83 -59 -129 -149q-46 -93 -49 -203q-6 -119 37 -207q41 -93 123 -145q80 -53 190 -53zM901 1460l-78 158l4 2l-415 -160l-78 158l454 313l132 -248l358 248l143 -270z" />
    <glyph glyph-name="ohungarumlaut" unicode="&#x151;" horiz-adv-x="1404" 
d="M700 -39q-184 0 -331 78q-147 77 -230 209q-85 136 -82 289q3 159 88 290q80 129 234 207q146 76 332 76q194 0 340 -76q147 -78 225 -205q80 -133 80 -290q-3 -158 -86 -291q-85 -132 -234 -209q-153 -78 -336 -78zM696 244q88 0 156 39q66 40 106 106q39 62 39 148
q3 86 -30 151q-33 63 -101 105q-62 36 -153 36t-154 -38q-66 -38 -108 -105q-40 -67 -43 -147q-3 -83 34 -150q33 -64 103 -106q62 -39 151 -39zM813 1182l-78 157l4 2l-415 -159l-78 157l454 314l131 -248l359 248l143 -271z" />
    <glyph glyph-name="OE" unicode="&#x152;" horiz-adv-x="2254" 
d="M762 -39q-221 0 -387 96q-167 97 -248 260q-85 166 -82 373q3 193 96 365q87 164 260 268q166 100 392 100q221 0 387 -96q164 -95 217 -262q52 -168 49 -375q-3 -203 -68 -371q-66 -170 -231 -262q-172 -96 -385 -96zM768 285q111 0 193 55q80 54 118 149q38 93 41 201
q3 124 -28 207q-35 92 -113 147q-85 54 -193 54q-107 0 -190 -56q-83 -59 -129 -149q-46 -93 -49 -203q-6 -119 37 -207q41 -93 123 -145q80 -53 190 -53zM1401 0l4 289h782v-289h-786zM1126 0l2 1423h373v-1423h-375zM1300 561l9 291h759l-2 -291h-766zM1366 1137l2 286
h786l-2 -286h-786z" />
    <glyph glyph-name="oe" unicode="&#x153;" horiz-adv-x="2316" 
d="M700 -39q-184 0 -331 78q-147 77 -230 209q-85 136 -82 289q3 159 88 290q80 129 234 207q146 76 332 76q194 0 340 -76q147 -78 225 -205q80 -133 80 -290q-3 -158 -86 -291q-85 -132 -234 -209q-153 -78 -336 -78zM696 244q88 0 156 39q66 40 106 106q39 62 39 148
q3 86 -30 151q-33 63 -101 105q-62 36 -153 36t-154 -38q-66 -38 -108 -105q-40 -67 -43 -147q-3 -83 34 -150q33 -64 103 -106q62 -39 151 -39zM1647 -39q-199 0 -344 74q-149 76 -224 205q-78 131 -75 297q3 157 81 286q79 131 226 209t331 78q189 0 334 -80
q142 -80 215 -211q75 -135 72 -284q-6 -73 -12 -99h-891q9 -89 92 -145q79 -58 205 -58q87 0 160 33q71 29 114 78l264 -156q-91 -102 -235 -163q-143 -64 -313 -64zM1366 635h541q-3 49 -35 102q-32 50 -86 76q-58 27 -135 27q-113 0 -187 -56q-77 -56 -98 -149z" />
    <glyph glyph-name="Racute" unicode="&#x154;" horiz-adv-x="1284" 
d="M889 0l-535 657l-8 766h297q180 3 315 -63q132 -65 203 -176q70 -113 70 -248q0 -164 -94 -277q-91 -110 -263 -157l453 -502h-438zM102 0v1423h375v-1423h-375zM424 713h197q109 3 172 57q64 55 61 158q-3 94 -66 145q-66 48 -170 45h-192zM459 1466l-88 158l483 315
l156 -272z" />
    <glyph glyph-name="racute" unicode="&#x155;" horiz-adv-x="1273" 
d="M473 483h-104q3 185 75 332q69 141 185 219q110 76 233 76t209 -57q88 -60 133 -174q46 -116 43 -289h-370q3 109 -41 174q-42 63 -123 63q-68 0 -121 -41q-54 -42 -84 -118q-32 -71 -35 -185zM102 0v1071h371v-1071h-371zM475 1163l-88 158l483 315l156 -272z" />
    <glyph glyph-name="uni0156" unicode="&#x156;" horiz-adv-x="1284" 
d="M889 0l-535 657l-8 766h297q180 3 315 -63q132 -65 203 -176q70 -113 70 -248q0 -164 -94 -277q-91 -110 -263 -157l453 -502h-438zM102 0v1423h375v-1423h-375zM424 713h197q109 3 172 57q64 55 61 158q-3 94 -66 145q-66 48 -170 45h-192z" />
    <glyph glyph-name="uni0157" unicode="&#x157;" horiz-adv-x="1273" 
d="M473 483h-104q3 185 75 332q69 141 185 219q110 76 233 76t209 -57q88 -60 133 -174q46 -116 43 -289h-370q3 109 -41 174q-42 63 -123 63q-68 0 -121 -41q-54 -42 -84 -118q-32 -71 -35 -185zM102 0v1071h371v-1071h-371z" />
    <glyph glyph-name="Rcaron" unicode="&#x158;" horiz-adv-x="1284" 
d="M889 0l-535 657l-8 766h297q180 3 315 -63q132 -65 203 -176q70 -113 70 -248q0 -164 -94 -277q-91 -110 -263 -157l453 -502h-438zM102 0v1423h375v-1423h-375zM424 713h197q109 3 172 57q64 55 61 158q-3 94 -66 145q-66 48 -170 45h-192zM508 1473l-350 368h315
l158 -170l174 170h354l-373 -368h-278z" />
    <glyph glyph-name="rcaron" unicode="&#x159;" horiz-adv-x="1273" 
d="M473 483h-104q3 185 75 332q69 141 185 219q110 76 233 76t209 -57q88 -60 133 -174q46 -116 43 -289h-370q3 109 -41 174q-42 63 -123 63q-68 0 -121 -41q-54 -42 -84 -118q-32 -71 -35 -185zM102 0v1071h371v-1071h-371zM500 1194l-350 369h315l158 -170l174 170h354
l-373 -369h-278z" />
    <glyph glyph-name="Sacute" unicode="&#x15a;" horiz-adv-x="1402" 
d="M690 -39q-200 0 -356 72q-155 70 -242 192q-88 119 -94 262h364q15 -94 95 -155q76 -61 202 -70q132 -9 215 35q81 41 87 115q3 65 -64 102q-72 37 -229 51q-298 30 -449 142q-152 112 -149 301q3 128 84 221q81 92 219 145q134 49 297 49q190 0 334 -63
q151 -66 239 -176q90 -116 111 -264l-363 2q-18 87 -104 143q-85 55 -217 55q-70 0 -123 -18q-56 -22 -80 -53q-29 -37 -29 -70q0 -55 47 -82q47 -30 160 -45l37 -4q356 -38 506 -146q150 -111 153 -288q3 -133 -73 -234q-78 -100 -228 -160q-151 -59 -350 -59zM516 1466
l-88 158l483 315l156 -272z" />
    <glyph glyph-name="sacute" unicode="&#x15b;" horiz-adv-x="1323" 
d="M659 -39q-197 0 -331 57q-141 59 -217 152q-77 92 -80 199h352q12 -63 74 -107q56 -42 178 -45q73 -3 135 14q55 16 82 43q27 24 27 54q0 27 -19 49q-23 20 -72 31q-46 11 -145 20q-256 21 -397 111q-140 90 -137 237q0 94 67 170q61 73 189 121q119 43 284 43
q172 0 297 -49q131 -55 201 -139q73 -92 88 -203h-356q-12 61 -72 96q-59 35 -164 35q-62 0 -100 -14q-41 -15 -60 -37t-16 -47q3 -41 49 -62q43 -24 146 -33q228 -21 352 -63q128 -47 180 -111q52 -67 55 -161q3 -96 -65 -179q-66 -80 -201 -131q-131 -51 -324 -51z
M502 1163l-88 158l483 315l156 -272z" />
    <glyph glyph-name="Scircumflex" unicode="&#x15c;" horiz-adv-x="1402" 
d="M690 -39q-200 0 -356 72q-155 70 -242 192q-88 119 -94 262h364q15 -94 95 -155q76 -61 202 -70q132 -9 215 35q81 41 87 115q3 65 -64 102q-72 37 -229 51q-298 30 -449 142q-152 112 -149 301q3 128 84 221q81 92 219 145q134 49 297 49q190 0 334 -63
q151 -66 239 -176q90 -116 111 -264l-363 2q-18 87 -104 143q-85 55 -217 55q-70 0 -123 -18q-56 -22 -80 -53q-29 -37 -29 -70q0 -55 47 -82q47 -30 160 -45l37 -4q356 -38 506 -146q150 -111 153 -288q3 -133 -73 -234q-78 -100 -228 -160q-151 -59 -350 -59zM199 1483
l370 368h277l354 -368h-317l-162 170l-172 -170h-350z" />
    <glyph glyph-name="scircumflex" unicode="&#x15d;" horiz-adv-x="1323" 
d="M659 -39q-197 0 -331 57q-141 59 -217 152q-77 92 -80 199h352q12 -63 74 -107q56 -42 178 -45q73 -3 135 14q55 16 82 43q27 24 27 54q0 27 -19 49q-23 20 -72 31q-46 11 -145 20q-256 21 -397 111q-140 90 -137 237q0 94 67 170q61 73 189 121q119 43 284 43
q172 0 297 -49q131 -55 201 -139q73 -92 88 -203h-356q-12 61 -72 96q-59 35 -164 35q-62 0 -100 -14q-41 -15 -60 -37t-16 -47q3 -41 49 -62q43 -24 146 -33q228 -21 352 -63q128 -47 180 -111q52 -67 55 -161q3 -96 -65 -179q-66 -80 -201 -131q-131 -51 -324 -51z
M141 1204l371 369h276l355 -369h-318l-161 170l-172 -170h-351z" />
    <glyph glyph-name="Scedilla" unicode="&#x15e;" horiz-adv-x="1402" 
d="M268 -541l21 213q193 -22 278 -22q95 0 148 20q53 21 47 66q-3 40 -68 49q-57 5 -157 2h-35l108 287l203 12l-35 -207q108 12 193 -16q80 -26 102 -115q27 -132 -57 -207q-88 -79 -287 -100q-205 -25 -461 18zM690 -39q-200 0 -356 72q-155 70 -242 192q-88 119 -94 262
h364q15 -94 95 -155q76 -61 202 -70q132 -9 215 35q81 41 87 115q3 65 -64 102q-72 37 -229 51q-298 30 -449 142q-152 112 -149 301q3 128 84 221q81 92 219 145q134 49 297 49q190 0 334 -63q151 -66 239 -176q90 -116 111 -264l-363 2q-18 87 -104 143q-85 55 -217 55
q-70 0 -123 -18q-56 -22 -80 -53q-29 -37 -29 -70q0 -55 47 -82q47 -30 160 -45l37 -4q356 -38 506 -146q150 -111 153 -288q3 -133 -73 -234q-78 -100 -228 -160q-151 -59 -350 -59z" />
    <glyph glyph-name="scedilla" unicode="&#x15f;" horiz-adv-x="1323" 
d="M229 -541l21 213q193 -22 278 -22q95 0 148 20q53 21 47 66q-3 40 -68 49q-57 5 -157 2h-35l108 287l203 12l-35 -207q108 12 193 -16q81 -27 100 -115q30 -131 -55 -207q-88 -79 -287 -100q-205 -25 -461 18zM659 -39q-197 0 -331 57q-141 59 -217 152q-77 92 -80 199
h352q12 -63 74 -107q56 -42 178 -45q73 -3 135 14q55 16 82 43q27 24 27 54q0 27 -19 49q-23 20 -72 31q-46 11 -145 20q-256 21 -397 111q-140 90 -137 237q0 94 67 170q61 73 189 121q119 43 284 43q172 0 297 -49q131 -55 201 -139q73 -92 88 -203h-356q-12 61 -72 96
q-59 35 -164 35q-62 0 -100 -14q-41 -15 -60 -37t-16 -47q3 -41 49 -62q43 -24 146 -33q228 -21 352 -63q128 -47 180 -111q52 -67 55 -161q3 -96 -65 -179q-66 -80 -201 -131q-131 -51 -324 -51z" />
    <glyph glyph-name="Scaron" unicode="&#x160;" horiz-adv-x="1402" 
d="M690 -39q-200 0 -356 72q-155 70 -242 192q-88 119 -94 262h364q15 -94 95 -155q76 -61 202 -70q132 -9 215 35q81 41 87 115q3 65 -64 102q-72 37 -229 51q-298 30 -449 142q-152 112 -149 301q3 128 84 221q81 92 219 145q134 49 297 49q190 0 334 -63
q151 -66 239 -176q90 -116 111 -264l-363 2q-18 87 -104 143q-85 55 -217 55q-70 0 -123 -18q-56 -22 -80 -53q-29 -37 -29 -70q0 -55 47 -82q47 -30 160 -45l37 -4q356 -38 506 -146q150 -111 153 -288q3 -133 -73 -234q-78 -100 -228 -160q-151 -59 -350 -59zM565 1473
l-350 368h315l158 -170l174 170h355l-373 -368h-279z" />
    <glyph glyph-name="scaron" unicode="&#x161;" horiz-adv-x="1323" 
d="M659 -39q-197 0 -331 57q-141 59 -217 152q-77 92 -80 199h352q12 -63 74 -107q56 -42 178 -45q73 -3 135 14q55 16 82 43q27 24 27 54q0 27 -19 49q-23 20 -72 31q-46 11 -145 20q-256 21 -397 111q-140 90 -137 237q0 94 67 170q61 73 189 121q119 43 284 43
q172 0 297 -49q131 -55 201 -139q73 -92 88 -203h-356q-12 61 -72 96q-59 35 -164 35q-62 0 -100 -14q-41 -15 -60 -37t-16 -47q3 -41 49 -62q43 -24 146 -33q228 -21 352 -63q128 -47 180 -111q52 -67 55 -161q3 -96 -65 -179q-66 -80 -201 -131q-131 -51 -324 -51z
M526 1194l-350 369h316l157 -170l174 170h355l-373 -369h-279z" />
    <glyph glyph-name="uni0162" unicode="&#x162;" horiz-adv-x="1222" 
d="M434 0v1135h-454v288h1284v-288h-455v-1135h-375z" />
    <glyph glyph-name="uni0163" unicode="&#x163;" horiz-adv-x="1060" 
d="M340 0v803h-336v268h336v359h379v-359h354v-268h-354v-803h-379z" />
    <glyph glyph-name="Tcaron" unicode="&#x164;" horiz-adv-x="1222" 
d="M434 0v1135h-454v288h1284v-288h-455v-1135h-375zM477 1473l-350 368h315l158 -170l174 170h354l-372 -368h-279z" />
    <glyph glyph-name="tcaron" unicode="&#x165;" horiz-adv-x="1060" 
d="M340 0v803h-336v268h336v359h379v-359h354v-268h-354v-803h-379zM74 1796h299l149 -149l166 149h338l-354 -321h-266z" />
    <glyph glyph-name="Tbar" unicode="&#x166;" horiz-adv-x="1222" 
d="M434 0v575h-237v287h237v273h-454v288h1284v-288h-455v-273h250v-287h-250v-575h-375z" />
    <glyph glyph-name="tbar" unicode="&#x167;" horiz-adv-x="1060" 
d="M100 367v286h240v150h-336v268h336v359h379v-359h354v-268h-354v-150h244v-286h-244v-367h-379v367h-240z" />
    <glyph glyph-name="Utilde" unicode="&#x168;" horiz-adv-x="1536" 
d="M760 -39q-317 0 -498 172q-182 173 -182 531v759h371v-741q0 -204 84 -291q82 -88 231 -88q158 0 240 94q81 90 81 285v741h381v-764q0 -219 -82 -374q-84 -158 -241 -240q-162 -84 -385 -84zM553 1475h-254q-21 128 8 215q27 88 96 139q68 47 162 47q71 0 117 -21
q47 -21 100 -59q22 -17 54 -33q21 -12 45 -12q60 0 86 33q24 35 16 84h254q21 -122 -14 -211q-37 -89 -111 -135q-74 -47 -168 -47q-72 0 -113 20q-45 19 -92 57q-34 28 -51 37q-23 10 -49 10q-55 0 -74 -32q-21 -34 -12 -92z" />
    <glyph glyph-name="utilde" unicode="&#x169;" 
d="M530 -39q-205 0 -315 125q-111 126 -111 358v627h373v-594q0 -106 53 -168q51 -63 154 -63q90 0 158 45q67 44 112 129q40 82 43 192l107 -41q-3 -176 -80 -315q-78 -140 -207 -217q-135 -78 -287 -78zM997 0v1071h373v-1071h-373zM539 1196h-254q-21 128 8 215
q27 88 96 139q68 47 162 47q73 0 117 -20q47 -21 100 -59q23 -18 53 -33q21 -12 45 -12q61 0 86 32q25 36 17 84h254q20 -120 -15 -211q-38 -89 -110 -135q-74 -47 -168 -47q-70 0 -113 21q-45 19 -92 57q-34 28 -51 37q-23 10 -49 10q-54 0 -74 -33q-21 -34 -12 -92z" />
    <glyph glyph-name="Umacron" unicode="&#x16a;" horiz-adv-x="1536" 
d="M760 -39q-317 0 -498 172q-182 173 -182 531v759h371v-741q0 -204 84 -291q82 -88 231 -88q158 0 240 94q81 90 81 285v741h381v-764q0 -219 -82 -374q-84 -158 -241 -240q-162 -84 -385 -84zM336 1522v286h862v-286h-862z" />
    <glyph glyph-name="umacron" unicode="&#x16b;" 
d="M530 -39q-205 0 -315 125q-111 126 -111 358v627h373v-594q0 -106 53 -168q51 -63 154 -63q90 0 158 45q67 44 112 129q40 82 43 192l107 -41q-3 -176 -80 -315q-78 -140 -207 -217q-135 -78 -287 -78zM997 0v1071h373v-1071h-373zM301 1243v287h862v-287h-862z" />
    <glyph glyph-name="Ubreve" unicode="&#x16c;" horiz-adv-x="1536" 
d="M760 -39q-317 0 -498 172q-182 173 -182 531v759h371v-741q0 -204 84 -291q82 -88 231 -88q158 0 240 94q81 90 81 285v741h381v-764q0 -219 -82 -374q-84 -158 -241 -240q-162 -84 -385 -84zM766 1485q-122 0 -201 39q-85 37 -131 104q-45 65 -45 150h221q-3 -54 33 -80
q39 -31 123 -31q77 0 119 31q38 27 35 80h223q3 -85 -41 -150q-43 -66 -129 -104q-82 -39 -207 -39z" />
    <glyph glyph-name="ubreve" unicode="&#x16d;" 
d="M530 -39q-205 0 -315 125q-111 126 -111 358v627h373v-594q0 -106 53 -168q51 -63 154 -63q90 0 158 45q67 44 112 129q40 82 43 192l107 -41q-3 -176 -80 -315q-78 -140 -207 -217q-135 -78 -287 -78zM997 0v1071h373v-1071h-373zM733 1206q-122 0 -201 39
q-84 37 -131 105q-45 65 -45 149h222q-3 -55 32 -80q38 -30 123 -30q79 0 119 30q38 27 35 80h223q3 -84 -41 -149q-43 -68 -129 -105q-82 -39 -207 -39z" />
    <glyph glyph-name="Uring" unicode="&#x16e;" horiz-adv-x="1536" 
d="M760 -39q-317 0 -498 172q-182 173 -182 531v759h371v-741q0 -204 84 -291q82 -88 231 -88q158 0 240 94q81 90 81 285v741h381v-764q0 -219 -82 -374q-84 -158 -241 -240q-162 -84 -385 -84zM768 1468q-94 0 -168 41q-77 41 -117 107q-41 65 -41 147q0 79 41 150
q41 68 113 108q71 39 168 39q103 0 178 -37q77 -39 115 -100q38 -60 41 -143q3 -84 -37 -154q-41 -72 -117 -115t-176 -43zM768 1651q55 0 80 32q29 32 26 80q0 49 -26 82t-80 33q-50 0 -78 -31q-28 -36 -28 -82q-3 -50 26 -82q25 -32 80 -32z" />
    <glyph glyph-name="uring" unicode="&#x16f;" 
d="M530 -39q-205 0 -315 125q-111 126 -111 358v627h373v-594q0 -106 53 -168q51 -63 154 -63q90 0 158 45q67 44 112 129q40 82 43 192l107 -41q-3 -176 -80 -315q-78 -140 -207 -217q-135 -78 -287 -78zM997 0v1071h373v-1071h-373zM729 1190q-94 0 -168 41
q-78 41 -117 106q-41 65 -41 148q0 78 41 149q42 70 113 109t168 39q103 0 178 -37q77 -39 115 -100q38 -60 41 -144q3 -83 -37 -153q-41 -72 -117 -115t-176 -43zM729 1372q54 0 80 33q30 33 27 80q0 47 -27 82q-25 32 -80 32q-51 0 -78 -30q-28 -36 -28 -82q-3 -50 26 -82
q26 -33 80 -33z" />
    <glyph glyph-name="Uhungarumlaut" unicode="&#x170;" horiz-adv-x="1536" 
d="M760 -39q-317 0 -498 172q-182 173 -182 531v759h371v-741q0 -204 84 -291q82 -88 231 -88q158 0 240 94q81 90 81 285v741h381v-764q0 -219 -82 -374q-84 -158 -241 -240q-162 -84 -385 -84zM879 1460l-78 158l4 2l-416 -160l-78 158l455 313l131 -248l358 248l144 -270
z" />
    <glyph glyph-name="uhungarumlaut" unicode="&#x171;" 
d="M530 -39q-205 0 -315 125q-111 126 -111 358v627h373v-594q0 -106 53 -168q51 -63 154 -63q90 0 158 45q67 44 112 129q40 82 43 192l107 -41q-3 -176 -80 -315q-78 -140 -207 -217q-135 -78 -287 -78zM997 0v1071h373v-1071h-373zM840 1182l-78 157l4 2l-416 -159
l-78 157l455 314l131 -248l359 248l143 -271z" />
    <glyph glyph-name="Uogonek" unicode="&#x172;" horiz-adv-x="1536" 
d="M1083 -338l129 -235q-310 -65 -485 -31q-180 35 -219 151q-27 73 8 160q36 86 146 180q106 92 299 199q71 9 96 -16q27 -27 24 -72q-140 -75 -231 -162q-87 -83 -49 -145q28 -42 106 -45q85 -3 176 16zM760 -39q-317 0 -498 172q-182 173 -182 531v759h371v-741
q0 -204 84 -291q82 -88 231 -88q158 0 240 94q81 90 81 285v741h381v-764q0 -219 -82 -374q-84 -158 -241 -240q-162 -84 -385 -84z" />
    <glyph glyph-name="uogonek" unicode="&#x173;" 
d="M1346 -338l131 -235q-313 -65 -488 -31q-180 35 -219 151q-27 73 8 160q36 86 146 180q107 94 301 199q68 10 94 -16q30 -30 27 -72q-144 -75 -234 -162q-87 -84 -47 -145q25 -42 104 -45q86 -3 177 16zM530 -39q-205 0 -315 125q-111 126 -111 358v627h373v-594
q0 -106 53 -168q51 -63 154 -63q90 0 158 45q67 44 112 129q40 82 43 192l107 -41q-3 -176 -80 -315q-78 -140 -207 -217q-135 -78 -287 -78zM997 0v1071h373v-1071h-373z" />
    <glyph glyph-name="Wcircumflex" unicode="&#x174;" horiz-adv-x="1896" 
d="M1174 0l-216 885l-206 -885h-488l-284 1423h378l172 -1040l238 1040h360l238 -1034l190 1034h396l-320 -1423h-458zM446 1483l371 368h277l354 -368h-318l-161 170l-172 -170h-351z" />
    <glyph glyph-name="wcircumflex" unicode="&#x175;" horiz-adv-x="1986" 
d="M1190 0l-209 606l-213 -606h-424l-321 1071h378l174 -702l234 702h369l229 -682l201 682h387l-371 -1071h-434zM473 1204l371 369h276l355 -369h-318l-162 170l-172 -170h-350z" />
    <glyph glyph-name="Ycircumflex" unicode="&#x176;" horiz-adv-x="1083" 
d="M346 0v422l-473 1001h385l274 -653l308 653h399l-512 -968l-2 -455h-379zM39 1483l371 368h276l354 -368h-317l-162 170l-172 -170h-350z" />
    <glyph glyph-name="ycircumflex" unicode="&#x177;" 
d="M530 -39q-205 0 -315 125q-111 126 -111 358v627h373v-594q0 -106 53 -168q51 -63 154 -63q90 0 158 45q67 44 112 129q40 82 43 192l107 -41q-3 -176 -80 -315q-78 -140 -207 -217q-135 -78 -287 -78zM997 -457v1528h373v-1528h-373zM211 1204l371 369h276l354 -369
h-317l-162 170l-172 -170h-350z" />
    <glyph glyph-name="Ydieresis" unicode="&#x178;" horiz-adv-x="1083" 
d="M346 0v422l-473 1001h385l274 -653l308 653h399l-512 -968l-2 -455h-379zM813 1485q-96 0 -156 57q-61 55 -61 137q0 80 61 138q57 57 154 57q93 0 156 -57t63 -140q0 -80 -61 -135q-60 -57 -156 -57zM268 1485q-98 0 -155 57q-62 56 -62 137q0 78 60 138q57 57 151 57
q95 0 158 -57q61 -58 61 -140q0 -79 -59 -135q-60 -57 -154 -57z" />
    <glyph glyph-name="Zacute" unicode="&#x179;" horiz-adv-x="1370" 
d="M-43 0l805 1133h-742v290h1364l-825 -1136h793v-287h-1395zM502 1466l-88 158l483 315l156 -272z" />
    <glyph glyph-name="zacute" unicode="&#x17a;" horiz-adv-x="1177" 
d="M-2 0l588 788h-563v283h1167l-612 -792h589v-279h-1169zM428 1163l-88 158l483 315l156 -272z" />
    <glyph glyph-name="Zdotaccent" unicode="&#x17b;" horiz-adv-x="1370" 
d="M-43 0l805 1133h-742v290h1364l-825 -1136h793v-287h-1395zM686 1501q-93 0 -154 55t-61 138q0 80 59 139q58 55 152 55t158 -55q61 -58 61 -139q0 -82 -59 -138q-61 -55 -156 -55z" />
    <glyph glyph-name="zdotaccent" unicode="&#x17c;" horiz-adv-x="1177" 
d="M-2 0l588 788h-563v283h1167l-612 -792h589v-279h-1169zM588 1223q-93 0 -154 55t-61 137q0 80 59 139q59 56 152 56q92 0 157 -56q62 -59 62 -139t-60 -137q-61 -55 -155 -55z" />
    <glyph glyph-name="Zcaron" unicode="&#x17d;" horiz-adv-x="1370" 
d="M-43 0l805 1133h-742v290h1364l-825 -1136h793v-287h-1395zM551 1473l-350 368h315l158 -170l174 170h354l-373 -368h-278z" />
    <glyph glyph-name="zcaron" unicode="&#x17e;" horiz-adv-x="1177" 
d="M-2 0l588 788h-563v283h1167l-612 -792h589v-279h-1169zM455 1194l-351 369h316l158 -170l174 170h354l-373 -369h-278z" />
    <glyph glyph-name="longs" unicode="&#x17f;" horiz-adv-x="1095" 
d="M295 0v1024q0 144 67 260q69 117 187 180q119 64 264 64h139l-2 -289h-30q-118 0 -185 -49q-67 -52 -67 -154v-1036h-373z" />
    <glyph glyph-name="uni0189" unicode="&#x189;" horiz-adv-x="1380" 
d="M14 586v272h707v-272h-707zM162 0l76 1423h442q192 0 338 -96q148 -102 225 -260q78 -167 78 -356q0 -177 -78 -344q-75 -161 -225 -265q-147 -102 -346 -102h-510zM106 0v1423h377v-1423h-377zM344 295h295q94 0 166 57q74 56 117 156q42 96 39 223q-6 189 -91 297
q-85 105 -225 105h-321z" />
    <glyph glyph-name="florin" unicode="&#x192;" horiz-adv-x="1136" 
d="M311 -457v1481q0 144 70 260q73 118 188 180q119 64 265 64h137v-289h-31q-119 0 -186 -49q-70 -52 -70 -154v-1493h-373zM12 707v268h1082v-268h-1082z" />
    <glyph glyph-name="uni01C4" unicode="&#x1c4;" horiz-adv-x="2750" 
d="M162 0l76 1423h442q192 0 338 -96q148 -102 225 -260q78 -167 78 -356q0 -177 -78 -344q-75 -161 -225 -265q-147 -102 -346 -102h-510zM106 0v1423h377v-1423h-377zM344 295h295q94 0 166 57q74 56 117 156q42 96 39 223q-6 189 -91 297q-85 105 -225 105h-321zM1337 0
l805 1133h-741v290h1364l-826 -1136h793v-287h-1395zM1931 1473l-350 368h315l158 -170l174 170h355l-373 -368h-279z" />
    <glyph glyph-name="uni01C5" unicode="&#x1c5;" horiz-adv-x="2557" 
d="M162 0l76 1423h442q192 0 338 -96q148 -102 225 -260q78 -167 78 -356q0 -177 -78 -344q-75 -161 -225 -265q-147 -102 -346 -102h-510zM106 0v1423h377v-1423h-377zM344 295h295q94 0 166 57q74 56 117 156q42 96 39 223q-6 189 -91 297q-85 105 -225 105h-321zM1378 0
l588 788h-563v283h1167l-612 -792h590v-279h-1170zM1802 1137l-350 368h315l158 -170l174 170h355l-373 -368h-279z" />
    <glyph glyph-name="uni01C6" unicode="&#x1c6;" horiz-adv-x="2613" 
d="M569 -39q-147 0 -260 76q-117 73 -182 207q-66 135 -66 293q0 153 72 288q71 132 197 209q122 76 268 76q147 0 260 -76q114 -77 178 -207q64 -131 64 -290q-3 -156 -74 -289t-190 -209q-122 -78 -267 -78zM686 217q78 0 148 43q67 38 112 115q42 68 45 162q0 90 -37 163
q-39 77 -100 115q-65 41 -145 41q-84 0 -152 -41q-67 -43 -108 -117t-41 -163q0 -94 36 -162q39 -76 101 -115q65 -41 141 -41zM991 0l-2 1528h371l2 -1528h-371zM1436 0l587 788h-563v283h1168l-613 -792h590v-279h-1169zM1911 1143l-350 368h315l158 -170l174 170h354
l-373 -368h-278z" />
    <glyph glyph-name="uni01C7" unicode="&#x1c7;" horiz-adv-x="2580" 
d="M94 0v1423h373v-1108h688v-315h-1061zM1788 -39q-208 0 -342 90q-133 89 -189 244q-55 149 -34 338h354q-9 -103 14 -174q24 -77 82 -117q59 -41 142 -41q145 0 221 102q75 100 75 306v714h388v-725q0 -228 -82 -393t-242 -254q-166 -90 -387 -90z" />
    <glyph glyph-name="uni01C8" unicode="&#x1c8;" horiz-adv-x="1769" 
d="M94 0v1423h373v-1108h688v-315h-1061zM979 -457v289h41q123 0 190 64q66 63 66 180v995h371v-983q0 -165 -62 -289q-61 -125 -176 -190q-120 -66 -270 -66h-160zM1456 1196q-73 0 -133 31q-60 29 -96 84q-37 52 -37 110q0 61 37 113q31 48 96 84q60 31 133 31
q69 0 133 -31q64 -38 97 -84q34 -52 34 -113q0 -58 -34 -110q-39 -54 -97 -84q-64 -31 -133 -31z" />
    <glyph glyph-name="uni01C9" unicode="&#x1c9;" horiz-adv-x="1191" 
d="M102 0v1528h371v-1528h-371zM399 -457v289h41q124 0 191 64q65 62 65 180v995h371v-983q0 -167 -61 -289q-61 -124 -177 -190q-120 -66 -270 -66h-160zM877 1196q-74 0 -134 31q-60 29 -96 84q-37 52 -37 110q0 61 37 113q31 48 96 84q60 31 134 31q69 0 133 -31
q62 -37 96 -84q35 -53 35 -113q0 -57 -35 -110q-39 -55 -96 -84q-64 -31 -133 -31z" />
    <glyph glyph-name="uni01CA" unicode="&#x1ca;" horiz-adv-x="2953" 
d="M1067 0l-602 879v-879h-359v1423h359l612 -888v888h359v-1423h-369zM2161 -39q-208 0 -342 90q-133 89 -189 244q-56 151 -35 338h355q-9 -103 14 -174q24 -77 82 -117q59 -41 141 -41q145 0 221 102q76 101 76 306v714h387v-725q0 -228 -82 -393q-82 -166 -241 -254
q-166 -90 -387 -90z" />
    <glyph glyph-name="uni01CB" unicode="&#x1cb;" horiz-adv-x="2144" 
d="M1067 0l-602 879v-879h-359v1423h359l612 -888v888h359v-1423h-369zM1352 -457v289h41q123 0 190 64q66 63 66 180v995h370v-983q0 -167 -61 -289q-61 -125 -176 -190q-120 -66 -271 -66h-159zM1829 1196q-73 0 -133 31q-62 30 -97 84q-36 50 -36 110q0 63 36 113
q31 47 97 84q60 31 133 31q69 0 133 -31q62 -37 96 -84q35 -53 35 -113q0 -57 -35 -110q-39 -55 -96 -84q-64 -31 -133 -31z" />
    <glyph glyph-name="uni01CC" unicode="&#x1cc;" horiz-adv-x="2066" 
d="M995 0v594q0 105 -53 170q-51 63 -156 63q-85 0 -153 -45q-73 -48 -113 -129q-42 -79 -45 -194l-106 41q3 172 82 315q78 141 206 217q132 78 283 78q207 0 320 -125q110 -125 110 -358v-627h-375zM104 0v1071h371v-1071h-371zM1274 -457v289h41q123 0 190 64
q66 63 66 180v995h371v-983q0 -165 -62 -289q-61 -125 -176 -190q-120 -66 -270 -66h-160zM1751 1196q-73 0 -133 31q-60 29 -96 84q-37 52 -37 110q0 61 37 113q31 48 96 84q60 31 133 31q69 0 133 -31q62 -37 96 -84q35 -53 35 -113q0 -57 -35 -110q-39 -55 -96 -84
q-64 -31 -133 -31z" />
    <glyph glyph-name="uni01CD" unicode="&#x1cd;" horiz-adv-x="1480" 
d="M20 0l474 1423h499l465 -1423h-383l-92 283h-477l-84 -283h-402zM575 551h324l-166 498zM592 1473l-350 368h315l158 -170l174 170h354l-373 -368h-278z" />
    <glyph glyph-name="uni01CE" unicode="&#x1ce;" horiz-adv-x="1445" 
d="M569 -39q-147 0 -260 76q-117 73 -182 207q-66 135 -66 293q0 153 72 288q71 132 197 209q122 76 268 76q147 0 260 -76q114 -77 178 -207q64 -131 64 -290q-3 -156 -74 -289t-190 -209q-122 -78 -267 -78zM686 217q78 0 148 43q67 38 112 115q42 68 45 162q0 90 -37 163
q-39 77 -100 115q-65 41 -145 41q-84 0 -152 -41q-67 -43 -108 -117t-41 -163q0 -94 36 -162q39 -76 101 -115q65 -41 141 -41zM991 0l-2 1071h371l2 -1071h-371zM586 1194l-350 369h315l158 -170l174 170h354l-373 -369h-278z" />
    <glyph glyph-name="uni01CF" unicode="&#x1cf;" horiz-adv-x="614" 
d="M127 0v1423h371v-1423h-371zM172 1473l-350 368h315l158 -170l174 170h354l-372 -368h-279z" />
    <glyph glyph-name="uni01D0" unicode="&#x1d0;" horiz-adv-x="581" 
d="M102 0v1071h375v-1071h-375zM156 1194l-351 369h316l158 -170l174 170h354l-373 -369h-278z" />
    <glyph glyph-name="uni01D1" unicode="&#x1d1;" horiz-adv-x="1572" 
d="M762 -39q-221 0 -387 96q-167 97 -248 260q-85 166 -82 373q3 193 96 365q87 164 260 268q166 100 392 100q221 0 387 -96q164 -95 250 -262q84 -172 81 -375q-3 -200 -100 -371q-95 -168 -264 -262q-172 -96 -385 -96zM768 285q111 0 193 55q83 56 129 149q46 90 49 201
q3 116 -37 207q-44 91 -123 147q-85 54 -193 54q-107 0 -190 -56q-83 -59 -129 -149q-46 -93 -49 -203q-6 -119 37 -207q41 -93 123 -145q80 -53 190 -53zM653 1473l-350 368h315l158 -170l174 170h355l-373 -368h-279z" />
    <glyph glyph-name="uni01D2" unicode="&#x1d2;" horiz-adv-x="1404" 
d="M700 -39q-184 0 -331 78q-147 77 -230 209q-85 136 -82 289q3 159 88 290q80 129 234 207q146 76 332 76q194 0 340 -76q147 -78 225 -205q80 -133 80 -290q-3 -158 -86 -291q-85 -132 -234 -209q-153 -78 -336 -78zM696 244q88 0 156 39q66 40 106 106q39 62 39 148
q3 86 -30 151q-33 63 -101 105q-62 36 -153 36t-154 -38q-66 -38 -108 -105q-40 -67 -43 -147q-3 -83 34 -150q33 -64 103 -106q62 -39 151 -39zM567 1194l-350 369h315l158 -170l174 170h355l-373 -369h-279z" />
    <glyph glyph-name="uni01D3" unicode="&#x1d3;" horiz-adv-x="1536" 
d="M760 -39q-317 0 -498 172q-182 173 -182 531v759h371v-741q0 -204 84 -291q82 -88 231 -88q158 0 240 94q81 90 81 285v741h381v-764q0 -219 -82 -374q-84 -158 -241 -240q-162 -84 -385 -84zM633 1473l-350 368h315l158 -170l174 170h354l-373 -368h-278z" />
    <glyph glyph-name="uni01D4" unicode="&#x1d4;" 
d="M530 -39q-205 0 -315 125q-111 126 -111 358v627h373v-594q0 -106 53 -168q51 -63 154 -63q90 0 158 45q67 44 112 129q40 82 43 192l107 -41q-3 -176 -80 -315q-78 -140 -207 -217q-135 -78 -287 -78zM997 0v1071h373v-1071h-373zM596 1194l-350 369h315l158 -170
l174 170h354l-373 -369h-278z" />
    <glyph glyph-name="uni01D5" unicode="&#x1d5;" horiz-adv-x="1536" 
d="M760 -39q-317 0 -498 172q-182 173 -182 531v759h371v-741q0 -204 84 -291q82 -88 231 -88q158 0 240 94q81 90 81 285v741h381v-764q0 -219 -82 -374q-84 -158 -241 -240q-162 -84 -385 -84zM1040 1485q-95 0 -155 57q-62 56 -62 137q0 79 62 138q58 58 153 55
q92 3 156 -55q63 -57 63 -140q0 -80 -61 -135q-60 -57 -156 -57zM496 1485q-99 0 -156 57q-61 55 -61 137q0 79 59 138q58 58 151 55q94 3 158 -55q61 -58 64 -140q-3 -79 -62 -135q-60 -57 -153 -57zM334 1921v223h862v-223h-862z" />
    <glyph glyph-name="uni01D6" unicode="&#x1d6;" 
d="M530 -39q-205 0 -315 125q-111 126 -111 358v627h373v-594q0 -106 53 -168q51 -63 154 -63q90 0 158 45q67 44 112 129q40 82 43 192l107 -41q-3 -176 -80 -315q-78 -140 -207 -217q-135 -78 -287 -78zM997 0v1071h373v-1071h-373zM1004 1192q-96 0 -156 57
q-62 56 -62 137q0 79 62 138q57 57 153 57q93 0 156 -57q64 -58 64 -140q0 -79 -62 -135q-60 -57 -155 -57zM459 1192q-99 0 -156 57q-61 55 -61 137q0 79 59 138q57 57 152 57q94 0 157 -57q62 -59 62 -140q0 -78 -60 -135t-153 -57zM301 1679v287h862v-287h-862z" />
    <glyph glyph-name="uni01D7" unicode="&#x1d7;" horiz-adv-x="1536" 
d="M760 -39q-316 0 -498 170t-182 522v746h371v-729q0 -201 84 -285q83 -86 231 -86q157 0 240 92q81 87 81 279v729h381v-750q0 -216 -82 -368q-82 -156 -241 -238q-158 -82 -385 -82zM1040 1460q-93 0 -155 56t-62 135q0 76 62 135q58 55 153 55q92 0 156 -55
q63 -57 63 -137q0 -78 -61 -133q-62 -56 -156 -56zM496 1460q-97 0 -156 56q-61 55 -61 135q0 76 59 135q58 55 151 55q94 0 158 -55q61 -58 64 -137q-3 -77 -62 -133q-62 -56 -153 -56zM616 1778l-88 149l484 297l155 -256z" />
    <glyph glyph-name="uni01D8" unicode="&#x1d8;" 
d="M530 -39q-205 0 -315 125q-111 126 -111 358v627h373v-594q0 -106 53 -168q51 -63 154 -63q90 0 158 45q67 44 112 129q40 82 43 192l107 -41q-3 -176 -80 -315q-78 -140 -207 -217q-135 -78 -287 -78zM997 0v1071h373v-1071h-373zM1004 1192q-96 0 -156 57
q-62 56 -62 137q0 79 62 138q57 57 153 57q93 0 156 -57q64 -58 64 -140q0 -79 -62 -135q-60 -57 -155 -57zM459 1192q-99 0 -156 57q-61 55 -61 137q0 79 59 138q57 57 152 57q94 0 157 -57q62 -59 62 -140q0 -78 -60 -135t-153 -57zM500 1599l-88 158l483 316l156 -273z
" />
    <glyph glyph-name="uni01D9" unicode="&#x1d9;" horiz-adv-x="1536" 
d="M760 -39q-317 0 -498 172q-182 173 -182 531v759h371v-741q0 -204 84 -291q82 -88 231 -88q158 0 240 94q81 90 81 285v741h381v-764q0 -219 -82 -374q-84 -158 -241 -240q-162 -84 -385 -84zM1040 1485q-95 0 -155 57q-62 56 -62 137q0 79 62 138q58 58 153 55
q92 3 156 -55q63 -57 63 -140q0 -80 -61 -135q-60 -57 -156 -57zM496 1485q-99 0 -156 57q-61 55 -61 137q0 79 59 138q58 58 151 55q94 3 158 -55q61 -58 64 -140q-3 -79 -62 -135q-60 -57 -153 -57zM633 1794l-350 369h315l158 -170l174 170h354l-373 -369h-278z" />
    <glyph glyph-name="uni01DA" unicode="&#x1da;" 
d="M530 -39q-205 0 -315 125q-111 126 -111 358v627h373v-594q0 -106 53 -168q51 -63 154 -63q90 0 158 45q67 44 112 129q40 82 43 192l107 -41q-3 -176 -80 -315q-78 -140 -207 -217q-135 -78 -287 -78zM997 0v1071h373v-1071h-373zM1004 1192q-96 0 -156 57
q-62 56 -62 137q0 79 62 138q57 57 153 57q93 0 156 -57q64 -58 64 -140q0 -79 -62 -135q-60 -57 -155 -57zM459 1192q-99 0 -156 57q-61 55 -61 137q0 79 59 138q57 57 152 57q94 0 157 -57q62 -59 62 -140q0 -78 -60 -135t-153 -57zM582 1630l-351 369h316l158 -170
l174 170h354l-373 -369h-278z" />
    <glyph glyph-name="uni01DB" unicode="&#x1db;" horiz-adv-x="1536" 
d="M760 -39q-317 0 -498 172q-182 173 -182 531v759h371v-741q0 -204 84 -291q82 -88 231 -88q158 0 240 94q81 90 81 285v741h381v-764q0 -219 -82 -374q-84 -158 -241 -240q-162 -84 -385 -84zM1040 1485q-95 0 -155 57q-62 56 -62 137q0 79 62 138q58 58 153 55
q92 3 156 -55q63 -57 63 -140q0 -80 -61 -135q-60 -57 -156 -57zM496 1485q-99 0 -156 57q-61 55 -61 137q0 79 59 138q58 58 151 55q94 3 158 -55q61 -58 64 -140q-3 -79 -62 -135q-60 -57 -153 -57zM934 1845l-563 195l155 221l482 -297z" />
    <glyph glyph-name="uni01DC" unicode="&#x1dc;" 
d="M530 -39q-205 0 -315 125q-111 126 -111 358v627h373v-594q0 -106 53 -168q51 -63 154 -63q90 0 158 45q67 44 112 129q40 82 43 192l107 -41q-3 -176 -80 -315q-78 -140 -207 -217q-135 -78 -287 -78zM997 0v1071h373v-1071h-373zM1004 1192q-96 0 -156 57
q-62 56 -62 137q0 79 62 138q57 57 153 57q93 0 156 -57q64 -58 64 -140q0 -79 -62 -135q-60 -57 -155 -57zM459 1192q-99 0 -156 57q-61 55 -61 137q0 79 59 138q57 57 152 57q94 0 157 -57q62 -59 62 -140q0 -78 -60 -135t-153 -57zM977 1614l-563 237l155 267l482 -361z
" />
    <glyph glyph-name="uni01DE" unicode="&#x1de;" horiz-adv-x="1480" 
d="M20 0l474 1423h499l465 -1423h-383l-92 283h-477l-84 -283h-402zM575 551h324l-166 498zM1014 1487q-95 -3 -156 55q-61 55 -61 137q0 80 61 138q57 57 154 57q92 0 155 -57q64 -58 64 -138q0 -81 -62 -137q-61 -58 -155 -55zM469 1487q-98 -3 -156 55q-61 55 -61 137
q0 79 59 138q57 57 152 57t158 -57q60 -57 63 -138q-3 -82 -61 -137q-61 -58 -154 -55zM301 1911v221h862v-221h-862z" />
    <glyph glyph-name="uni01DF" unicode="&#x1df;" horiz-adv-x="1445" 
d="M569 -39q-147 0 -260 76q-117 73 -182 207q-66 135 -66 293q0 153 72 288q71 132 197 209q122 76 268 76q147 0 260 -76q114 -77 178 -207q64 -131 64 -290q-3 -156 -74 -289t-190 -209q-122 -78 -267 -78zM686 217q78 0 148 43q67 38 112 115q42 68 45 162q0 90 -37 163
q-39 77 -100 115q-65 41 -145 41q-84 0 -152 -41q-67 -43 -108 -117t-41 -163q0 -94 36 -162q39 -76 101 -115q65 -41 141 -41zM991 0l-2 1071h371l2 -1071h-371zM995 1192q-95 0 -155 57q-62 56 -62 137q0 79 62 138q57 57 153 57q93 0 156 -57t63 -140q0 -80 -61 -135
q-60 -57 -156 -57zM451 1192q-99 0 -156 57q-62 56 -62 137q0 78 60 138q57 57 151 57q95 0 158 -57q62 -59 62 -140q0 -78 -60 -135t-153 -57zM293 1679v287h862v-287h-862z" />
    <glyph glyph-name="uni01E0" unicode="&#x1e0;" horiz-adv-x="1480" 
d="M20 0l474 1423h499l465 -1423h-383l-92 283h-477l-84 -283h-402zM575 551h324l-166 498zM743 1501q-94 0 -155 55q-62 56 -62 138q0 79 60 139q58 55 151 55q94 0 158 -55q61 -58 61 -139q0 -82 -59 -138q-61 -55 -154 -55zM309 1921v213h862v-213h-862z" />
    <glyph glyph-name="uni01E1" unicode="&#x1e1;" horiz-adv-x="1445" 
d="M569 -39q-147 0 -260 76q-117 73 -182 207q-66 135 -66 293q0 153 72 288q71 132 197 209q122 76 268 76q147 0 260 -76q114 -77 178 -207q64 -131 64 -290q-3 -156 -74 -289t-190 -209q-122 -78 -267 -78zM686 217q78 0 148 43q67 38 112 115q42 68 45 162q0 90 -37 163
q-39 77 -100 115q-65 41 -145 41q-84 0 -152 -41q-67 -43 -108 -117t-41 -163q0 -94 36 -162q39 -76 101 -115q65 -41 141 -41zM991 0l-2 1071h371l2 -1071h-371zM721 1223q-93 0 -154 55t-61 137q0 80 59 139q59 56 152 56q92 0 157 -56q62 -59 62 -139q0 -81 -59 -137
q-61 -55 -156 -55zM291 1708v287h862v-287h-862z" />
    <glyph glyph-name="uni01E2" unicode="&#x1e2;" horiz-adv-x="1898" 
d="M18 0l684 1423h1094v-286h-530v-285h446v-291h-446v-272h567v-289h-938v283h-348l-133 -283h-396zM666 551h229v477zM653 1522v286h863v-286h-863z" />
    <glyph glyph-name="uni01E3" unicode="&#x1e3;" horiz-adv-x="2148" 
d="M1481 -39q-181 0 -314 74q-132 73 -202 205q-71 130 -68 297q3 153 74 286q72 135 200 209q132 78 304 78q190 0 329 -80q135 -79 205 -211q67 -131 64 -284q0 -24 -11 -99h-843q9 -91 81 -145q70 -58 191 -58q73 0 143 31q67 31 107 80l264 -156q-92 -102 -227 -165
q-133 -62 -297 -62zM586 227q113 0 190 56q74 54 96 151h-323q-104 0 -143 -51q-41 -53 8 -104q49 -52 172 -52zM504 -39q-277 0 -387 168q-113 165 -8 334q102 166 368 166h402q0 84 -62 137q-60 51 -180 51q-85 0 -145 -31q-54 -28 -91 -90l-301 129q64 124 207 205
q139 80 352 80q184 0 310 -66q120 -68 178 -186q57 -117 51 -278l-55 -97q-3 -148 -88 -272q-81 -118 -228 -184t-323 -66zM1227 635h491q-3 55 -30 102q-30 51 -78 76q-52 27 -123 27q-105 0 -170 -56q-70 -57 -90 -149zM643 1169v287h862v-287h-862z" />
    <glyph glyph-name="Gcaron" unicode="&#x1e6;" horiz-adv-x="1527" 
d="M762 -39q-223 0 -385 98q-164 95 -250 265q-85 168 -82 376q3 185 96 357q90 164 260 266q166 100 392 100q191 0 331 -82q139 -81 224 -211q80 -127 98 -256h-356q-9 53 -50 107q-38 47 -104 82q-62 33 -156 33q-106 0 -188 -52q-78 -50 -127 -143q-48 -91 -51 -201
q-3 -122 39 -213q44 -95 122 -147q80 -53 189 -53q92 0 166 39q76 40 125 110q46 69 61 162l357 -6q-17 -155 -109 -305q-90 -147 -244 -236q-159 -90 -358 -90zM748 520v230h725v-158l-154 -72h-571zM631 1473l-350 368h315l158 -170l174 170h354l-373 -368h-278z" />
    <glyph glyph-name="gcaron" unicode="&#x1e7;" horiz-adv-x="1425" 
d="M756 -588q-185 0 -330 80q-147 80 -233 227l299 136q50 -71 112 -107q65 -38 131 -35q116 0 174 76q59 77 62 201v1081h366v-1040q0 -185 -67 -322q-69 -142 -199 -217q-133 -80 -315 -80zM555 -39q-138 0 -254 78q-113 76 -176 211q-62 127 -59 287q3 155 77 288
q70 130 193 209q119 76 262 76q139 0 252 -76q110 -74 176 -209q60 -129 57 -286q-3 -156 -77 -289q-76 -136 -193 -211q-122 -78 -258 -78zM680 217q77 0 141 43q65 41 109 115q40 69 43 164q3 83 -33 159q-39 76 -100 117q-65 41 -140 41q-74 0 -139 -41
q-66 -45 -106 -117q-40 -76 -43 -163q-3 -88 32 -160q35 -75 99 -115q61 -43 137 -43zM578 1194l-351 369h316l157 -170l174 170h355l-373 -369h-278z" />
    <glyph glyph-name="uni01E8" unicode="&#x1e8;" horiz-adv-x="1411" 
d="M1061 0l-588 684v-684h-371v1423h371v-637l557 637h479l-628 -675l661 -748h-481zM571 1473l-350 368h316l157 -170l174 170h355l-373 -368h-279z" />
    <glyph glyph-name="uni01E9" unicode="&#x1e9;" horiz-adv-x="1376" 
d="M975 0l-506 492v-492h-373v1528h373v-946l489 489h494l-569 -522l581 -549h-489zM805 1194l-350 369h315l158 -170l174 170h354l-373 -369h-278z" />
    <glyph glyph-name="uni01EA" unicode="&#x1ea;" horiz-adv-x="1572" 
d="M956 -338l131 -235q-312 -65 -487 -31q-180 35 -219 151q-27 73 8 160q36 86 146 180q107 94 301 199q68 10 94 -16q29 -29 26 -72q-141 -74 -233 -162q-87 -84 -47 -145q25 -42 104 -45q85 -3 176 16zM762 -39q-221 0 -387 96q-167 97 -248 260q-85 166 -82 373
q3 193 96 365q87 164 260 268q166 100 392 100q221 0 387 -96q164 -95 250 -262q84 -172 81 -375q-3 -200 -100 -371q-95 -168 -264 -262q-172 -96 -385 -96zM768 285q111 0 193 55q83 56 129 149q46 90 49 201q3 116 -37 207q-44 91 -123 147q-85 54 -193 54
q-107 0 -190 -56q-83 -59 -129 -149q-46 -93 -49 -203q-6 -119 37 -207q41 -93 123 -145q80 -53 190 -53z" />
    <glyph glyph-name="uni01EB" unicode="&#x1eb;" horiz-adv-x="1404" 
d="M870 -338l131 -235q-312 -65 -487 -31q-180 35 -219 151q-27 73 8 160q36 86 146 180q107 94 301 199q68 10 94 -16q29 -29 26 -72q-141 -74 -233 -162q-87 -84 -47 -145q25 -42 104 -45q85 -3 176 16zM700 -39q-184 0 -331 78q-147 77 -230 209q-85 136 -82 289
q3 159 88 290q80 129 234 207q146 76 332 76q194 0 340 -76q147 -78 225 -205q80 -133 80 -290q-3 -158 -86 -291q-85 -132 -234 -209q-153 -78 -336 -78zM696 244q88 0 156 39q66 40 106 106q39 62 39 148q3 86 -30 151q-33 63 -101 105q-62 36 -153 36t-154 -38
q-66 -38 -108 -105q-40 -67 -43 -147q-3 -83 34 -150q33 -64 103 -106q62 -39 151 -39z" />
    <glyph glyph-name="uni01EC" unicode="&#x1ec;" horiz-adv-x="1572" 
d="M956 -338l131 -235q-312 -65 -487 -31q-180 35 -219 151q-27 73 8 160q36 86 146 180q107 94 301 199q68 10 94 -16q29 -29 26 -72q-141 -74 -233 -162q-87 -84 -47 -145q25 -42 104 -45q85 -3 176 16zM762 -39q-221 0 -387 96q-167 97 -248 260q-85 166 -82 373
q3 193 96 365q87 164 260 268q166 100 392 100q221 0 387 -96q164 -95 250 -262q84 -172 81 -375q-3 -200 -100 -371q-95 -168 -264 -262q-172 -96 -385 -96zM768 285q111 0 193 55q83 56 129 149q46 90 49 201q3 116 -37 207q-44 91 -123 147q-85 54 -193 54
q-107 0 -190 -56q-83 -59 -129 -149q-46 -93 -49 -203q-6 -119 37 -207q41 -93 123 -145q80 -53 190 -53zM354 1522v286h863v-286h-863z" />
    <glyph glyph-name="uni01ED" unicode="&#x1ed;" horiz-adv-x="1404" 
d="M870 -338l131 -235q-312 -65 -487 -31q-180 35 -219 151q-27 73 8 160q36 86 146 180q107 94 301 199q68 10 94 -16q29 -29 26 -72q-141 -74 -233 -162q-87 -84 -47 -145q25 -42 104 -45q85 -3 176 16zM700 -39q-184 0 -331 78q-147 77 -230 209q-85 136 -82 289
q3 159 88 290q80 129 234 207q146 76 332 76q194 0 340 -76q147 -78 225 -205q80 -133 80 -290q-3 -158 -86 -291q-85 -132 -234 -209q-153 -78 -336 -78zM696 244q88 0 156 39q66 40 106 106q39 62 39 148q3 86 -30 151q-33 63 -101 105q-62 36 -153 36t-154 -38
q-66 -38 -108 -105q-40 -67 -43 -147q-3 -83 34 -150q33 -64 103 -106q62 -39 151 -39zM272 1243v287h863v-287h-863z" />
    <glyph glyph-name="uni01F1" unicode="&#x1f1;" horiz-adv-x="2750" 
d="M162 0l76 1423h442q192 0 338 -96q148 -102 225 -260q78 -167 78 -356q0 -177 -78 -344q-75 -161 -225 -265q-147 -102 -346 -102h-510zM106 0v1423h377v-1423h-377zM344 295h295q94 0 166 57q74 56 117 156q42 96 39 223q-6 189 -91 297q-85 105 -225 105h-321zM1337 0
l805 1133h-741v290h1364l-826 -1136h793v-287h-1395z" />
    <glyph glyph-name="uni01F2" unicode="&#x1f2;" horiz-adv-x="2557" 
d="M162 0l76 1423h442q192 0 338 -96q148 -102 225 -260q78 -167 78 -356q0 -177 -78 -344q-75 -161 -225 -265q-147 -102 -346 -102h-510zM106 0v1423h377v-1423h-377zM344 295h295q94 0 166 57q74 56 117 156q42 96 39 223q-6 189 -91 297q-85 105 -225 105h-321zM1378 0
l588 788h-563v283h1167l-612 -792h590v-279h-1170z" />
    <glyph glyph-name="uni01F3" unicode="&#x1f3;" horiz-adv-x="2613" 
d="M569 -39q-147 0 -260 76q-117 73 -182 207q-66 135 -66 293q0 153 72 288q71 132 197 209q122 76 268 76q147 0 260 -76q114 -77 178 -207q64 -131 64 -290q-3 -156 -74 -289t-190 -209q-122 -78 -267 -78zM686 217q78 0 148 43q67 38 112 115q42 68 45 162q0 90 -37 163
q-39 77 -100 115q-65 41 -145 41q-84 0 -152 -41q-67 -43 -108 -117t-41 -163q0 -94 36 -162q39 -76 101 -115q65 -41 141 -41zM991 0l-2 1528h371l2 -1528h-371zM1436 0l587 788h-563v283h1168l-613 -792h590v-279h-1169z" />
    <glyph glyph-name="uni01F4" unicode="&#x1f4;" horiz-adv-x="1527" 
d="M762 -39q-223 0 -385 98q-164 95 -250 265q-85 168 -82 376q3 185 96 357q90 164 260 266q166 100 392 100q191 0 331 -82q139 -81 224 -211q80 -127 98 -256h-356q-9 53 -50 107q-38 47 -104 82q-62 33 -156 33q-106 0 -188 -52q-78 -50 -127 -143q-48 -91 -51 -201
q-3 -122 39 -213q44 -95 122 -147q80 -53 189 -53q92 0 166 39q76 40 125 110q46 69 61 162l357 -6q-17 -155 -109 -305q-90 -147 -244 -236q-159 -90 -358 -90zM748 520v230h725v-158l-154 -72h-571zM580 1466l-88 158l483 315l155 -272z" />
    <glyph glyph-name="uni01F5" unicode="&#x1f5;" horiz-adv-x="1425" 
d="M756 -588q-185 0 -330 80q-147 80 -233 227l299 136q50 -71 112 -107q65 -38 131 -35q116 0 174 76q59 77 62 201v1081h366v-1040q0 -185 -67 -322q-69 -142 -199 -217q-133 -80 -315 -80zM555 -39q-138 0 -254 78q-113 76 -176 211q-62 127 -59 287q3 155 77 288
q70 130 193 209q119 76 262 76q139 0 252 -76q110 -74 176 -209q60 -129 57 -286q-3 -156 -77 -289q-76 -136 -193 -211q-122 -78 -258 -78zM680 217q77 0 141 43q65 41 109 115q40 69 43 164q3 83 -33 159q-39 76 -100 117q-65 41 -140 41q-74 0 -139 -41
q-66 -45 -106 -117q-40 -76 -43 -163q-3 -88 32 -160q35 -75 99 -115q61 -43 137 -43zM551 1163l-88 158l483 315l156 -272z" />
    <glyph glyph-name="uni01F8" unicode="&#x1f8;" horiz-adv-x="1538" 
d="M1067 0l-602 879v-879h-359v1423h359l612 -888v888h359v-1423h-369zM971 1456l-563 238l155 266l481 -361z" />
    <glyph glyph-name="uni01F9" unicode="&#x1f9;" 
d="M995 0v594q0 105 -53 170q-51 63 -156 63q-85 0 -153 -45q-73 -48 -113 -129q-42 -79 -45 -194l-106 41q3 172 82 315q78 141 206 217q132 78 283 78q207 0 320 -125q110 -125 110 -358v-627h-375zM104 0v1071h371v-1071h-371zM926 1178l-564 237l156 266l481 -360z" />
    <glyph glyph-name="Aringacute" unicode="&#x1fa;" horiz-adv-x="1480" 
d="M20 0l474 1423h499l465 -1423h-383l-92 283h-477l-84 -283h-402zM575 551h324l-166 498zM741 1290q-95 0 -168 37q-76 37 -116 98q-41 62 -41 138q0 72 41 137q40 63 112 100q73 37 168 37q105 0 178 -33q74 -35 115 -94q38 -55 41 -133q3 -77 -37 -141
q-41 -65 -116 -105q-77 -41 -177 -41zM741 1458q52 0 80 31q30 30 27 74q0 45 -27 75q-28 31 -78 31t-79 -29q-29 -32 -29 -75q-3 -46 27 -76q28 -31 79 -31zM573 1751l-88 119l484 237l155 -204z" />
    <glyph glyph-name="aringacute" unicode="&#x1fb;" horiz-adv-x="1445" 
d="M569 -39q-147 0 -260 76q-117 73 -182 207q-66 135 -66 293q0 153 72 288q71 132 197 209q122 76 268 76q147 0 260 -76q114 -77 178 -207q64 -131 64 -290q-3 -156 -74 -289t-190 -209q-122 -78 -267 -78zM686 217q78 0 148 43q67 38 112 115q42 68 45 162q0 90 -37 163
q-39 77 -100 115q-65 41 -145 41q-84 0 -152 -41q-67 -43 -108 -117t-41 -163q0 -94 36 -162q39 -76 101 -115q65 -41 141 -41zM991 0l-2 1071h371l2 -1071h-371zM723 1141q-94 0 -168 41q-78 41 -117 106q-41 65 -41 148q0 78 41 149q42 70 113 109t168 39q103 0 178 -37
q76 -39 115 -101q38 -60 41 -143q3 -84 -37 -154t-117 -114q-76 -43 -176 -43zM723 1323q54 0 80 33q29 32 26 80q0 49 -26 82q-25 32 -80 32q-51 0 -78 -30q-29 -37 -29 -82q-3 -49 27 -82q26 -33 80 -33zM494 1751l-88 158l483 315l155 -272z" />
    <glyph glyph-name="AEacute" unicode="&#x1fc;" horiz-adv-x="1898" 
d="M18 0l684 1423h1094v-286h-530v-285h446v-291h-446v-272h567v-289h-938v283h-348l-133 -283h-396zM666 551h229v477zM901 1466l-88 158l483 315l156 -272z" />
    <glyph glyph-name="aeacute" unicode="&#x1fd;" horiz-adv-x="2148" 
d="M1481 -39q-181 0 -314 74q-132 73 -202 205q-71 130 -68 297q3 153 74 286q72 135 200 209q132 78 304 78q190 0 329 -80q135 -79 205 -211q67 -131 64 -284q0 -24 -11 -99h-843q9 -91 81 -145q70 -58 191 -58q73 0 143 31q67 31 107 80l264 -156q-92 -102 -227 -165
q-133 -62 -297 -62zM586 227q113 0 190 56q74 54 96 151h-323q-104 0 -143 -51q-41 -53 8 -104q49 -52 172 -52zM504 -39q-277 0 -387 168q-113 165 -8 334q102 166 368 166h402q0 84 -62 137q-60 51 -180 51q-85 0 -145 -31q-54 -28 -91 -90l-301 129q64 124 207 205
q139 80 352 80q184 0 310 -66q120 -68 178 -186q57 -117 51 -278l-55 -97q-3 -148 -88 -272q-81 -118 -228 -184t-323 -66zM1227 635h491q-3 55 -30 102q-30 51 -78 76q-52 27 -123 27q-105 0 -170 -56q-70 -57 -90 -149zM844 1090l-88 157l483 316l156 -273z" />
    <glyph glyph-name="Oslashacute" unicode="&#x1fe;" horiz-adv-x="1572" 
d="M762 -39q-221 0 -387 96q-167 97 -248 260q-85 166 -82 373q3 193 96 365q87 164 260 268q166 100 392 100q221 0 387 -96q164 -95 250 -262q84 -172 81 -375q-3 -200 -100 -371q-95 -168 -264 -262q-172 -96 -385 -96zM768 285q111 0 193 55q83 56 129 149q46 90 49 201
q3 116 -37 207q-44 91 -123 147q-85 54 -193 54q-107 0 -190 -56q-83 -59 -129 -149q-46 -93 -49 -203q-6 -119 37 -207q41 -93 123 -145q80 -53 190 -53zM240 -39l759 1456h328l-764 -1456h-323zM616 1466l-88 158l484 315l155 -272z" />
    <glyph glyph-name="oslashacute" unicode="&#x1ff;" horiz-adv-x="1404" 
d="M700 -39q-184 0 -331 78q-147 77 -230 209q-85 136 -82 289q3 159 88 290q80 129 234 207q146 76 332 76q194 0 340 -76q147 -78 225 -205q80 -133 80 -290q-3 -158 -86 -291q-85 -132 -234 -209q-153 -78 -336 -78zM696 244q88 0 156 39q66 40 106 106q39 62 39 148
q3 86 -30 151q-33 63 -101 105q-62 36 -153 36t-154 -38q-66 -38 -108 -105q-40 -67 -43 -147q-3 -83 34 -150q33 -64 103 -106q62 -39 151 -39zM168 -35l760 1159h327l-763 -1159h-324zM514 1163l-88 158l483 315l156 -272z" />
    <glyph glyph-name="uni0200" unicode="&#x200;" horiz-adv-x="1480" 
d="M20 0l474 1423h499l465 -1423h-383l-92 283h-477l-84 -283h-402zM575 551h324l-166 498zM719 1460l-520 201l143 270l358 -248l131 248l455 -313l-78 -158l-415 160l4 -2z" />
    <glyph glyph-name="uni0201" unicode="&#x201;" horiz-adv-x="1445" 
d="M569 -39q-147 0 -260 76q-117 73 -182 207q-66 135 -66 293q0 153 72 288q71 132 197 209q122 76 268 76q147 0 260 -76q114 -77 178 -207q64 -131 64 -290q-3 -156 -74 -289t-190 -209q-122 -78 -267 -78zM686 217q78 0 148 43q67 38 112 115q42 68 45 162q0 90 -37 163
q-39 77 -100 115q-65 41 -145 41q-84 0 -152 -41q-67 -43 -108 -117t-41 -163q0 -94 36 -162q39 -76 101 -115q65 -41 141 -41zM991 0l-2 1071h371l2 -1071h-371zM610 1182l-520 200l143 271l359 -248l131 248l455 -314l-78 -157l-416 159l4 -2z" />
    <glyph glyph-name="uni0202" unicode="&#x202;" horiz-adv-x="1480" 
d="M20 0l474 1423h499l465 -1423h-383l-92 283h-477l-84 -283h-402zM575 551h324l-166 498zM741 1769q121 0 203 -36q84 -41 129 -107q45 -65 45 -149h-221q3 53 -33 82q-39 28 -123 28q-77 0 -116 -28q-40 -30 -37 -82h-226q0 83 44 151q44 64 129 105q82 36 206 36z" />
    <glyph glyph-name="uni0203" unicode="&#x203;" horiz-adv-x="1445" 
d="M569 -39q-147 0 -260 76q-117 73 -182 207q-66 135 -66 293q0 153 72 288q71 132 197 209q122 76 268 76q147 0 260 -76q114 -77 178 -207q64 -131 64 -290q-3 -156 -74 -289t-190 -209q-122 -78 -267 -78zM686 217q78 0 148 43q67 38 112 115q42 68 45 162q0 90 -37 163
q-39 77 -100 115q-65 41 -145 41q-84 0 -152 -41q-67 -43 -108 -117t-41 -163q0 -94 36 -162q39 -76 101 -115q65 -41 141 -41zM991 0l-2 1071h371l2 -1071h-371zM729 1483q119 0 203 -37q84 -41 129 -107q45 -65 45 -149h-221q3 53 -33 82q-39 28 -123 28q-78 0 -117 -28
q-40 -30 -37 -82h-225q0 84 43 151q43 65 129 105q84 37 207 37z" />
    <glyph glyph-name="uni0204" unicode="&#x204;" horiz-adv-x="1216" 
d="M90 0v1423h1024v-286h-653v-285h569l-2 -291h-567v-272h690v-289h-1061zM498 1460l-521 201l144 270l358 -248l131 248l455 -313l-78 -158l-416 160l4 -2z" />
    <glyph glyph-name="uni0205" unicode="&#x205;" horiz-adv-x="1357" 
d="M690 -39q-199 0 -344 74q-148 76 -223 205q-79 133 -76 297q3 155 82 286q79 132 225 209q147 78 332 78q189 0 334 -80q142 -80 215 -211q75 -135 72 -284q-6 -66 -13 -99h-891q9 -88 93 -145q79 -58 204 -58q87 0 160 33q73 30 115 78l264 -156q-91 -102 -235 -163
q-143 -64 -314 -64zM410 635h540q-3 49 -35 102q-32 50 -86 76q-59 27 -135 27q-112 0 -186 -56q-77 -56 -98 -149zM567 1182l-520 200l143 271l359 -248l131 248l455 -314l-78 -157l-416 159l4 -2z" />
    <glyph glyph-name="uni0206" unicode="&#x206;" horiz-adv-x="1216" 
d="M90 0v1423h1024v-286h-653v-285h569l-2 -291h-567v-272h690v-289h-1061zM614 1788q119 0 203 -37q85 -42 129 -106q45 -65 45 -150h-221q3 53 -33 82q-40 29 -123 29q-76 0 -116 -29q-40 -30 -37 -82h-225q0 85 43 152q43 63 129 104q84 37 206 37z" />
    <glyph glyph-name="uni0207" unicode="&#x207;" horiz-adv-x="1357" 
d="M690 -39q-199 0 -344 74q-148 76 -223 205q-79 133 -76 297q3 155 82 286q79 132 225 209q147 78 332 78q189 0 334 -80q142 -80 215 -211q75 -135 72 -284q-6 -66 -13 -99h-891q9 -88 93 -145q79 -58 204 -58q87 0 160 33q73 30 115 78l264 -156q-91 -102 -235 -163
q-143 -64 -314 -64zM410 635h540q-3 49 -35 102q-32 50 -86 76q-59 27 -135 27q-112 0 -186 -56q-77 -56 -98 -149zM684 1479q119 0 203 -37q84 -41 129 -107q45 -65 45 -149h-221q3 53 -33 82q-39 28 -123 28q-78 0 -117 -28q-40 -30 -37 -82h-225q0 84 43 151
q44 65 129 105q84 37 207 37z" />
    <glyph glyph-name="uni0208" unicode="&#x208;" horiz-adv-x="614" 
d="M127 0v1423h371v-1423h-371zM195 1460l-521 201l144 270l358 -248l131 248l455 -313l-78 -158l-416 160l4 -2z" />
    <glyph glyph-name="uni0209" unicode="&#x209;" horiz-adv-x="581" 
d="M102 0v1071h375v-1071h-375zM178 1182l-520 200l143 271l359 -248l131 248l454 -314l-77 -157l-416 159l4 -2z" />
    <glyph glyph-name="uni020A" unicode="&#x20a;" horiz-adv-x="614" 
d="M127 0v1423h371v-1423h-371zM311 1769q121 0 203 -36q84 -41 129 -107q45 -65 45 -149h-221q3 53 -33 82q-39 28 -123 28q-77 0 -116 -28q-40 -30 -37 -82h-226q0 84 43 151q43 64 129 105q82 36 207 36z" />
    <glyph glyph-name="uni020B" unicode="&#x20b;" horiz-adv-x="581" 
d="M141 1206h-223q-3 82 41 150q43 63 129 104q82 39 209 39q122 0 201 -39q84 -41 129 -104q45 -65 45 -150h-219q3 50 -35 80q-39 31 -121 31q-80 0 -119 -31q-40 -30 -37 -80zM102 0v1071h375v-1071h-375z" />
    <glyph glyph-name="uni020C" unicode="&#x20c;" horiz-adv-x="1572" 
d="M762 -39q-221 0 -387 96q-167 97 -248 260q-85 166 -82 373q3 193 96 365q87 164 260 268q166 100 392 100q221 0 387 -96q164 -95 250 -262q84 -172 81 -375q-3 -200 -100 -371q-95 -168 -264 -262q-172 -96 -385 -96zM768 285q111 0 193 55q83 56 129 149q46 90 49 201
q3 116 -37 207q-44 91 -123 147q-85 54 -193 54q-107 0 -190 -56q-83 -59 -129 -149q-46 -93 -49 -203q-6 -119 37 -207q41 -93 123 -145q80 -53 190 -53zM676 1460l-520 201l143 270l358 -248l131 248l455 -313l-78 -158l-415 160l4 -2z" />
    <glyph glyph-name="uni020D" unicode="&#x20d;" horiz-adv-x="1404" 
d="M700 -39q-184 0 -331 78q-147 77 -230 209q-85 136 -82 289q3 159 88 290q80 129 234 207q146 76 332 76q194 0 340 -76q147 -78 225 -205q80 -133 80 -290q-3 -158 -86 -291q-85 -132 -234 -209q-153 -78 -336 -78zM696 244q88 0 156 39q66 40 106 106q39 62 39 148
q3 86 -30 151q-33 63 -101 105q-62 36 -153 36t-154 -38q-66 -38 -108 -105q-40 -67 -43 -147q-3 -83 34 -150q33 -64 103 -106q62 -39 151 -39zM588 1182l-520 200l143 271l358 -248l131 248l455 -314l-78 -157l-415 159l4 -2z" />
    <glyph glyph-name="uni020E" unicode="&#x20e;" horiz-adv-x="1572" 
d="M762 -39q-221 0 -387 96q-167 97 -248 260q-85 166 -82 373q3 193 96 365q87 164 260 268q166 100 392 100q221 0 387 -96q164 -95 250 -262q84 -172 81 -375q-3 -200 -100 -371q-95 -168 -264 -262q-172 -96 -385 -96zM768 285q111 0 193 55q83 56 129 149q46 90 49 201
q3 116 -37 207q-44 91 -123 147q-85 54 -193 54q-107 0 -190 -56q-83 -59 -129 -149q-46 -93 -49 -203q-6 -119 37 -207q41 -93 123 -145q80 -53 190 -53zM793 1753q118 0 202 -37q85 -42 129 -106q45 -65 45 -150h-221q3 53 -33 82q-40 29 -122 29q-77 0 -117 -29
q-40 -30 -37 -82h-225q0 85 43 152q43 63 129 104q84 37 207 37z" />
    <glyph glyph-name="uni020F" unicode="&#x20f;" horiz-adv-x="1404" 
d="M700 -39q-184 0 -331 78q-147 77 -230 209q-85 136 -82 289q3 159 88 290q80 129 234 207q146 76 332 76q194 0 340 -76q147 -78 225 -205q80 -133 80 -290q-3 -158 -86 -291q-85 -132 -234 -209q-153 -78 -336 -78zM696 244q88 0 156 39q66 40 106 106q39 62 39 148
q3 86 -30 151q-33 63 -101 105q-62 36 -153 36t-154 -38q-66 -38 -108 -105q-40 -67 -43 -147q-3 -83 34 -150q33 -64 103 -106q62 -39 151 -39zM709 1485q118 0 202 -37q84 -41 129 -107q45 -65 45 -149h-221q3 53 -33 82q-40 29 -122 29q-77 0 -117 -29q-40 -30 -37 -82
h-225q0 84 43 151q43 65 129 105q84 37 207 37z" />
    <glyph glyph-name="uni0210" unicode="&#x210;" horiz-adv-x="1284" 
d="M889 0l-535 657l-8 766h297q180 3 315 -63q132 -65 203 -176q70 -113 70 -248q0 -164 -94 -277q-91 -110 -263 -157l453 -502h-438zM102 0v1423h375v-1423h-375zM424 713h197q109 3 172 57q64 55 61 158q-3 94 -66 145q-66 48 -170 45h-192zM530 1460l-520 201l144 270
l358 -248l131 248l455 -313l-78 -158l-416 160l4 -2z" />
    <glyph glyph-name="uni0211" unicode="&#x211;" horiz-adv-x="1273" 
d="M473 483h-104q3 185 75 332q69 141 185 219q110 76 233 76t209 -57q88 -60 133 -174q46 -116 43 -289h-370q3 109 -41 174q-42 63 -123 63q-68 0 -121 -41q-54 -42 -84 -118q-32 -71 -35 -185zM102 0v1071h371v-1071h-371zM524 1182l-520 200l143 271l359 -248l131 248
l455 -314l-78 -157l-416 159l4 -2z" />
    <glyph glyph-name="uni0212" unicode="&#x212;" horiz-adv-x="1284" 
d="M889 0l-535 657l-8 766h297q180 3 315 -63q132 -65 203 -176q70 -113 70 -248q0 -164 -94 -277q-91 -110 -263 -157l453 -502h-438zM102 0v1423h375v-1423h-375zM424 713h197q109 3 172 57q64 55 61 158q-3 94 -66 145q-66 48 -170 45h-192zM625 1769q120 0 202 -36
q84 -41 129 -107q45 -65 45 -149h-221q3 54 -32 82q-39 28 -123 28q-78 0 -117 -28q-40 -30 -37 -82h-225q0 84 43 151q43 64 129 105q82 36 207 36z" />
    <glyph glyph-name="uni0213" unicode="&#x213;" horiz-adv-x="1273" 
d="M473 483h-104q3 185 75 332q69 141 185 219q110 76 233 76t209 -57q88 -60 133 -174q46 -116 43 -289h-370q3 109 -41 174q-42 63 -123 63q-68 0 -121 -41q-54 -42 -84 -118q-32 -71 -35 -185zM102 0v1071h371v-1071h-371zM643 1468q121 0 203 -36q84 -41 129 -107
q45 -65 45 -149h-221q3 52 -33 81q-40 29 -123 29q-77 0 -117 -29q-40 -30 -37 -81h-225q0 84 43 151q43 65 129 105q82 36 207 36z" />
    <glyph glyph-name="uni0214" unicode="&#x214;" horiz-adv-x="1536" 
d="M760 -39q-317 0 -498 172q-182 173 -182 531v759h371v-741q0 -204 84 -291q82 -88 231 -88q158 0 240 94q81 90 81 285v741h381v-764q0 -219 -82 -374q-84 -158 -241 -240q-162 -84 -385 -84zM655 1460l-520 201l144 270l358 -248l131 248l455 -313l-78 -158l-416 160
l4 -2z" />
    <glyph glyph-name="uni0215" unicode="&#x215;" 
d="M530 -39q-205 0 -315 125q-111 126 -111 358v627h373v-594q0 -106 53 -168q51 -63 154 -63q90 0 158 45q67 44 112 129q40 82 43 192l107 -41q-3 -176 -80 -315q-78 -140 -207 -217q-135 -78 -287 -78zM997 0v1071h373v-1071h-373zM618 1182l-520 200l144 271l358 -248
l131 248l455 -314l-78 -157l-416 159l4 -2z" />
    <glyph glyph-name="uni0216" unicode="&#x216;" horiz-adv-x="1536" 
d="M760 -39q-317 0 -498 172q-182 173 -182 531v759h371v-741q0 -204 84 -291q82 -88 231 -88q158 0 240 94q81 90 81 285v741h381v-764q0 -219 -82 -374q-84 -158 -241 -240q-162 -84 -385 -84zM774 1745q119 0 203 -37q85 -42 129 -106q45 -65 45 -150h-221q3 53 -33 82
q-40 29 -123 29q-77 0 -117 -29q-39 -29 -36 -82h-226q0 85 43 152q43 63 129 104q84 37 207 37z" />
    <glyph glyph-name="uni0217" unicode="&#x217;" 
d="M530 -39q-205 0 -315 125q-111 126 -111 358v627h373v-594q0 -106 53 -168q51 -63 154 -63q90 0 158 45q67 44 112 129q40 82 43 192l107 -41q-3 -176 -80 -315q-78 -140 -207 -217q-135 -78 -287 -78zM997 0v1071h373v-1071h-373zM735 1466q121 0 203 -36
q84 -41 129 -107q45 -65 45 -149h-221q3 52 -33 81q-40 29 -123 29q-77 0 -117 -29q-39 -29 -36 -81h-226q0 84 43 151q43 65 129 105q82 36 207 36z" />
    <glyph glyph-name="uni0218" unicode="&#x218;" horiz-adv-x="1402" 
d="M690 -39q-200 0 -356 72q-155 70 -242 192q-88 119 -94 262h364q15 -94 95 -155q76 -61 202 -70q132 -9 215 35q81 41 87 115q3 65 -64 102q-72 37 -229 51q-298 30 -449 142q-152 112 -149 301q3 128 84 221q81 92 219 145q134 49 297 49q190 0 334 -63
q151 -66 239 -176q90 -116 111 -264l-363 2q-18 87 -104 143q-85 55 -217 55q-70 0 -123 -18q-56 -22 -80 -53q-29 -37 -29 -70q0 -55 47 -82q47 -30 160 -45l37 -4q356 -38 506 -146q150 -111 153 -288q3 -133 -73 -234q-78 -100 -228 -160q-151 -59 -350 -59z" />
    <glyph glyph-name="uni0219" unicode="&#x219;" horiz-adv-x="1323" 
d="M659 -39q-197 0 -331 57q-141 59 -217 152q-77 92 -80 199h352q12 -63 74 -107q56 -42 178 -45q73 -3 135 14q55 16 82 43q27 24 27 54q0 27 -19 49q-23 20 -72 31q-46 11 -145 20q-256 21 -397 111q-140 90 -137 237q0 94 67 170q61 73 189 121q119 43 284 43
q172 0 297 -49q131 -55 201 -139q73 -92 88 -203h-356q-12 61 -72 96q-59 35 -164 35q-62 0 -100 -14q-41 -15 -60 -37t-16 -47q3 -41 49 -62q43 -24 146 -33q228 -21 352 -63q128 -47 180 -111q52 -67 55 -161q3 -96 -65 -179q-66 -80 -201 -131q-131 -51 -324 -51z" />
    <glyph glyph-name="uni021A" unicode="&#x21a;" horiz-adv-x="1222" 
d="M434 0v1135h-454v288h1284v-288h-455v-1135h-375z" />
    <glyph glyph-name="uni021B" unicode="&#x21b;" horiz-adv-x="1060" 
d="M340 0v803h-336v268h336v359h379v-359h354v-268h-354v-803h-379z" />
    <glyph glyph-name="uni021E" unicode="&#x21e;" horiz-adv-x="1474" 
d="M1012 0v569h-549v-569h-371v1423h371v-573h549v573h370v-1423h-370zM602 1473l-350 368h315l158 -170l174 170h354l-372 -368h-279z" />
    <glyph glyph-name="uni021F" unicode="&#x21f;" horiz-adv-x="1437" 
d="M977 0v594q0 105 -53 170q-51 63 -154 63q-88 0 -156 -45q-72 -47 -112 -129q-40 -81 -43 -194l-109 41q3 174 82 317q76 137 207 215q132 78 285 78q204 0 317 -125q111 -126 111 -358v-627h-375zM86 0v1528h373v-1528h-373zM727 1327l-350 369h315l158 -170l174 170
h354l-372 -369h-279z" />
    <glyph glyph-name="uni0226" unicode="&#x226;" horiz-adv-x="1480" 
d="M20 0l474 1423h499l465 -1423h-383l-92 283h-477l-84 -283h-402zM575 551h324l-166 498zM741 1501q-92 0 -153 55q-62 56 -62 138q0 79 60 139q58 55 151 55q94 0 158 -55q61 -58 61 -139q0 -82 -59 -138q-61 -55 -156 -55z" />
    <glyph glyph-name="uni0227" unicode="&#x227;" horiz-adv-x="1445" 
d="M569 -39q-147 0 -260 76q-117 73 -182 207q-66 135 -66 293q0 153 72 288q71 132 197 209q122 76 268 76q147 0 260 -76q114 -77 178 -207q64 -131 64 -290q-3 -156 -74 -289t-190 -209q-122 -78 -267 -78zM686 217q78 0 148 43q67 38 112 115q42 68 45 162q0 90 -37 163
q-39 77 -100 115q-65 41 -145 41q-84 0 -152 -41q-67 -43 -108 -117t-41 -163q0 -94 36 -162q39 -76 101 -115q65 -41 141 -41zM991 0l-2 1071h371l2 -1071h-371zM721 1223q-93 0 -154 55t-61 137q0 80 59 139q59 56 152 56q92 0 157 -56q62 -59 62 -139q0 -81 -59 -137
q-61 -55 -156 -55z" />
    <glyph glyph-name="uni0228" unicode="&#x228;" horiz-adv-x="1216" 
d="M147 -541l21 213q193 -22 278 -22q95 0 148 20q53 21 47 66q-3 40 -68 49q-57 5 -157 2h-35l108 287l203 12l-35 -207q108 12 193 -16q80 -26 102 -115q27 -132 -57 -207q-88 -79 -287 -100q-205 -25 -461 18zM90 0v1423h1024v-286h-653v-285h569l-2 -291h-567v-272h690
v-289h-1061z" />
    <glyph glyph-name="uni0229" unicode="&#x229;" horiz-adv-x="1357" 
d="M246 -520l18 211q187 -21 281 -21q91 0 147 21q53 21 47 65q-3 40 -67 49q-57 5 -158 2h-35l109 287l203 12l-37 -206q107 11 194 -17q83 -27 101 -116q30 -128 -56 -205q-90 -80 -286 -101q-202 -24 -461 19zM690 -39q-199 0 -344 74q-148 76 -223 205q-79 133 -76 297
q3 155 82 286q79 132 225 209q147 78 332 78q189 0 334 -80q142 -80 215 -211q75 -135 72 -284q-6 -66 -13 -99h-891q9 -88 93 -145q79 -58 204 -58q87 0 160 33q73 30 115 78l264 -156q-91 -102 -235 -163q-143 -64 -314 -64zM410 635h540q-3 49 -35 102q-32 50 -86 76
q-59 27 -135 27q-112 0 -186 -56q-77 -56 -98 -149z" />
    <glyph glyph-name="uni022A" unicode="&#x22a;" horiz-adv-x="1572" 
d="M762 -39q-224 0 -387 94q-166 93 -248 256q-85 163 -82 365q3 190 96 356q85 157 260 262q170 99 392 99q223 0 387 -95q166 -96 250 -256q84 -166 81 -366q-3 -195 -100 -363q-95 -163 -264 -258q-169 -94 -385 -94zM768 279q111 0 193 55q82 52 129 145q46 87 49 197
q3 116 -37 203q-45 91 -123 143q-80 51 -193 51q-107 0 -190 -53q-81 -54 -129 -146q-46 -91 -49 -198q-6 -115 37 -203q41 -89 123 -141q80 -53 190 -53zM1061 1454q-95 0 -156 55q-60 51 -63 136q3 79 63 133q58 55 152 55q93 0 157 -55q65 -56 62 -136q3 -80 -59 -133
q-61 -55 -156 -55zM514 1454q-96 0 -154 55q-61 52 -61 136q0 77 59 133q58 55 150 55q96 0 160 -55q61 -55 61 -136q0 -80 -59 -133q-61 -55 -156 -55zM356 1886v209h863v-209h-863z" />
    <glyph glyph-name="uni022B" unicode="&#x22b;" horiz-adv-x="1404" 
d="M700 -39q-184 0 -331 78q-147 77 -230 209q-85 136 -82 289q3 159 88 290q80 129 234 207q146 76 332 76q194 0 340 -76q147 -78 225 -205q80 -133 80 -290q-3 -158 -86 -291q-85 -132 -234 -209q-153 -78 -336 -78zM696 244q88 0 156 39q66 40 106 106q39 62 39 148
q3 86 -30 151q-33 63 -101 105q-62 36 -153 36t-154 -38q-66 -38 -108 -105q-40 -67 -43 -147q-3 -83 34 -150q33 -64 103 -106q62 -39 151 -39zM975 1192q-96 0 -156 57q-61 55 -61 137q0 80 61 138q57 57 154 57q92 0 155 -57q64 -58 64 -140q0 -79 -62 -135
q-60 -57 -155 -57zM430 1192q-99 0 -156 57q-61 55 -61 137q0 79 59 138q57 57 152 57t158 -57q61 -58 61 -140q0 -79 -59 -135q-60 -57 -154 -57zM272 1679v287h863v-287h-863z" />
    <glyph glyph-name="uni022C" unicode="&#x22c;" horiz-adv-x="1572" 
d="M762 -39q-224 0 -387 94q-168 97 -248 256q-85 163 -82 365q3 190 96 356q86 159 260 264q170 99 392 99q223 0 387 -95q165 -95 250 -258q84 -166 81 -366q-3 -195 -100 -363q-93 -161 -264 -256q-172 -96 -385 -96zM768 281q110 -3 193 53q82 52 129 145q46 87 49 197
q3 116 -37 203q-45 91 -123 143q-83 53 -193 53q-107 0 -190 -53q-82 -55 -129 -148q-46 -91 -49 -198q-6 -115 37 -203q41 -89 123 -141q82 -54 190 -51zM573 1446l-256 -2q-20 121 11 213q27 87 96 135q68 47 162 47q72 0 116 -20q41 -18 101 -58q20 -15 53 -32
q23 -13 45 -13q60 0 86 33q26 32 17 82h253q21 -120 -14 -207q-37 -87 -110 -133q-69 -44 -168 -47q-72 3 -113 20q-43 18 -92 58q-34 28 -51 37q-23 10 -50 10q-53 0 -73 -33q-21 -35 -13 -90zM365 1876v223h862v-223h-862z" />
    <glyph glyph-name="uni022D" unicode="&#x22d;" horiz-adv-x="1404" 
d="M700 -39q-184 0 -331 78q-147 77 -230 209q-85 136 -82 289q3 159 88 290q80 129 234 207q146 76 332 76q194 0 340 -76q147 -78 225 -205q80 -133 80 -290q-3 -158 -86 -291q-85 -132 -234 -209q-153 -78 -336 -78zM696 244q88 0 156 39q66 40 106 106q39 62 39 148
q3 86 -30 151q-33 63 -101 105q-62 36 -153 36t-154 -38q-66 -38 -108 -105q-40 -67 -43 -147q-3 -83 34 -150q33 -64 103 -106q62 -39 151 -39zM512 1196h-254q-21 128 8 215q27 88 96 139q68 47 162 47q73 0 117 -20q47 -21 100 -59q22 -17 54 -33q21 -12 45 -12
q61 0 86 32q24 35 16 84h254q21 -122 -14 -211q-38 -88 -111 -135q-74 -47 -168 -47q-69 0 -112 21q-47 20 -93 57q-34 28 -51 37q-23 10 -49 10q-54 0 -74 -33q-21 -34 -12 -92zM297 1696v286h862v-286h-862z" />
    <glyph glyph-name="uni022E" unicode="&#x22e;" horiz-adv-x="1572" 
d="M762 -39q-221 0 -387 96q-167 97 -248 260q-85 166 -82 373q3 193 96 365q87 164 260 268q166 100 392 100q221 0 387 -96q164 -95 250 -262q84 -172 81 -375q-3 -200 -100 -371q-95 -168 -264 -262q-172 -96 -385 -96zM768 285q111 0 193 55q83 56 129 149q46 90 49 201
q3 116 -37 207q-44 91 -123 147q-85 54 -193 54q-107 0 -190 -56q-83 -59 -129 -149q-46 -93 -49 -203q-6 -119 37 -207q41 -93 123 -145q80 -53 190 -53zM786 1501q-92 0 -153 55q-62 56 -62 138q0 79 60 139q58 55 151 55q94 0 158 -55q61 -58 61 -139q0 -82 -59 -138
q-61 -55 -156 -55z" />
    <glyph glyph-name="uni022F" unicode="&#x22f;" horiz-adv-x="1404" 
d="M700 -39q-184 0 -331 78q-147 77 -230 209q-85 136 -82 289q3 159 88 290q80 129 234 207q146 76 332 76q194 0 340 -76q147 -78 225 -205q80 -133 80 -290q-3 -158 -86 -291q-85 -132 -234 -209q-153 -78 -336 -78zM696 244q88 0 156 39q66 40 106 106q39 62 39 148
q3 86 -30 151q-33 63 -101 105q-62 36 -153 36t-154 -38q-66 -38 -108 -105q-40 -67 -43 -147q-3 -83 34 -150q33 -64 103 -106q62 -39 151 -39zM700 1223q-92 0 -153 55q-62 56 -62 137q0 79 60 139q59 56 151 56q93 0 158 -56q61 -58 61 -139t-59 -137q-61 -55 -156 -55z
" />
    <glyph glyph-name="uni0230" unicode="&#x230;" horiz-adv-x="1572" 
d="M762 -39q-224 0 -387 94q-166 93 -248 256q-85 163 -82 365q3 190 96 356q86 159 260 264q170 99 392 99q223 0 387 -95q165 -95 250 -258q84 -166 81 -366q-3 -195 -100 -363q-95 -163 -264 -258q-169 -94 -385 -94zM768 281q110 -3 193 53q82 52 129 145q46 87 49 197
q3 116 -37 203q-45 91 -123 143q-83 53 -193 53q-108 0 -190 -55q-81 -54 -129 -146q-46 -91 -49 -198q-6 -115 37 -203q41 -89 123 -141q82 -54 190 -51zM788 1470q-91 0 -153 56q-61 52 -64 133q3 79 62 135q58 55 149 55q96 0 160 -55q62 -56 62 -135t-60 -133
q-62 -56 -156 -56zM352 1901v237h862v-237h-862z" />
    <glyph glyph-name="uni0231" unicode="&#x231;" horiz-adv-x="1404" 
d="M700 -39q-184 0 -331 78q-147 77 -230 209q-85 136 -82 289q3 159 88 290q80 129 234 207q146 76 332 76q194 0 340 -76q147 -78 225 -205q80 -133 80 -290q-3 -158 -86 -291q-85 -132 -234 -209q-153 -78 -336 -78zM696 244q88 0 156 39q66 40 106 106q39 62 39 148
q3 86 -30 151q-33 63 -101 105q-62 36 -153 36t-154 -38q-66 -38 -108 -105q-40 -67 -43 -147q-3 -83 34 -150q33 -64 103 -106q62 -39 151 -39zM702 1223q-94 0 -155 55q-62 56 -62 137q0 79 60 139q59 56 151 56q93 0 158 -56q61 -58 61 -139t-59 -137q-61 -55 -154 -55z
M270 1690v233h863v-233h-863z" />
    <glyph glyph-name="uni0232" unicode="&#x232;" horiz-adv-x="1083" 
d="M346 0v422l-473 1001h385l274 -653l308 653h399l-512 -968l-2 -455h-379zM109 1522v286h862v-286h-862z" />
    <glyph glyph-name="uni0233" unicode="&#x233;" 
d="M530 -39q-205 0 -315 125q-111 126 -111 358v627h373v-594q0 -106 53 -168q51 -63 154 -63q90 0 158 45q67 44 112 129q40 82 43 192l107 -41q-3 -176 -80 -315q-78 -140 -207 -217q-135 -78 -287 -78zM997 -457v1528h373v-1528h-373zM301 1243v287h862v-287h-862z" />
    <glyph glyph-name="uni0237" unicode="&#x237;" horiz-adv-x="606" 
d="M-186 -457v289h41q123 0 190 64q66 63 66 180v995h370v-983q0 -167 -61 -289q-61 -125 -176 -190q-120 -66 -271 -66h-159z" />
  </font>
</defs>
</svg>
